<svg version="1.1" xmlns="http://www.w3.org/2000/svg" viewBox="0 0 734.4000549316406 835.2000274658203" width="734.4000549316406" height="835.2000274658203" class="excalidraw-svg">
  <!-- svg-source:excalidraw -->
  
  <defs>
    <style class="style-fonts">
      @font-face {
        font-family: "Virgil";
        src: url("https://excalidraw.com/Virgil.woff2");
      }
      @font-face {
        font-family: "Cascadia";
        src: url("https://excalidraw.com/Cascadia.woff2");
      }
      @font-face {
        font-family: "Assistant";
        src: url("https://excalidraw.com/Assistant-Regular.woff2");
      }
    </style>
    
  </defs>
  <rect x="0" y="0" width="734.4000549316406" height="835.2000274658203" fill="#ffffff"/><g transform="translate(348.3999938964844 550.8000030517578) rotate(0 37.20001220703125 13.199996948242188)" stroke="none"><path fill="#000000" d="M 0.60,0 Q 0.60,0 0.72,1.14 0.83,2.29 1.08,3.87 1.33,5.45 2.12,7.42 2.91,9.39 4.18,12.07 5.45,14.74 7.33,17.17 9.21,19.60 11.33,21.51 13.45,23.41 17.42,24.60 21.38,25.79 24.60,25.86 27.82,25.93 30.45,25.08 33.09,24.23 35.52,22.54 37.95,20.86 40.12,18.79 42.30,16.72 44.11,14.28 45.92,11.83 47.36,9.22 48.80,6.61 49.83,2.39 50.87,-1.83 51.09,-4.06 51.31,-6.29 51.18,-7.61 51.05,-8.94 50.63,-9.38 50.22,-9.83 49.81,-9.92 49.40,-10.01 49.29,-10.12 49.18,-10.22 49.10,-10.35 49.02,-10.48 48.97,-10.63 48.92,-10.77 48.90,-10.92 48.89,-11.07 48.91,-11.23 48.94,-11.38 49.00,-11.52 49.06,-11.66 49.15,-11.78 49.24,-11.90 49.36,-12.00 49.47,-12.10 49.61,-12.16 49.75,-12.23 49.90,-12.26 50.05,-12.29 50.20,-12.29 50.35,-12.28 50.50,-12.24 50.64,-12.20 50.78,-12.12 50.91,-12.05 51.01,-10.34 51.10,-8.64 51.05,-6.63 50.99,-4.63 50.96,-1.92 50.94,0.78 51.61,3.86 52.28,6.95 53.25,10.35 54.23,13.74 55.53,16.73 56.84,19.72 58.51,22.31 60.17,24.91 61.99,27.14 63.81,29.37 66.80,31.66 69.80,33.95 71.17,34.92 72.53,35.90 72.58,35.95 72.63,35.99 72.67,36.05 72.70,36.11 72.72,36.18 72.73,36.25 72.72,36.32 72.71,36.39 72.68,36.45 72.65,36.51 72.60,36.56 72.55,36.61 72.49,36.64 72.43,36.67 72.36,36.68 72.29,36.69 72.22,36.67 72.16,36.66 72.10,36.63 72.04,36.59 71.99,36.54 71.95,36.49 71.92,36.43 71.89,36.36 71.89,36.29 71.88,36.23 71.90,36.16 71.91,36.09 71.95,36.04 71.99,35.98 72.04,35.93 72.09,35.89 72.16,35.87 72.22,35.84 72.29,35.84 72.36,35.84 72.43,35.86 72.49,35.88 72.55,35.92 72.60,35.96 72.64,36.02 72.68,36.07 72.70,36.14 72.72,36.20 72.72,36.27 72.72,36.34 72.70,36.41 72.67,36.47 72.63,36.52 72.59,36.58 72.53,36.61 72.47,36.65 72.40,36.67 72.34,36.68 72.27,36.68 72.20,36.67 72.14,36.65 72.07,36.62 72.07,36.62 72.07,36.62 70.61,35.79 69.15,34.96 65.49,33.01 61.82,31.05 59.88,28.69 57.94,26.34 56.17,23.56 54.40,20.78 53.04,17.63 51.67,14.47 50.69,10.98 49.70,7.49 49.02,4.13 48.33,0.76 48.37,-1.97 48.41,-4.71 48.48,-6.86 48.56,-9.01 48.98,-9.51 49.40,-10.01 49.29,-10.12 49.18,-10.22 49.10,-10.35 49.02,-10.48 48.97,-10.63 48.92,-10.77 48.90,-10.92 48.89,-11.07 48.91,-11.22 48.94,-11.38 49.00,-11.52 49.06,-11.66 49.15,-11.78 49.24,-11.90 49.36,-12.00 49.47,-12.10 49.61,-12.16 49.75,-12.23 49.90,-12.26 50.05,-12.29 50.20,-12.29 50.35,-12.28 50.50,-12.24 50.64,-12.20 50.78,-12.12 50.91,-12.05 51.26,-11.92 51.61,-11.79 52.12,-11.31 52.63,-10.83 52.98,-10.01 53.33,-9.19 53.46,-7.63 53.59,-6.07 53.34,-3.67 53.09,-1.28 51.94,3.21 50.80,7.70 49.27,10.44 47.73,13.19 45.79,15.77 43.86,18.35 41.54,20.54 39.22,22.72 36.50,24.54 33.78,26.36 30.79,27.27 27.79,28.17 24.26,28.05 20.73,27.93 16.39,26.50 12.05,25.07 9.79,22.98 7.52,20.89 5.57,18.24 3.63,15.60 2.39,12.83 1.15,10.06 0.37,7.88 -0.41,5.70 -0.62,4.00 -0.83,2.30 -0.72,1.15 -0.60,0 -0.59,-0.07 -0.58,-0.14 -0.56,-0.21 -0.53,-0.28 -0.49,-0.34 -0.45,-0.40 -0.39,-0.45 -0.34,-0.49 -0.27,-0.53 -0.21,-0.56 -0.14,-0.58 -0.07,-0.60 0.00,-0.60 0.07,-0.60 0.14,-0.58 0.21,-0.56 0.27,-0.53 0.34,-0.49 0.39,-0.45 0.45,-0.40 0.49,-0.34 0.53,-0.28 0.56,-0.21 0.58,-0.14 0.59,-0.07 0.60,0.00 0.60,0.00 L 0.60,0 Z"/></g><g transform="translate(459.6000061035156 558.8000030517578) rotate(0 4 -1.1999969482421875)" stroke="none"><path fill="#000000" d="M -0.50,-0.84 Q -0.50,-0.84 0.57,-1.65 1.66,-2.46 2.78,-2.69 3.90,-2.91 5.58,-2.83 7.26,-2.74 7.33,-2.74 7.40,-2.73 7.46,-2.71 7.53,-2.68 7.58,-2.64 7.63,-2.59 7.67,-2.53 7.70,-2.48 7.72,-2.41 7.73,-2.34 7.73,-2.27 7.72,-2.21 7.69,-2.14 7.66,-2.08 7.61,-2.03 7.57,-1.98 7.51,-1.95 7.45,-1.91 7.38,-1.90 7.31,-1.89 7.24,-1.90 7.17,-1.91 7.11,-1.95 7.05,-1.98 7.01,-2.03 6.96,-2.08 6.93,-2.14 6.90,-2.20 6.89,-2.27 6.88,-2.34 6.90,-2.40 6.91,-2.47 6.95,-2.53 6.98,-2.59 7.04,-2.63 7.09,-2.68 7.15,-2.71 7.21,-2.73 7.28,-2.74 7.35,-2.74 7.42,-2.72 7.48,-2.70 7.54,-2.66 7.60,-2.63 7.64,-2.57 7.68,-2.52 7.70,-2.45 7.73,-2.39 7.73,-2.32 7.73,-2.25 7.71,-2.18 7.68,-2.12 7.64,-2.06 7.60,-2.01 7.55,-1.97 7.49,-1.93 7.42,-1.91 7.36,-1.89 7.36,-1.89 7.36,-1.89 5.92,-1.45 4.48,-1.01 3.71,-0.65 2.93,-0.29 1.72,0.27 0.50,0.84 0.39,0.89 0.29,0.94 0.17,0.96 0.05,0.98 -0.06,0.97 -0.18,0.96 -0.29,0.93 -0.40,0.89 -0.50,0.83 -0.61,0.77 -0.69,0.69 -0.77,0.60 -0.83,0.50 -0.90,0.40 -0.93,0.28 -0.97,0.17 -0.97,0.05 -0.98,-0.06 -0.96,-0.17 -0.94,-0.29 -0.89,-0.40 -0.84,-0.51 -0.76,-0.60 -0.69,-0.69 -0.60,-0.77 -0.50,-0.84 -0.50,-0.84 L -0.50,-0.84 Z"/></g><g transform="translate(489.1999816894531 547.5999908447266) rotate(0 20.399993896484375 9.199996948242188)" stroke="none"><path fill="#000000" d="M 0.59,-0.47 Q 0.59,-0.47 1.67,0.55 2.74,1.57 3.70,3.28 4.66,4.99 6.71,8.62 8.76,12.26 10.32,15.20 11.88,18.14 13.01,20.31 14.13,22.48 14.84,23.86 15.55,25.24 16.04,25.98 16.52,26.72 17.07,27.12 17.61,27.53 18.15,28.01 18.69,28.49 19.01,27.78 19.33,27.07 19.97,25.36 20.61,23.65 21.33,21.11 22.06,18.58 22.83,15.65 23.60,12.72 24.64,9.58 25.67,6.43 26.81,3.47 27.95,0.51 29.14,-1.94 30.34,-4.40 31.32,-6.15 32.30,-7.90 33.22,-9.18 34.15,-10.45 37.13,-11.01 40.11,-11.57 40.18,-11.56 40.24,-11.56 40.31,-11.53 40.37,-11.50 40.42,-11.45 40.47,-11.41 40.51,-11.35 40.54,-11.29 40.55,-11.22 40.57,-11.15 40.56,-11.09 40.55,-11.02 40.52,-10.96 40.48,-10.89 40.44,-10.85 40.39,-10.80 40.33,-10.77 40.26,-10.74 40.20,-10.73 40.13,-10.72 40.06,-10.73 39.99,-10.75 39.93,-10.78 39.87,-10.81 39.83,-10.86 39.78,-10.92 39.75,-10.98 39.73,-11.04 39.72,-11.11 39.72,-11.18 39.73,-11.25 39.75,-11.31 39.79,-11.37 39.82,-11.43 39.88,-11.47 39.93,-11.51 40.00,-11.54 40.06,-11.56 40.13,-11.56 40.20,-11.56 40.26,-11.54 40.33,-11.52 40.39,-11.48 40.44,-11.44 40.48,-11.39 40.52,-11.33 40.54,-11.27 40.56,-11.20 40.56,-11.13 40.56,-11.06 40.53,-11.00 40.51,-10.93 40.47,-10.88 40.42,-10.83 40.37,-10.79 40.31,-10.75 40.24,-10.74 40.17,-10.72 40.17,-10.72 40.17,-10.72 38.53,-9.58 36.88,-8.43 36.07,-7.34 35.26,-6.24 34.33,-4.58 33.40,-2.91 32.26,-0.59 31.12,1.73 30.01,4.61 28.90,7.50 27.90,10.54 26.89,13.58 26.11,16.55 25.32,19.51 24.56,22.18 23.79,24.85 23.07,26.74 22.36,28.62 21.48,29.88 20.60,31.13 19.33,31.37 18.06,31.61 17.31,31.26 16.56,30.90 16.06,30.43 15.56,29.96 14.73,29.21 13.91,28.45 13.33,27.56 12.76,26.66 12.07,25.27 11.38,23.89 10.28,21.71 9.19,19.54 7.70,16.58 6.20,13.63 4.31,9.89 2.41,6.16 1.67,4.59 0.93,3.02 0.16,1.74 -0.59,0.47 -0.64,0.39 -0.69,0.31 -0.71,0.23 -0.74,0.14 -0.75,0.05 -0.76,-0.03 -0.74,-0.12 -0.72,-0.21 -0.69,-0.30 -0.65,-0.38 -0.59,-0.45 -0.54,-0.53 -0.47,-0.59 -0.40,-0.64 -0.31,-0.68 -0.23,-0.72 -0.14,-0.74 -0.05,-0.75 0.03,-0.75 0.12,-0.75 0.21,-0.72 0.30,-0.69 0.38,-0.65 0.46,-0.60 0.52,-0.53 0.59,-0.47 0.59,-0.47 L 0.59,-0.47 Z"/></g><g transform="translate(260.3999938964844 778.0000152587891) rotate(0 20.4000244140625 5.999969482421875)" stroke="none"><path fill="#000000" d="M 0.62,0.20 Q 0.62,0.20 0.32,1.61 0.02,3.02 0.33,4.78 0.64,6.54 1.44,8.64 2.24,10.75 3.05,12.57 3.85,14.39 4.83,15.76 5.81,17.13 6.82,17.86 7.83,18.60 8.91,19.13 9.98,19.67 11.24,19.87 12.50,20.06 14.08,19.94 15.67,19.82 17.09,18.93 18.52,18.03 19.99,16.13 21.46,14.24 23.03,11.82 24.60,9.39 25.69,6.82 26.78,4.25 27.47,2.02 28.15,-0.19 28.42,-2.00 28.68,-3.81 28.80,-5.00 28.92,-6.19 28.49,-7.22 28.05,-8.26 28.09,-8.42 28.13,-8.58 28.20,-8.72 28.27,-8.87 28.38,-8.99 28.48,-9.11 28.61,-9.21 28.75,-9.30 28.90,-9.36 29.05,-9.42 29.21,-9.45 29.37,-9.47 29.53,-9.45 29.69,-9.43 29.84,-9.38 30.00,-9.33 30.13,-9.24 30.27,-9.15 30.38,-9.03 30.49,-8.91 30.57,-8.76 30.64,-8.62 30.69,-8.47 30.73,-8.31 30.73,-8.15 30.73,-7.98 30.01,-6.87 29.29,-5.75 29.17,-5.03 29.04,-4.31 29.18,-3.23 29.31,-2.14 30.22,-0.18 31.13,1.76 31.94,3.06 32.75,4.36 33.70,5.58 34.65,6.81 35.78,7.55 36.90,8.29 39.17,9.37 41.44,10.44 41.50,10.47 41.56,10.50 41.61,10.55 41.66,10.60 41.68,10.66 41.71,10.72 41.72,10.79 41.73,10.86 41.72,10.93 41.70,11.00 41.67,11.06 41.63,11.11 41.58,11.16 41.53,11.21 41.47,11.23 41.40,11.26 41.33,11.26 41.27,11.27 41.20,11.25 41.13,11.23 41.08,11.19 41.02,11.16 40.98,11.10 40.93,11.05 40.91,10.98 40.89,10.92 40.89,10.85 40.89,10.78 40.91,10.72 40.93,10.65 40.97,10.59 41.01,10.54 41.07,10.50 41.12,10.46 41.19,10.44 41.26,10.42 41.32,10.42 41.39,10.43 41.46,10.45 41.52,10.48 41.57,10.52 41.63,10.56 41.66,10.62 41.70,10.68 41.71,10.75 41.73,10.82 41.72,10.88 41.72,10.95 41.69,11.02 41.66,11.08 41.61,11.13 41.57,11.18 41.51,11.21 41.45,11.24 41.38,11.26 41.31,11.27 41.24,11.26 41.18,11.25 41.18,11.25 41.18,11.25 38.50,10.73 35.83,10.21 34.22,9.40 32.60,8.60 31.43,7.26 30.26,5.93 29.33,4.46 28.39,2.98 27.36,0.57 26.34,-1.83 26.24,-3.43 26.14,-5.03 26.56,-6.31 26.97,-7.59 27.51,-7.92 28.05,-8.26 28.09,-8.42 28.13,-8.58 28.20,-8.72 28.27,-8.87 28.38,-8.99 28.48,-9.11 28.61,-9.21 28.75,-9.30 28.90,-9.36 29.05,-9.42 29.21,-9.45 29.37,-9.47 29.53,-9.45 29.69,-9.43 29.84,-9.38 30.00,-9.33 30.13,-9.24 30.27,-9.15 30.38,-9.03 30.49,-8.91 30.57,-8.76 30.64,-8.62 30.69,-8.47 30.73,-8.31 30.73,-8.15 30.73,-7.98 31.11,-7.03 31.49,-6.07 31.35,-4.73 31.21,-3.40 30.86,-1.43 30.52,0.54 29.77,2.87 29.02,5.21 27.82,7.95 26.62,10.70 24.97,13.22 23.32,15.73 21.53,17.88 19.75,20.03 17.85,21.08 15.94,22.13 14.02,22.25 12.10,22.38 10.53,22.07 8.95,21.76 7.69,21.11 6.42,20.45 5.18,19.47 3.93,18.48 2.85,16.89 1.77,15.30 0.97,13.39 0.18,11.49 -0.62,9.16 -1.43,6.83 -1.65,4.66 -1.86,2.49 -1.24,1.14 -0.62,-0.20 -0.59,-0.28 -0.55,-0.35 -0.50,-0.41 -0.45,-0.47 -0.39,-0.52 -0.33,-0.57 -0.25,-0.60 -0.18,-0.63 -0.10,-0.64 -0.02,-0.65 0.05,-0.65 0.13,-0.64 0.20,-0.62 0.28,-0.59 0.35,-0.55 0.41,-0.51 0.47,-0.45 0.52,-0.39 0.56,-0.32 0.60,-0.25 0.62,-0.18 0.65,-0.10 0.65,-0.02 0.65,0.05 0.64,0.13 0.62,0.20 0.62,0.20 L 0.62,0.20 Z"/></g><g transform="translate(331.6000061035156 784.3999786376953) rotate(0 1.199981689453125 -1.5999755859375)" stroke="none"><path fill="#000000" d="M -0.62,-0.46 Q -0.62,-0.46 0.50,-1.67 1.62,-2.87 1.67,-2.92 1.72,-2.97 1.78,-3.00 1.85,-3.03 1.91,-3.03 1.98,-3.04 2.05,-3.03 2.12,-3.01 2.18,-2.98 2.23,-2.94 2.28,-2.89 2.32,-2.84 2.35,-2.77 2.38,-2.71 2.38,-2.64 2.38,-2.57 2.37,-2.51 2.35,-2.44 2.31,-2.38 2.27,-2.33 2.22,-2.28 2.16,-2.24 2.10,-2.22 2.03,-2.20 1.96,-2.20 1.90,-2.20 1.83,-2.22 1.76,-2.24 1.71,-2.28 1.65,-2.32 1.62,-2.38 1.58,-2.44 1.56,-2.50 1.54,-2.57 1.54,-2.64 1.55,-2.71 1.57,-2.77 1.60,-2.83 1.64,-2.89 1.68,-2.94 1.74,-2.97 1.80,-3.01 1.87,-3.03 1.94,-3.04 2.00,-3.03 2.07,-3.03 2.14,-3.00 2.20,-2.97 2.25,-2.92 2.30,-2.88 2.33,-2.82 2.36,-2.76 2.37,-2.69 2.39,-2.62 2.38,-2.55 2.37,-2.48 2.33,-2.42 2.30,-2.36 2.30,-2.36 2.30,-2.36 1.46,-0.94 0.62,0.46 0.55,0.53 0.49,0.60 0.41,0.65 0.33,0.70 0.24,0.73 0.15,0.76 0.06,0.77 -0.03,0.77 -0.12,0.76 -0.21,0.74 -0.30,0.71 -0.38,0.67 -0.46,0.61 -0.53,0.56 -0.59,0.49 -0.65,0.41 -0.69,0.33 -0.73,0.24 -0.75,0.15 -0.77,0.06 -0.77,-0.03 -0.76,-0.12 -0.74,-0.21 -0.71,-0.30 -0.67,-0.38 -0.62,-0.46 -0.62,-0.46 L -0.62,-0.46 Z"/></g><g transform="translate(349.1999816894531 775.5999908447266) rotate(0 11.20001220703125 8)" stroke="none"><path fill="#000000" d="M 0.58,-0.46 Q 0.58,-0.46 1.65,0.56 2.72,1.60 3.46,3.11 4.19,4.62 4.93,5.83 5.67,7.05 6.46,8.24 7.24,9.43 8.05,10.62 8.86,11.80 9.68,12.99 10.49,14.17 11.10,15.17 11.71,16.16 12.15,16.71 12.58,17.26 11.95,17.43 11.32,17.61 11.18,16.32 11.05,15.02 11.06,13.92 11.07,12.82 11.32,11.30 11.57,9.77 11.92,8.42 12.26,7.07 12.63,5.61 13.00,4.14 13.42,2.96 13.85,1.78 14.91,0.62 15.96,-0.53 18.58,-1.69 21.20,-2.86 21.26,-2.89 21.32,-2.92 21.39,-2.93 21.46,-2.94 21.52,-2.93 21.59,-2.91 21.65,-2.88 21.71,-2.85 21.76,-2.80 21.80,-2.74 21.83,-2.68 21.86,-2.62 21.86,-2.55 21.87,-2.48 21.85,-2.41 21.83,-2.35 21.80,-2.29 21.76,-2.23 21.71,-2.19 21.65,-2.15 21.59,-2.12 21.52,-2.10 21.45,-2.10 21.39,-2.09 21.32,-2.12 21.25,-2.14 21.20,-2.18 21.14,-2.22 21.10,-2.27 21.06,-2.33 21.04,-2.39 21.02,-2.46 21.03,-2.53 21.03,-2.60 21.05,-2.66 21.07,-2.73 21.12,-2.78 21.16,-2.83 21.22,-2.87 21.28,-2.91 21.34,-2.92 21.41,-2.94 21.48,-2.93 21.55,-2.93 21.61,-2.90 21.67,-2.87 21.73,-2.83 21.78,-2.78 21.81,-2.72 21.84,-2.66 21.86,-2.59 21.87,-2.53 21.86,-2.46 21.85,-2.39 21.82,-2.33 21.79,-2.27 21.74,-2.22 21.69,-2.17 21.69,-2.17 21.69,-2.17 19.99,-0.26 18.30,1.65 17.65,2.33 16.99,3.02 16.64,4.00 16.30,4.98 15.92,6.45 15.55,7.92 15.24,9.13 14.92,10.34 14.70,11.61 14.47,12.87 14.46,14.00 14.45,15.13 14.41,16.20 14.37,17.26 14.05,18.39 13.73,19.52 13.00,19.87 12.27,20.23 11.15,19.73 10.02,19.23 9.51,18.49 9.00,17.75 8.47,16.80 7.95,15.85 7.18,14.62 6.40,13.39 5.64,12.15 4.88,10.90 4.13,9.62 3.38,8.33 2.67,6.97 1.96,5.61 1.46,4.30 0.95,2.99 0.18,1.73 -0.58,0.46 -0.63,0.39 -0.67,0.31 -0.70,0.22 -0.73,0.14 -0.74,0.05 -0.74,-0.03 -0.73,-0.12 -0.71,-0.21 -0.68,-0.29 -0.64,-0.38 -0.58,-0.45 -0.53,-0.52 -0.46,-0.58 -0.39,-0.63 -0.31,-0.67 -0.22,-0.71 -0.14,-0.72 -0.05,-0.74 0.03,-0.74 0.12,-0.73 0.21,-0.71 0.30,-0.68 0.37,-0.63 0.45,-0.59 0.52,-0.53 0.58,-0.46 0.58,-0.46 L 0.58,-0.46 Z"/></g><g transform="translate(403.6000061035156 774.8000030517578) rotate(0 13.600006103515625 -1.20001220703125)" stroke="none"><path fill="#000000" d="M -0.09,-0.69 Q -0.09,-0.69 1.46,-1.22 3.03,-1.74 4.69,-1.87 6.34,-2.01 7.62,-2.29 8.89,-2.58 10.48,-2.71 12.06,-2.85 13.65,-2.90 15.24,-2.95 16.74,-3.17 18.24,-3.40 19.66,-3.46 21.08,-3.51 23.59,-3.15 26.10,-2.79 26.17,-2.78 26.23,-2.77 26.30,-2.74 26.36,-2.71 26.41,-2.66 26.45,-2.61 26.48,-2.55 26.52,-2.49 26.52,-2.42 26.53,-2.35 26.52,-2.29 26.51,-2.22 26.47,-2.16 26.44,-2.10 26.39,-2.05 26.34,-2.01 26.27,-1.98 26.21,-1.95 26.14,-1.95 26.07,-1.94 26.01,-1.96 25.94,-1.98 25.88,-2.01 25.82,-2.05 25.78,-2.10 25.74,-2.16 25.71,-2.22 25.69,-2.29 25.69,-2.36 25.69,-2.42 25.71,-2.49 25.73,-2.56 25.77,-2.61 25.81,-2.67 25.86,-2.71 25.92,-2.75 25.99,-2.77 26.05,-2.79 26.12,-2.79 26.19,-2.78 26.25,-2.76 26.32,-2.74 26.37,-2.69 26.43,-2.65 26.46,-2.59 26.50,-2.53 26.52,-2.47 26.53,-2.40 26.53,-2.33 26.52,-2.26 26.49,-2.20 26.47,-2.14 26.42,-2.09 26.37,-2.03 26.31,-2.00 26.25,-1.97 26.19,-1.95 26.12,-1.94 26.12,-1.94 26.12,-1.94 23.70,-1.45 21.28,-0.97 19.98,-0.81 18.67,-0.65 17.01,-0.37 15.34,-0.10 13.81,-0.05 12.28,-0.00 10.86,0.08 9.44,0.18 7.97,0.44 6.51,0.70 4.95,0.76 3.40,0.82 1.75,0.76 0.09,0.69 0.01,0.69 -0.07,0.70 -0.15,0.68 -0.23,0.66 -0.31,0.62 -0.38,0.58 -0.45,0.53 -0.51,0.47 -0.56,0.40 -0.61,0.34 -0.64,0.26 -0.68,0.18 -0.69,0.09 -0.70,0.01 -0.69,-0.06 -0.68,-0.15 -0.65,-0.23 -0.63,-0.31 -0.58,-0.38 -0.53,-0.45 -0.47,-0.51 -0.41,-0.57 -0.33,-0.61 -0.26,-0.65 -0.18,-0.67 -0.09,-0.69 -0.09,-0.69 L -0.09,-0.69 Z"/></g><g transform="translate(420.3999938964844 765.2000274658203) rotate(0 1.20001220703125 14.399993896484375)" stroke="none"><path fill="#000000" d="M 0.74,0.10 Q 0.74,0.10 0.71,1.74 0.68,3.38 0.69,7.45 0.69,11.51 0.88,14.13 1.08,16.74 1.38,18.50 1.68,20.26 1.99,21.69 2.31,23.12 2.76,25.39 3.20,27.67 3.22,27.74 3.23,27.80 3.23,27.87 3.22,27.94 3.19,28.00 3.16,28.06 3.11,28.11 3.07,28.16 3.01,28.20 2.94,28.23 2.88,28.24 2.81,28.25 2.74,28.24 2.67,28.23 2.61,28.20 2.55,28.16 2.50,28.11 2.46,28.06 2.43,28.00 2.40,27.94 2.39,27.87 2.39,27.80 2.40,27.73 2.41,27.67 2.45,27.61 2.49,27.55 2.54,27.51 2.59,27.46 2.65,27.44 2.72,27.41 2.79,27.41 2.86,27.40 2.92,27.42 2.99,27.44 3.05,27.48 3.10,27.52 3.14,27.57 3.19,27.63 3.21,27.69 3.23,27.76 3.23,27.83 3.23,27.89 3.21,27.96 3.18,28.02 3.14,28.08 3.10,28.13 3.04,28.17 2.99,28.21 2.92,28.23 2.85,28.25 2.79,28.24 2.72,28.24 2.65,28.21 2.59,28.19 2.54,28.14 2.49,28.10 2.45,28.04 2.41,27.98 2.41,27.98 2.41,27.98 1.11,25.86 -0.18,23.74 -0.59,22.23 -1.00,20.72 -1.32,18.83 -1.63,16.93 -1.82,14.19 -2.00,11.45 -1.80,7.25 -1.60,3.05 -1.17,1.47 -0.74,-0.10 -0.72,-0.19 -0.70,-0.28 -0.65,-0.36 -0.61,-0.44 -0.55,-0.50 -0.48,-0.57 -0.41,-0.62 -0.33,-0.67 -0.25,-0.70 -0.16,-0.73 -0.07,-0.74 0.01,-0.75 0.10,-0.74 0.19,-0.73 0.28,-0.69 0.36,-0.66 0.43,-0.60 0.51,-0.55 0.57,-0.48 0.63,-0.41 0.67,-0.33 0.71,-0.25 0.73,-0.16 0.75,-0.07 0.75,0.01 0.74,0.10 0.74,0.10 L 0.74,0.10 Z"/></g><g transform="translate(466.8000183105469 766.8000030517578) rotate(0 20 10.800018310546875)" stroke="none"><path fill="#000000" d="M 0.58,-0.13 Q 0.58,-0.13 1.11,1.92 1.63,3.97 2.53,6.41 3.43,8.85 4.73,11.22 6.03,13.59 7.51,15.97 8.99,18.36 10.30,20.02 11.61,21.68 12.62,22.83 13.63,23.98 14.26,24.36 14.89,24.74 17.24,23.74 19.60,22.73 20.98,21.09 22.36,19.45 23.40,17.22 24.45,14.99 24.88,12.74 25.32,10.49 25.52,8.61 25.71,6.73 25.80,5.24 25.88,3.76 25.92,2.68 25.95,1.60 25.75,0.82 25.55,0.04 25.28,-0.44 25.01,-0.93 24.83,-1.53 24.65,-2.13 24.31,-2.83 23.97,-3.52 23.91,-3.65 23.85,-3.78 23.82,-3.92 23.78,-4.06 23.79,-4.21 23.79,-4.35 23.83,-4.49 23.87,-4.63 23.94,-4.76 24.01,-4.88 24.11,-4.99 24.21,-5.09 24.33,-5.17 24.45,-5.25 24.58,-5.30 24.72,-5.35 24.86,-5.36 25.01,-5.37 25.15,-5.35 25.29,-5.33 25.43,-5.28 25.56,-5.22 25.68,-5.14 25.79,-5.05 25.88,-4.94 25.98,-4.83 25.90,-4.13 25.82,-3.43 25.92,-2.37 26.01,-1.31 26.23,-0.37 26.44,0.56 26.97,1.84 27.49,3.11 27.97,4.40 28.44,5.70 29.08,7.12 29.72,8.54 30.44,9.80 31.15,11.06 31.72,12.36 32.29,13.65 32.87,14.25 33.46,14.86 34.13,15.33 34.79,15.81 35.34,16.30 35.89,16.80 37.52,16.41 39.15,16.01 39.22,15.99 39.28,15.96 39.35,15.96 39.42,15.95 39.48,15.97 39.55,15.99 39.61,16.03 39.67,16.06 39.71,16.12 39.75,16.17 39.77,16.24 39.79,16.30 39.80,16.37 39.80,16.44 39.77,16.51 39.75,16.57 39.71,16.63 39.67,16.68 39.61,16.72 39.56,16.76 39.49,16.78 39.43,16.80 39.36,16.79 39.29,16.79 39.22,16.77 39.16,16.74 39.11,16.70 39.06,16.65 39.02,16.60 38.98,16.54 38.97,16.47 38.95,16.40 38.96,16.33 38.97,16.27 38.99,16.20 39.02,16.14 39.07,16.09 39.12,16.04 39.18,16.01 39.24,15.97 39.30,15.96 39.37,15.95 39.44,15.96 39.51,15.97 39.57,16.00 39.63,16.03 39.68,16.08 39.73,16.13 39.76,16.20 39.78,16.26 39.79,16.33 39.80,16.39 39.79,16.46 39.77,16.53 39.74,16.59 39.70,16.65 39.65,16.69 39.60,16.74 39.60,16.74 39.60,16.74 38.08,17.90 36.55,19.06 35.51,18.84 34.47,18.61 33.92,18.18 33.37,17.75 32.53,17.12 31.68,16.49 30.89,15.57 30.09,14.65 29.57,13.45 29.05,12.25 28.28,10.89 27.52,9.53 26.85,8.03 26.17,6.53 25.71,5.27 25.26,4.01 24.67,2.54 24.08,1.06 23.84,-0.12 23.60,-1.32 23.61,-2.24 23.62,-3.16 23.77,-3.94 23.92,-4.72 23.95,-4.12 23.97,-3.52 23.91,-3.65 23.85,-3.78 23.82,-3.92 23.78,-4.06 23.79,-4.21 23.79,-4.35 23.83,-4.49 23.87,-4.63 23.94,-4.76 24.01,-4.88 24.11,-4.99 24.20,-5.09 24.33,-5.17 24.45,-5.25 24.58,-5.30 24.72,-5.35 24.86,-5.36 25.01,-5.37 25.15,-5.35 25.29,-5.33 25.43,-5.28 25.56,-5.22 25.68,-5.14 25.79,-5.05 25.88,-4.94 25.98,-4.83 26.10,-4.41 26.23,-3.98 26.68,-3.00 27.13,-2.01 27.50,-1.26 27.87,-0.50 28.10,0.57 28.33,1.65 28.29,2.78 28.25,3.90 28.16,5.44 28.07,6.98 27.85,8.97 27.64,10.96 27.11,13.47 26.57,15.99 25.34,18.49 24.11,20.99 22.29,22.91 20.47,24.82 17.46,25.69 14.46,26.56 13.31,25.93 12.15,25.29 11.12,24.07 10.09,22.84 8.77,21.06 7.45,19.29 5.99,16.84 4.53,14.39 3.23,11.89 1.94,9.38 1.07,6.84 0.20,4.30 -0.19,2.21 -0.58,0.13 -0.59,0.05 -0.60,-0.01 -0.59,-0.08 -0.58,-0.15 -0.55,-0.22 -0.52,-0.29 -0.48,-0.35 -0.44,-0.40 -0.38,-0.45 -0.33,-0.50 -0.26,-0.53 -0.20,-0.56 -0.12,-0.58 -0.05,-0.59 0.01,-0.59 0.08,-0.59 0.15,-0.57 0.22,-0.55 0.28,-0.52 0.35,-0.48 0.40,-0.43 0.45,-0.38 0.49,-0.32 0.53,-0.26 0.56,-0.19 0.58,-0.13 0.58,-0.13 L 0.58,-0.13 Z"/></g><g transform="translate(529.1999816894531 776.3999786376953) rotate(0 -1.199981689453125 -2.399993896484375)" stroke="none"><path fill="#000000" d="M -0.57,0.43 Q -0.57,0.43 -0.60,-2.00 -0.63,-4.44 -0.59,-4.50 -0.55,-4.55 -0.50,-4.59 -0.44,-4.64 -0.38,-4.66 -0.31,-4.68 -0.24,-4.68 -0.17,-4.68 -0.11,-4.66 -0.04,-4.64 0.00,-4.59 0.06,-4.55 0.09,-4.49 0.13,-4.44 0.15,-4.37 0.17,-4.31 0.16,-4.24 0.16,-4.17 0.13,-4.10 0.11,-4.04 0.06,-3.99 0.02,-3.94 -0.03,-3.90 -0.09,-3.87 -0.16,-3.85 -0.22,-3.84 -0.29,-3.84 -0.36,-3.85 -0.42,-3.88 -0.48,-3.91 -0.53,-3.96 -0.58,-4.00 -0.62,-4.07 -0.65,-4.13 -0.66,-4.19 -0.67,-4.26 -0.66,-4.33 -0.65,-4.40 -0.61,-4.46 -0.58,-4.52 -0.53,-4.57 -0.48,-4.61 -0.42,-4.64 -0.36,-4.67 -0.29,-4.68 -0.22,-4.68 -0.15,-4.67 -0.09,-4.65 -0.03,-4.62 0.02,-4.58 0.07,-4.53 0.11,-4.48 0.14,-4.41 0.16,-4.35 0.16,-4.28 0.17,-4.21 0.15,-4.15 0.13,-4.08 0.13,-4.08 0.13,-4.08 0.35,-2.25 0.57,-0.43 0.61,-0.35 0.66,-0.28 0.68,-0.19 0.70,-0.11 0.71,-0.02 0.71,0.05 0.69,0.14 0.68,0.22 0.64,0.30 0.60,0.38 0.55,0.45 0.49,0.51 0.42,0.56 0.35,0.62 0.27,0.65 0.19,0.68 0.11,0.70 0.02,0.71 -0.05,0.71 -0.14,0.70 -0.22,0.67 -0.30,0.64 -0.38,0.60 -0.45,0.55 -0.51,0.49 -0.57,0.43 -0.57,0.43 L -0.57,0.43 Z"/></g><g transform="translate(546.8000183105469 766.8000030517578) rotate(0 12 4.399993896484375)" stroke="none"><path fill="#000000" d="M 0.49,-0.42 Q 0.49,-0.42 1.92,1.14 3.35,2.70 4.63,4.06 5.91,5.41 7.17,6.92 8.44,8.43 9.65,9.72 10.87,11.02 11.88,12.29 12.90,13.56 13.79,14.79 14.69,16.02 15.51,16.96 16.33,17.90 16.92,18.52 17.51,19.14 17.98,19.62 18.46,20.09 18.92,20.30 19.38,20.50 19.46,20.61 19.54,20.72 19.59,20.84 19.64,20.97 19.67,21.11 19.69,21.24 19.67,21.38 19.66,21.51 19.62,21.64 19.57,21.77 19.50,21.89 19.43,22.00 19.33,22.09 19.23,22.19 19.11,22.26 18.99,22.32 18.86,22.36 18.73,22.40 18.59,22.40 18.46,22.41 18.32,22.38 18.19,22.35 18.07,22.29 17.94,22.23 17.84,22.14 17.73,22.06 17.72,20.88 17.71,19.71 18.17,14.06 18.64,8.40 19.10,4.78 19.55,1.15 19.99,-1.10 20.42,-3.37 20.60,-4.73 20.78,-6.09 21.16,-7.24 21.54,-8.38 22.45,-10.21 23.36,-12.04 23.39,-12.11 23.41,-12.17 23.46,-12.22 23.51,-12.27 23.57,-12.30 23.63,-12.34 23.70,-12.35 23.76,-12.36 23.83,-12.35 23.90,-12.34 23.96,-12.31 24.02,-12.28 24.07,-12.23 24.12,-12.18 24.15,-12.12 24.18,-12.05 24.18,-11.99 24.19,-11.92 24.18,-11.85 24.17,-11.78 24.13,-11.72 24.10,-11.66 24.04,-11.62 23.99,-11.57 23.93,-11.55 23.87,-11.52 23.80,-11.52 23.73,-11.51 23.66,-11.53 23.60,-11.55 23.54,-11.58 23.48,-11.62 23.44,-11.68 23.40,-11.73 23.37,-11.80 23.35,-11.86 23.35,-11.93 23.35,-12.00 23.37,-12.06 23.39,-12.13 23.43,-12.18 23.47,-12.24 23.53,-12.28 23.59,-12.32 23.65,-12.34 23.72,-12.36 23.79,-12.35 23.85,-12.35 23.92,-12.33 23.98,-12.30 24.04,-12.26 24.09,-12.21 24.13,-12.16 24.16,-12.10 24.18,-12.03 24.19,-11.96 24.19,-11.89 24.18,-11.83 24.18,-11.83 24.18,-11.83 24.06,-9.76 23.94,-7.68 23.71,-6.71 23.47,-5.74 23.29,-4.30 23.12,-2.85 22.70,-0.67 22.28,1.50 21.82,5.08 21.36,8.66 20.37,14.58 19.38,20.50 19.46,20.61 19.54,20.72 19.59,20.84 19.64,20.97 19.67,21.11 19.69,21.24 19.67,21.38 19.66,21.51 19.62,21.64 19.57,21.77 19.50,21.89 19.43,22.00 19.33,22.09 19.23,22.19 19.11,22.26 18.99,22.32 18.86,22.36 18.73,22.40 18.59,22.40 18.46,22.41 18.32,22.38 18.19,22.35 18.07,22.29 17.94,22.23 17.84,22.14 17.73,22.06 17.33,21.83 16.92,21.61 16.44,21.07 15.96,20.54 15.38,19.86 14.81,19.19 13.96,18.17 13.11,17.15 12.26,15.94 11.41,14.72 10.47,13.48 9.53,12.24 8.32,10.88 7.11,9.52 5.91,8.02 4.71,6.52 3.43,5.12 2.16,3.73 0.83,2.07 -0.49,0.42 -0.53,0.35 -0.57,0.29 -0.60,0.21 -0.62,0.14 -0.63,0.06 -0.64,-0.01 -0.63,-0.08 -0.62,-0.16 -0.59,-0.23 -0.56,-0.30 -0.52,-0.37 -0.47,-0.43 -0.41,-0.48 -0.35,-0.53 -0.28,-0.57 -0.21,-0.60 -0.14,-0.62 -0.06,-0.64 0.01,-0.64 0.08,-0.63 0.16,-0.61 0.23,-0.59 0.30,-0.56 0.37,-0.52 0.43,-0.47 0.49,-0.41 0.49,-0.41 L 0.49,-0.42 Z"/></g><g transform="translate(389.9999694824219 750.8000030517578) rotate(0 1.600006103515625 8)" stroke="none"><path fill="#000000" d="M 0.46,-0.06 Q 0.46,-0.06 0.86,1.51 1.25,3.10 1.57,4.19 1.89,5.28 2.27,6.94 2.64,8.60 3.01,11.61 3.37,14.61 3.37,14.68 3.37,14.75 3.35,14.82 3.33,14.88 3.29,14.94 3.25,14.99 3.19,15.03 3.14,15.07 3.07,15.09 3.01,15.11 2.94,15.11 2.87,15.11 2.81,15.08 2.74,15.06 2.69,15.02 2.63,14.97 2.60,14.92 2.56,14.86 2.54,14.79 2.53,14.72 2.53,14.65 2.54,14.59 2.57,14.52 2.60,14.46 2.64,14.41 2.69,14.36 2.75,14.32 2.81,14.29 2.88,14.28 2.94,14.27 3.01,14.28 3.08,14.29 3.14,14.32 3.20,14.35 3.25,14.40 3.30,14.45 3.33,14.51 3.36,14.57 3.37,14.64 3.38,14.70 3.36,14.77 3.35,14.84 3.32,14.90 3.28,14.96 3.23,15.00 3.18,15.05 3.12,15.08 3.05,15.10 2.98,15.11 2.92,15.11 2.85,15.10 2.78,15.08 2.72,15.04 2.67,15.01 2.62,14.95 2.58,14.90 2.56,14.83 2.53,14.77 2.53,14.77 2.53,14.77 1.79,11.86 1.06,8.96 0.69,7.34 0.33,5.73 -0.00,4.53 -0.33,3.33 -0.40,1.70 -0.46,0.06 -0.46,0.00 -0.46,-0.04 -0.45,-0.10 -0.44,-0.15 -0.41,-0.20 -0.39,-0.25 -0.35,-0.30 -0.31,-0.34 -0.27,-0.37 -0.22,-0.41 -0.17,-0.43 -0.12,-0.45 -0.06,-0.46 -0.00,-0.46 0.04,-0.46 0.10,-0.45 0.15,-0.43 0.20,-0.42 0.25,-0.38 0.30,-0.35 0.34,-0.31 0.38,-0.27 0.40,-0.22 0.43,-0.17 0.45,-0.12 0.46,-0.06 0.46,-0.06 L 0.46,-0.06 Z"/></g><g transform="translate(511.6000061035156 742.0000152587891) rotate(0 1.199981689453125 13.199981689453125)" stroke="none"><path fill="#000000" d="M 0.68,-0.11 Q 0.68,-0.11 0.96,1.25 1.25,2.62 1.59,4.59 1.93,6.55 2.31,8.77 2.69,10.98 2.85,13.58 3.01,16.17 2.90,20.36 2.78,24.55 2.77,24.62 2.76,24.68 2.73,24.75 2.70,24.81 2.65,24.86 2.60,24.90 2.54,24.93 2.48,24.96 2.41,24.97 2.34,24.98 2.27,24.97 2.20,24.96 2.15,24.92 2.09,24.89 2.04,24.84 1.99,24.78 1.97,24.72 1.94,24.66 1.93,24.59 1.93,24.52 1.95,24.45 1.96,24.39 2.00,24.33 2.04,24.27 2.09,24.23 2.15,24.19 2.21,24.16 2.27,24.14 2.34,24.14 2.41,24.14 2.48,24.16 2.54,24.18 2.60,24.22 2.65,24.26 2.69,24.31 2.73,24.37 2.75,24.44 2.77,24.50 2.77,24.57 2.77,24.64 2.75,24.70 2.72,24.77 2.68,24.82 2.64,24.88 2.58,24.91 2.52,24.95 2.45,24.97 2.39,24.98 2.32,24.98 2.25,24.97 2.19,24.94 2.12,24.91 2.07,24.87 2.02,24.82 1.99,24.76 1.95,24.70 1.94,24.63 1.93,24.57 1.93,24.57 1.93,24.57 1.62,20.42 1.31,16.28 1.16,13.77 1.01,11.26 0.65,9.04 0.29,6.83 -0.01,4.86 -0.33,2.89 -0.50,1.50 -0.68,0.11 -0.68,0.03 -0.69,-0.05 -0.67,-0.13 -0.65,-0.21 -0.62,-0.29 -0.58,-0.36 -0.53,-0.43 -0.48,-0.49 -0.41,-0.54 -0.34,-0.59 -0.27,-0.63 -0.19,-0.66 -0.11,-0.67 -0.03,-0.69 0.05,-0.68 0.13,-0.68 0.21,-0.65 0.29,-0.62 0.36,-0.58 0.43,-0.53 0.49,-0.47 0.55,-0.41 0.59,-0.34 0.63,-0.27 0.66,-0.19 0.68,-0.11 0.68,-0.11 L 0.68,-0.11 Z"/></g><g transform="translate(155.5999755859375 535.5999908447266) rotate(0 -19.199996948242188 31.600006103515625)" stroke="none"><path fill="#000000" d="M 0,0.57 Q 0,0.57 -1.15,0.61 -2.3,0.64 -3.24,0.66 -4.19,0.68 -5.06,0.69 -5.92,0.70 -6.75,0.71 -7.57,0.72 -8.38,0.73 -9.20,0.75 -10.00,0.76 -10.81,0.77 -11.83,0.78 -12.86,0.79 -14.33,1.27 -15.81,1.74 -16.91,2.17 -18.01,2.59 -18.91,3.00 -19.82,3.40 -20.32,3.95 -20.82,4.50 -21.54,5.23 -22.27,5.96 -22.75,6.67 -23.23,7.39 -23.62,8.53 -24.02,9.68 -24.42,11.32 -24.82,12.95 -25.21,15.02 -25.61,17.09 -25.76,19.53 -25.92,21.97 -25.98,24.62 -26.04,27.27 -26.06,29.78 -26.08,32.29 -26.09,34.51 -26.09,36.72 -26.09,38.81 -26.09,40.90 -26.09,42.71 -26.09,44.52 -26.33,46.29 -26.56,48.05 -26.65,49.20 -26.75,50.35 -27.04,51.41 -27.33,52.47 -27.43,53.27 -27.53,54.06 -27.83,54.99 -28.13,55.92 -28.22,56.85 -28.32,57.78 -28.62,58.79 -28.92,59.80 -29.32,60.52 -29.72,61.24 -30.41,62.03 -31.10,62.82 -31.74,63.19 -32.38,63.57 -33.23,63.71 -34.08,63.85 -35.00,63.60 -35.92,63.35 -37.06,62.06 -38.21,60.78 -38.25,60.72 -38.29,60.67 -38.31,60.60 -38.33,60.54 -38.33,60.47 -38.33,60.40 -38.30,60.33 -38.28,60.27 -38.24,60.21 -38.19,60.16 -38.14,60.12 -38.08,60.09 -38.01,60.07 -37.95,60.05 -37.88,60.06 -37.81,60.06 -37.74,60.09 -37.68,60.12 -37.63,60.16 -37.58,60.21 -37.54,60.27 -37.51,60.33 -37.50,60.39 -37.48,60.46 -37.49,60.53 -37.50,60.60 -37.53,60.66 -37.56,60.72 -37.61,60.77 -37.66,60.82 -37.72,60.85 -37.78,60.88 -37.85,60.89 -37.92,60.90 -37.98,60.89 -38.05,60.88 -38.11,60.84 -38.17,60.81 -38.22,60.76 -38.26,60.71 -38.29,60.64 -38.32,60.58 -38.33,60.51 -38.33,60.44 -38.32,60.38 -38.30,60.31 -38.26,60.25 -38.23,60.19 -38.17,60.15 -38.12,60.11 -38.05,60.08 -37.99,60.06 -37.92,60.06 -37.85,60.05 -37.79,60.07 -37.72,60.09 -37.67,60.13 -37.61,60.17 -37.61,60.17 -37.61,60.17 -36.54,61.07 -35.47,61.96 -34.91,62.06 -34.34,62.16 -33.51,61.80 -32.69,61.44 -32.16,60.79 -31.64,60.14 -31.34,59.63 -31.04,59.13 -30.78,58.32 -30.52,57.52 -30.38,56.37 -30.24,55.22 -29.98,54.49 -29.72,53.76 -29.59,52.82 -29.46,51.88 -29.21,51.02 -28.95,50.16 -28.85,48.95 -28.75,47.75 -28.52,46.13 -28.29,44.52 -28.29,42.71 -28.28,40.90 -28.27,38.80 -28.26,36.71 -28.24,34.49 -28.21,32.26 -28.17,29.74 -28.13,27.22 -28.04,24.52 -27.96,21.83 -27.76,19.27 -27.57,16.71 -27.14,14.59 -26.71,12.47 -26.26,10.75 -25.81,9.02 -25.29,7.67 -24.77,6.33 -24.17,5.50 -23.57,4.67 -22.84,3.94 -22.11,3.22 -21.34,2.50 -20.58,1.78 -19.60,1.36 -18.63,0.94 -17.46,0.51 -16.29,0.09 -14.58,-0.35 -12.88,-0.79 -11.84,-0.78 -10.81,-0.77 -10.00,-0.76 -9.20,-0.75 -8.38,-0.73 -7.57,-0.72 -6.75,-0.71 -5.92,-0.70 -5.06,-0.69 -4.19,-0.68 -3.24,-0.66 -2.3,-0.64 -1.15,-0.61 0,-0.57 0.06,-0.56 0.13,-0.55 0.20,-0.53 0.26,-0.50 0.32,-0.47 0.38,-0.43 0.42,-0.37 0.47,-0.32 0.50,-0.26 0.53,-0.20 0.55,-0.13 0.57,-0.06 0.57,0.00 0.57,0.06 0.55,0.13 0.53,0.20 0.50,0.26 0.47,0.32 0.42,0.37 0.38,0.43 0.32,0.47 0.26,0.50 0.20,0.53 0.13,0.55 0.06,0.56 -0.00,0.57 -0.00,0.57 L 0,0.57 Z"/></g><g transform="translate(112.39999389648438 566.8000030517578) rotate(0 13.199996948242188 -3.1999969482421875)" stroke="none"><path fill="#000000" d="M -0.45,-0.45 Q -0.45,-0.45 0.39,-1.44 1.24,-2.43 2.13,-3.10 3.03,-3.77 3.88,-4.30 4.73,-4.82 6.08,-5.30 7.43,-5.78 8.98,-5.99 10.53,-6.20 13.23,-6.47 15.93,-6.75 20.21,-6.74 24.50,-6.74 24.57,-6.73 24.64,-6.72 24.70,-6.69 24.76,-6.66 24.81,-6.61 24.86,-6.57 24.89,-6.51 24.92,-6.44 24.94,-6.38 24.95,-6.31 24.93,-6.24 24.92,-6.17 24.89,-6.11 24.86,-6.05 24.81,-6.00 24.76,-5.96 24.69,-5.93 24.63,-5.90 24.56,-5.89 24.49,-5.89 24.43,-5.90 24.36,-5.92 24.30,-5.96 24.24,-5.99 24.20,-6.04 24.15,-6.10 24.13,-6.16 24.10,-6.23 24.10,-6.29 24.10,-6.36 24.12,-6.43 24.14,-6.49 24.18,-6.55 24.22,-6.61 24.27,-6.65 24.33,-6.69 24.39,-6.71 24.46,-6.73 24.52,-6.73 24.59,-6.73 24.66,-6.71 24.72,-6.69 24.78,-6.64 24.83,-6.60 24.87,-6.54 24.91,-6.49 24.93,-6.42 24.94,-6.35 24.94,-6.29 24.93,-6.22 24.91,-6.15 24.88,-6.09 24.84,-6.04 24.79,-5.99 24.73,-5.95 24.67,-5.92 24.61,-5.90 24.54,-5.89 24.54,-5.89 24.54,-5.89 20.33,-5.51 16.11,-5.13 13.43,-4.78 10.75,-4.44 9.38,-4.27 8.01,-4.11 6.82,-3.71 5.63,-3.31 4.84,-2.84 4.05,-2.38 3.24,-1.81 2.43,-1.24 1.44,-0.39 0.45,0.45 0.39,0.49 0.33,0.54 0.26,0.57 0.19,0.61 0.11,0.62 0.03,0.63 -0.03,0.63 -0.11,0.62 -0.18,0.60 -0.26,0.58 -0.32,0.54 -0.39,0.50 -0.44,0.44 -0.50,0.39 -0.54,0.32 -0.58,0.26 -0.60,0.18 -0.62,0.11 -0.63,0.03 -0.63,-0.03 -0.62,-0.11 -0.61,-0.19 -0.57,-0.26 -0.54,-0.33 -0.49,-0.39 -0.45,-0.45 -0.45,-0.45 L -0.45,-0.45 Z"/></g><g transform="translate(158.79998779296875 548.4000091552734) rotate(0 -2.8000030517578125 14)" stroke="none"><path fill="#000000" d="M 0,0.56 Q 0,0.56 -1.37,0.62 -2.75,0.68 -3.80,0.69 -4.84,0.71 -5.66,0.94 -6.47,1.17 -7.26,1.49 -8.05,1.81 -8.50,2.33 -8.96,2.85 -9.37,3.70 -9.77,4.56 -10.19,5.62 -10.60,6.67 -10.76,7.75 -10.93,8.82 -11.00,10.18 -11.07,11.55 -10.88,13.00 -10.68,14.44 -10.38,15.74 -10.07,17.03 -9.50,18.46 -8.92,19.89 -8.03,21.13 -7.13,22.37 -6.29,23.37 -5.45,24.36 -4.68,24.97 -3.91,25.58 -2.99,26.05 -2.07,26.51 -0.68,26.28 0.71,26.04 2.93,24.76 5.16,23.48 5.23,23.45 5.29,23.43 5.36,23.42 5.43,23.41 5.49,23.43 5.56,23.45 5.62,23.48 5.68,23.52 5.72,23.57 5.76,23.63 5.79,23.69 5.81,23.76 5.81,23.83 5.81,23.89 5.79,23.96 5.77,24.03 5.73,24.08 5.69,24.14 5.64,24.18 5.58,24.22 5.52,24.24 5.45,24.26 5.38,24.26 5.31,24.26 5.25,24.23 5.18,24.21 5.13,24.16 5.08,24.12 5.04,24.06 5.00,24.01 4.98,23.94 4.97,23.87 4.97,23.80 4.98,23.74 5.01,23.67 5.03,23.61 5.08,23.56 5.13,23.51 5.19,23.47 5.24,23.44 5.31,23.43 5.38,23.41 5.45,23.42 5.52,23.43 5.58,23.46 5.64,23.49 5.69,23.54 5.74,23.59 5.77,23.65 5.80,23.71 5.81,23.78 5.82,23.85 5.80,23.92 5.79,23.98 5.76,24.04 5.72,24.10 5.67,24.15 5.62,24.20 5.62,24.20 5.62,24.20 3.30,25.83 0.97,27.46 -0.81,27.71 -2.60,27.96 -3.76,27.40 -4.92,26.84 -5.80,26.13 -6.68,25.41 -7.56,24.36 -8.45,23.31 -9.43,21.90 -10.42,20.50 -11.03,18.95 -11.65,17.41 -11.97,16.03 -12.29,14.65 -12.49,13.06 -12.69,11.47 -12.60,10.01 -12.52,8.56 -12.31,7.33 -12.10,6.09 -11.65,4.96 -11.20,3.84 -10.64,2.80 -10.09,1.77 -9.37,1.09 -8.65,0.41 -7.74,0.07 -6.84,-0.25 -5.85,-0.48 -4.85,-0.71 -3.80,-0.69 -2.75,-0.68 -1.37,-0.62 0,-0.56 0.06,-0.55 0.13,-0.54 0.19,-0.52 0.26,-0.50 0.31,-0.46 0.37,-0.42 0.42,-0.37 0.46,-0.32 0.49,-0.26 0.52,-0.20 0.54,-0.13 0.56,-0.06 0.56,0.00 0.56,0.06 0.54,0.13 0.52,0.20 0.49,0.26 0.46,0.32 0.42,0.37 0.37,0.42 0.31,0.46 0.26,0.50 0.19,0.52 0.13,0.54 0.06,0.55 -0.00,0.56 -0.00,0.56 L 0,0.56 Z"/></g><g transform="translate(169.19998168945312 551.5999908447266) rotate(0 12 6.8000030517578125)" stroke="none"><path fill="#000000" d="M 0.34,-0.51 Q 0.34,-0.51 1.75,0.35 3.16,1.23 4.24,2.09 5.32,2.96 6.44,3.76 7.57,4.56 8.54,5.39 9.51,6.21 10.58,6.99 11.65,7.77 12.55,8.33 13.45,8.88 14.34,9.61 15.24,10.35 16.02,10.85 16.80,11.35 17.51,11.53 18.21,11.71 18.87,12.07 19.53,12.43 21.42,12.78 23.31,13.13 23.38,13.15 23.45,13.16 23.51,13.20 23.57,13.23 23.61,13.29 23.65,13.34 23.68,13.40 23.71,13.47 23.71,13.53 23.71,13.60 23.69,13.67 23.68,13.74 23.64,13.79 23.60,13.85 23.54,13.89 23.49,13.93 23.43,13.96 23.36,13.98 23.29,13.98 23.22,13.98 23.16,13.96 23.09,13.93 23.04,13.89 22.98,13.85 22.94,13.79 22.91,13.74 22.89,13.67 22.87,13.60 22.87,13.54 22.88,13.47 22.90,13.40 22.93,13.34 22.97,13.29 23.01,13.23 23.07,13.20 23.13,13.16 23.20,13.15 23.27,13.13 23.34,13.14 23.40,13.15 23.47,13.18 23.53,13.21 23.58,13.25 23.63,13.30 23.66,13.36 23.69,13.42 23.70,13.49 23.72,13.56 23.70,13.63 23.69,13.69 23.66,13.75 23.63,13.81 23.58,13.86 23.53,13.91 23.47,13.94 23.40,13.97 23.34,13.97 23.27,13.98 23.27,13.98 23.27,13.98 21.58,14.04 19.89,14.11 19.33,13.95 18.77,13.79 18.27,13.51 17.78,13.22 16.87,12.95 15.96,12.68 15.10,12.12 14.23,11.56 13.42,10.89 12.61,10.22 11.67,9.63 10.72,9.04 9.61,8.21 8.50,7.39 7.58,6.59 6.67,5.80 5.52,4.96 4.38,4.12 3.36,3.28 2.35,2.44 1.00,1.48 -0.34,0.51 -0.40,0.46 -0.45,0.41 -0.50,0.35 -0.54,0.29 -0.57,0.22 -0.60,0.15 -0.61,0.08 -0.62,0.01 -0.61,-0.06 -0.60,-0.13 -0.58,-0.20 -0.55,-0.28 -0.51,-0.34 -0.47,-0.40 -0.41,-0.45 -0.36,-0.50 -0.29,-0.54 -0.22,-0.57 -0.15,-0.59 -0.08,-0.61 -0.00,-0.61 0.06,-0.61 0.13,-0.60 0.21,-0.58 0.27,-0.55 0.34,-0.51 0.34,-0.51 L 0.34,-0.51 Z"/></g><g transform="translate(188.39999389648438 545.9999847412109) rotate(0 -9.199996948242188 14.400009155273438)" stroke="none"><path fill="#000000" d="M 0.45,0.45 Q 0.45,0.45 -0.62,1.67 -1.69,2.90 -2.36,3.81 -3.03,4.72 -3.81,5.62 -4.59,6.52 -5.34,7.55 -6.09,8.58 -7.07,10.37 -8.04,12.16 -8.93,13.85 -9.81,15.54 -10.66,16.97 -11.51,18.41 -13.27,21.09 -15.02,23.77 -15.76,25.09 -16.49,26.42 -16.17,26.99 -15.84,27.56 -15.87,27.61 -15.90,27.65 -15.94,27.68 -15.97,27.71 -16.02,27.74 -16.07,27.76 -16.12,27.77 -16.17,27.78 -16.22,27.78 -16.27,27.78 -16.32,27.77 -16.37,27.76 -16.41,27.73 -16.46,27.71 -16.50,27.67 -16.53,27.64 -16.56,27.60 -16.59,27.55 -16.61,27.51 -16.63,27.46 -16.63,27.41 -16.64,27.36 -16.63,27.31 -16.62,27.25 -16.60,27.21 -16.59,27.16 -16.47,27.06 -16.35,26.96 -16.28,26.95 -16.21,26.94 -16.15,26.95 -16.08,26.96 -16.02,26.99 -15.96,27.02 -15.91,27.07 -15.86,27.12 -15.83,27.18 -15.80,27.25 -15.80,27.31 -15.79,27.38 -15.80,27.45 -15.82,27.52 -15.85,27.58 -15.89,27.64 -15.94,27.68 -15.99,27.72 -16.05,27.75 -16.12,27.78 -16.19,27.78 -16.26,27.78 -16.32,27.77 -16.39,27.75 -16.45,27.71 -16.50,27.67 -16.54,27.62 -16.59,27.56 -16.61,27.50 -16.63,27.43 -16.63,27.36 -16.63,27.30 -16.61,27.23 -16.59,27.16 -16.55,27.11 -16.51,27.05 -16.45,27.02 -16.39,26.98 -16.33,26.96 -16.26,26.94 -16.19,26.94 -16.12,26.95 -16.06,26.97 -15.99,27.00 -15.94,27.04 -15.89,27.08 -15.85,27.14 -15.82,27.20 -15.80,27.27 -15.79,27.34 -15.79,27.40 -15.80,27.47 -15.83,27.54 -15.86,27.60 -15.91,27.65 -15.95,27.70 -15.90,27.63 -15.84,27.56 -15.87,27.61 -15.90,27.65 -15.94,27.68 -15.97,27.71 -16.02,27.74 -16.07,27.76 -16.12,27.77 -16.17,27.78 -16.22,27.78 -16.27,27.78 -16.32,27.77 -16.37,27.76 -16.41,27.73 -16.46,27.71 -16.50,27.67 -16.53,27.64 -16.56,27.60 -16.59,27.55 -16.61,27.51 -16.63,27.46 -16.63,27.41 -16.64,27.36 -16.63,27.31 -16.62,27.25 -16.60,27.21 -16.59,27.16 -17.35,26.35 -18.11,25.54 -17.37,24.13 -16.63,22.72 -14.91,20.07 -13.19,17.41 -12.36,16.02 -11.53,14.63 -10.63,12.93 -9.72,11.22 -8.65,9.35 -7.58,7.48 -6.76,6.40 -5.94,5.32 -5.19,4.49 -4.43,3.66 -3.67,2.68 -2.90,1.69 -1.67,0.62 -0.45,-0.45 -0.39,-0.50 -0.33,-0.54 -0.26,-0.58 -0.19,-0.61 -0.11,-0.62 -0.03,-0.64 0.03,-0.63 0.11,-0.63 0.18,-0.60 0.26,-0.58 0.32,-0.54 0.39,-0.50 0.45,-0.45 0.50,-0.39 0.54,-0.32 0.58,-0.26 0.60,-0.18 0.63,-0.11 0.63,-0.03 0.64,0.03 0.62,0.11 0.61,0.19 0.58,0.26 0.54,0.33 0.50,0.39 0.45,0.45 0.45,0.45 L 0.45,0.45 Z"/></g><g transform="translate(188.39999389648438 542.8000030517578) rotate(0 6.399993896484375 18)" stroke="none"><path fill="#000000" d="M 0.17,-0.52 Q 0.17,-0.52 1.58,-0.14 2.98,0.23 4.06,0.64 5.14,1.06 6.13,1.72 7.13,2.39 8.54,3.83 9.94,5.27 10.78,6.36 11.61,7.45 12.23,8.66 12.86,9.88 13.15,11.16 13.44,12.45 13.57,13.70 13.69,14.95 13.51,16.49 13.33,18.03 13.01,19.38 12.69,20.73 12.08,22.28 11.46,23.83 10.46,25.25 9.46,26.67 8.85,27.84 8.24,29.01 7.45,30.23 6.66,31.46 5.01,33.40 3.37,35.33 3.32,35.38 3.28,35.43 3.22,35.46 3.15,35.50 3.09,35.51 3.02,35.52 2.95,35.50 2.88,35.49 2.82,35.46 2.76,35.43 2.72,35.38 2.67,35.33 2.64,35.26 2.61,35.20 2.61,35.13 2.60,35.06 2.61,35.00 2.63,34.93 2.67,34.87 2.70,34.81 2.75,34.77 2.81,34.72 2.87,34.70 2.94,34.67 3.00,34.67 3.07,34.67 3.14,34.69 3.21,34.71 3.26,34.75 3.32,34.79 3.36,34.84 3.40,34.90 3.42,34.96 3.44,35.03 3.44,35.10 3.44,35.16 3.42,35.23 3.40,35.29 3.35,35.35 3.31,35.40 3.25,35.44 3.20,35.48 3.13,35.50 3.06,35.51 3.00,35.51 2.93,35.51 2.86,35.48 2.80,35.45 2.75,35.41 2.70,35.36 2.66,35.30 2.63,35.24 2.61,35.18 2.60,35.11 2.61,35.04 2.61,34.97 2.64,34.91 2.67,34.85 2.67,34.85 2.67,34.85 3.88,32.68 5.08,30.52 5.75,29.31 6.42,28.09 7.07,26.76 7.72,25.43 8.60,24.22 9.48,23.01 10.04,21.62 10.61,20.23 10.91,18.99 11.21,17.75 11.40,16.43 11.60,15.12 11.52,13.99 11.44,12.86 11.25,11.80 11.07,10.74 10.56,9.66 10.06,8.59 9.33,7.55 8.59,6.51 7.39,5.11 6.19,3.71 5.37,3.09 4.56,2.47 3.54,2.04 2.53,1.60 1.17,1.06 -0.17,0.52 -0.23,0.50 -0.29,0.47 -0.35,0.42 -0.40,0.38 -0.44,0.33 -0.48,0.27 -0.50,0.21 -0.53,0.15 -0.54,0.08 -0.55,0.02 -0.55,-0.04 -0.54,-0.11 -0.52,-0.17 -0.50,-0.23 -0.46,-0.29 -0.43,-0.35 -0.38,-0.39 -0.33,-0.44 -0.27,-0.47 -0.21,-0.51 -0.15,-0.53 -0.08,-0.55 -0.02,-0.55 0.04,-0.55 0.11,-0.54 0.17,-0.52 0.17,-0.52 L 0.17,-0.52 Z"/></g><g transform="translate(49.199981689453125 746.8000030517578) rotate(0 -19.599990844726562 34.4000244140625)" stroke="none"><path fill="#000000" d="M -0.37,0.45 Q -0.37,0.45 -1.80,-0.64 -3.22,-1.74 -4.52,-2.91 -5.83,-4.09 -7.05,-5.01 -8.27,-5.93 -9.64,-6.50 -11.01,-7.07 -12.50,-7.54 -14.00,-8.00 -15.50,-8.18 -16.99,-8.35 -18.44,-8.20 -19.89,-8.06 -22.13,-6.28 -24.37,-4.50 -26.19,3.20 -28.02,10.92 -28.62,17.21 -29.22,23.49 -29.01,28.65 -28.81,33.82 -28.27,38.53 -27.73,43.24 -27.04,47.54 -26.36,51.84 -25.83,55.29 -25.31,58.74 -24.86,61.58 -24.40,64.42 -24.00,66.53 -23.59,68.64 -23.21,69.97 -22.83,71.29 -22.67,72.39 -22.50,73.50 -22.48,74.69 -22.45,75.88 -22.70,76.75 -22.96,77.61 -23.56,78.11 -24.16,78.60 -24.72,78.52 -25.28,78.45 -26.01,77.87 -26.75,77.30 -27.52,76.34 -28.29,75.38 -29.29,74.07 -30.30,72.76 -31.43,70.79 -32.57,68.81 -34.43,65.46 -36.29,62.10 -37.33,59.49 -38.38,56.87 -38.83,55.04 -39.28,53.21 -39.48,51.96 -39.67,50.71 -39.76,49.70 -39.84,48.70 -39.65,46.60 -39.45,44.51 -38.88,43.07 -38.31,41.64 -37.55,40.75 -36.80,39.85 -35.99,39.23 -35.17,38.61 -34.09,38.10 -33.00,37.58 -30.37,37.36 -27.74,37.14 -24.20,37.84 -20.66,38.54 -20.60,38.56 -20.53,38.58 -20.48,38.62 -20.42,38.66 -20.38,38.72 -20.35,38.78 -20.33,38.84 -20.31,38.91 -20.31,38.98 -20.31,39.05 -20.34,39.11 -20.36,39.17 -20.41,39.23 -20.45,39.28 -20.51,39.32 -20.57,39.35 -20.64,39.37 -20.70,39.38 -20.77,39.38 -20.84,39.37 -20.90,39.34 -20.96,39.31 -21.01,39.27 -21.07,39.22 -21.10,39.16 -21.13,39.10 -21.14,39.03 -21.15,38.96 -21.14,38.90 -21.13,38.83 -21.10,38.77 -21.07,38.71 -21.02,38.66 -20.97,38.61 -20.91,38.58 -20.85,38.55 -20.78,38.54 -20.71,38.53 -20.64,38.55 -20.58,38.56 -20.52,38.60 -20.46,38.63 -20.41,38.68 -20.37,38.74 -20.34,38.80 -20.32,38.86 -20.31,38.93 -20.31,39.00 -20.32,39.07 -20.34,39.13 -20.38,39.19 -20.42,39.25 -20.47,39.29 -20.53,39.33 -20.59,39.36 -20.66,39.38 -20.73,39.38 -20.79,39.38 -20.79,39.38 -20.79,39.38 -24.21,39.01 -27.63,38.64 -30.01,38.82 -32.38,39.00 -33.31,39.43 -34.25,39.86 -34.94,40.37 -35.64,40.88 -36.26,41.56 -36.89,42.25 -37.41,43.46 -37.92,44.67 -38.12,46.63 -38.32,48.58 -38.25,49.53 -38.18,50.48 -38.00,51.67 -37.83,52.86 -37.42,54.59 -37.00,56.33 -36.01,58.86 -35.02,61.40 -33.17,64.75 -31.32,68.09 -30.24,69.99 -29.15,71.89 -28.16,73.18 -27.17,74.48 -26.49,75.33 -25.82,76.18 -25.14,76.63 -24.45,77.08 -24.30,76.52 -24.16,75.96 -24.28,74.89 -24.40,73.82 -24.58,72.84 -24.77,71.87 -25.21,70.46 -25.65,69.05 -26.09,66.91 -26.52,64.76 -26.98,61.91 -27.43,59.06 -27.95,55.62 -28.48,52.18 -29.17,47.83 -29.87,43.49 -30.42,38.69 -30.96,33.90 -31.16,28.59 -31.36,23.29 -30.72,16.84 -30.09,10.40 -27.94,2.25 -25.79,-5.90 -23.00,-7.92 -20.21,-9.94 -18.48,-10.08 -16.75,-10.21 -15.10,-9.96 -13.45,-9.70 -11.88,-9.17 -10.31,-8.63 -8.80,-7.92 -7.28,-7.22 -6.04,-6.21 -4.79,-5.21 -3.54,-4.03 -2.29,-2.85 -0.95,-1.65 0.37,-0.45 0.42,-0.40 0.47,-0.35 0.51,-0.28 0.54,-0.22 0.56,-0.15 0.58,-0.08 0.58,-0.01 0.58,0.05 0.57,0.12 0.55,0.19 0.52,0.25 0.49,0.32 0.45,0.37 0.40,0.43 0.34,0.47 0.29,0.51 0.22,0.54 0.15,0.56 0.08,0.57 0.01,0.59 -0.05,0.58 -0.12,0.57 -0.19,0.55 -0.25,0.53 -0.31,0.49 -0.37,0.45 -0.37,0.45 L -0.37,0.45 Z"/></g><g transform="translate(51.5999755859375 742.8000030517578) rotate(0 2.8000030517578125 16.79998779296875)" stroke="none"><path fill="#000000" d="M 0.63,0 Q 0.63,0 0.69,1.83 0.74,3.67 0.98,5.80 1.22,7.92 1.55,10.44 1.88,12.96 2.25,15.64 2.62,18.32 3.00,20.60 3.39,22.88 3.77,24.76 4.15,26.64 4.88,29.44 5.61,32.24 5.62,32.30 5.63,32.37 5.61,32.44 5.60,32.51 5.57,32.57 5.54,32.63 5.48,32.68 5.43,32.72 5.37,32.75 5.31,32.78 5.24,32.78 5.17,32.79 5.10,32.78 5.04,32.76 4.98,32.72 4.92,32.69 4.88,32.63 4.83,32.58 4.81,32.52 4.78,32.45 4.78,32.38 4.78,32.31 4.80,32.25 4.82,32.18 4.86,32.13 4.90,32.07 4.95,32.03 5.01,31.99 5.07,31.97 5.14,31.95 5.21,31.95 5.28,31.95 5.34,31.97 5.41,31.99 5.46,32.04 5.51,32.08 5.55,32.14 5.59,32.19 5.61,32.26 5.62,32.33 5.62,32.40 5.61,32.46 5.59,32.53 5.56,32.59 5.52,32.64 5.47,32.69 5.41,32.73 5.35,32.76 5.28,32.78 5.22,32.79 5.15,32.78 5.08,32.77 5.02,32.74 4.96,32.72 4.91,32.67 4.86,32.62 4.83,32.56 4.80,32.50 4.80,32.50 4.80,32.50 3.73,29.72 2.67,26.95 2.26,25.04 1.86,23.14 1.47,20.83 1.08,18.53 0.71,15.84 0.34,13.16 0.02,10.62 -0.30,8.08 -0.52,5.88 -0.74,3.68 -0.69,1.84 -0.63,0 -0.62,-0.07 -0.61,-0.15 -0.58,-0.22 -0.55,-0.29 -0.51,-0.35 -0.47,-0.41 -0.41,-0.46 -0.35,-0.51 -0.29,-0.55 -0.22,-0.58 -0.14,-0.60 -0.07,-0.62 0.00,-0.62 0.07,-0.62 0.14,-0.60 0.22,-0.58 0.29,-0.55 0.35,-0.51 0.41,-0.46 0.47,-0.41 0.51,-0.35 0.55,-0.29 0.58,-0.22 0.61,-0.15 0.62,-0.07 0.63,0.00 0.63,0.00 L 0.63,0 Z"/></g><g transform="translate(72.39999389648438 764.3999786376953) rotate(0 3.600006103515625 17.600006103515625)" stroke="none"><path fill="#000000" d="M 0,0.63 Q 0,0.63 -1.11,0.71 -2.23,0.78 -2.75,1.20 -3.27,1.62 -3.69,2.19 -4.12,2.76 -4.50,4.05 -4.88,5.35 -5.05,7.24 -5.22,9.14 -4.83,11.48 -4.45,13.83 -3.83,16.20 -3.22,18.58 -2.29,20.69 -1.35,22.80 -0.50,24.38 0.34,25.96 1.13,27.06 1.93,28.15 2.71,29.07 3.50,29.99 4.70,31.05 5.90,32.11 6.84,32.80 7.77,33.49 8.76,33.75 9.74,34.02 11.29,33.44 12.85,32.87 12.90,32.83 12.96,32.80 13.03,32.78 13.10,32.77 13.17,32.78 13.23,32.79 13.30,32.82 13.36,32.84 13.41,32.89 13.46,32.94 13.49,33.00 13.52,33.06 13.53,33.13 13.54,33.20 13.53,33.27 13.52,33.33 13.49,33.39 13.45,33.45 13.40,33.50 13.35,33.55 13.29,33.58 13.23,33.61 13.16,33.61 13.09,33.62 13.03,33.60 12.96,33.59 12.90,33.55 12.84,33.52 12.80,33.46 12.75,33.41 12.73,33.35 12.70,33.28 12.70,33.22 12.70,33.15 12.71,33.08 12.73,33.01 12.77,32.96 12.81,32.90 12.87,32.86 12.92,32.82 12.99,32.80 13.05,32.78 13.12,32.78 13.19,32.78 13.25,32.80 13.32,32.82 13.37,32.86 13.43,32.90 13.47,32.96 13.51,33.02 13.52,33.09 13.54,33.15 13.54,33.22 13.53,33.29 13.51,33.35 13.48,33.42 13.44,33.47 13.39,33.52 13.39,33.52 13.39,33.52 11.37,34.51 9.35,35.50 8.11,35.17 6.87,34.85 5.81,34.15 4.75,33.45 3.42,32.33 2.09,31.20 1.25,30.22 0.42,29.24 -0.43,28.05 -1.30,26.85 -2.17,25.20 -3.05,23.54 -4.03,21.29 -5.01,19.04 -5.63,16.58 -6.26,14.11 -6.63,11.54 -7.00,8.98 -6.78,6.90 -6.56,4.82 -6.03,3.26 -5.49,1.69 -4.84,0.95 -4.20,0.21 -3.28,-0.28 -2.36,-0.78 -1.18,-0.71 0,-0.63 0.07,-0.62 0.15,-0.61 0.22,-0.59 0.29,-0.56 0.35,-0.52 0.42,-0.47 0.47,-0.41 0.52,-0.36 0.56,-0.29 0.59,-0.22 0.61,-0.15 0.63,-0.07 0.63,0.00 0.63,0.07 0.61,0.15 0.59,0.22 0.56,0.29 0.52,0.36 0.47,0.41 0.42,0.47 0.35,0.52 0.29,0.56 0.22,0.59 0.15,0.61 0.07,0.62 -0.00,0.63 -0.00,0.63 L 0,0.63 Z"/></g><g transform="translate(83.5999755859375 776.3999786376953) rotate(0 13.20001220703125 7.600006103515625)" stroke="none"><path fill="#000000" d="M -0.11,-0.59 Q -0.11,-0.59 1.04,-0.94 2.20,-1.30 3.36,-0.95 4.53,-0.60 5.70,0.01 6.87,0.62 8.11,1.60 9.35,2.58 10.57,3.69 11.78,4.79 12.94,5.68 14.10,6.57 15.33,7.68 16.56,8.79 17.54,9.72 18.51,10.64 19.57,11.46 20.63,12.27 21.52,12.84 22.41,13.40 23.05,13.92 23.69,14.44 24.24,14.59 24.79,14.74 25.32,14.86 25.85,14.99 25.95,15.03 26.05,15.07 26.14,15.14 26.23,15.21 26.30,15.29 26.37,15.37 26.41,15.47 26.46,15.57 26.48,15.68 26.51,15.79 26.50,15.90 26.50,16.01 26.47,16.11 26.44,16.22 26.39,16.31 26.33,16.41 26.26,16.49 26.18,16.57 26.09,16.63 26.00,16.69 25.89,16.72 25.79,16.76 25.68,16.77 25.57,16.78 25.46,16.76 25.35,16.74 25.26,14.72 25.17,12.69 25.18,12.63 25.19,12.56 25.23,12.50 25.26,12.44 25.31,12.39 25.36,12.34 25.42,12.31 25.48,12.28 25.55,12.28 25.62,12.27 25.69,12.28 25.75,12.30 25.81,12.33 25.87,12.37 25.92,12.42 25.96,12.47 25.99,12.54 26.01,12.60 26.01,12.67 26.02,12.74 26.00,12.81 25.98,12.87 25.94,12.93 25.90,12.99 25.85,13.03 25.80,13.07 25.73,13.09 25.66,13.11 25.60,13.11 25.53,13.11 25.46,13.09 25.40,13.07 25.34,13.03 25.29,12.99 25.25,12.93 25.21,12.87 25.19,12.81 25.17,12.74 25.18,12.67 25.18,12.60 25.21,12.54 25.23,12.48 25.28,12.42 25.32,12.37 25.38,12.34 25.44,12.30 25.51,12.28 25.57,12.27 25.64,12.28 25.71,12.28 25.77,12.31 25.83,12.34 25.88,12.39 25.93,12.44 25.97,12.50 26.00,12.56 26.01,12.63 26.02,12.69 26.02,12.69 26.02,12.69 25.93,13.84 25.85,14.99 25.95,15.03 26.05,15.07 26.14,15.14 26.23,15.21 26.30,15.29 26.37,15.37 26.41,15.47 26.46,15.57 26.48,15.68 26.51,15.79 26.50,15.90 26.50,16.01 26.47,16.11 26.44,16.22 26.39,16.31 26.33,16.41 26.26,16.49 26.18,16.57 26.09,16.63 26.00,16.69 25.89,16.72 25.79,16.76 25.68,16.77 25.57,16.78 25.46,16.76 25.35,16.74 24.80,16.70 24.25,16.65 23.35,16.39 22.46,16.13 21.85,15.68 21.24,15.24 20.27,14.62 19.30,14.00 18.16,13.11 17.01,12.22 16.05,11.31 15.10,10.40 13.93,9.34 12.77,8.29 11.54,7.33 10.32,6.37 9.17,5.28 8.02,4.19 6.96,3.27 5.89,2.35 4.87,1.74 3.86,1.13 3.13,0.75 2.39,0.38 1.25,0.48 0.11,0.59 0.04,0.60 -0.02,0.60 -0.09,0.59 -0.17,0.58 -0.23,0.55 -0.30,0.52 -0.36,0.48 -0.42,0.43 -0.47,0.38 -0.51,0.32 -0.54,0.25 -0.57,0.19 -0.59,0.11 -0.60,0.04 -0.60,-0.02 -0.60,-0.10 -0.58,-0.17 -0.55,-0.24 -0.52,-0.30 -0.48,-0.36 -0.43,-0.42 -0.38,-0.47 -0.32,-0.51 -0.25,-0.55 -0.18,-0.57 -0.11,-0.59 -0.11,-0.59 L -0.11,-0.59 Z"/></g><g transform="translate(103.5999755859375 771.5999908447266) rotate(0 -4.399993896484375 10.800018310546875)" stroke="none"><path fill="#000000" d="M 0.40,0.40 Q 0.40,0.40 -0.59,1.70 -1.59,2.99 -2.21,4.10 -2.83,5.20 -3.56,6.61 -4.30,8.01 -4.82,9.27 -5.34,10.52 -6.02,12.42 -6.71,14.32 -6.98,15.75 -7.26,17.18 -7.39,18.02 -7.53,18.86 -7.62,19.43 -7.71,20.00 -7.01,20.13 -6.32,20.27 -6.33,20.32 -6.34,20.37 -6.36,20.41 -6.39,20.46 -6.42,20.50 -6.45,20.54 -6.49,20.57 -6.53,20.60 -6.58,20.62 -6.63,20.64 -6.68,20.65 -6.73,20.65 -6.78,20.65 -6.83,20.64 -6.88,20.63 -6.93,20.61 -6.97,20.58 -7.01,20.56 -7.05,20.52 -7.08,20.48 -7.11,20.44 -7.14,20.39 -7.15,20.34 -7.16,20.29 -7.16,20.24 -7.17,20.19 -7.01,20.01 -6.85,19.82 -6.79,19.81 -6.72,19.80 -6.65,19.82 -6.58,19.83 -6.53,19.87 -6.47,19.91 -6.42,19.96 -6.38,20.01 -6.35,20.08 -6.33,20.14 -6.32,20.21 -6.32,20.28 -6.34,20.34 -6.36,20.41 -6.40,20.47 -6.44,20.52 -6.49,20.56 -6.55,20.61 -6.61,20.63 -6.68,20.65 -6.74,20.65 -6.81,20.65 -6.88,20.63 -6.94,20.60 -7.00,20.56 -7.05,20.52 -7.09,20.46 -7.13,20.41 -7.15,20.34 -7.17,20.27 -7.16,20.20 -7.16,20.14 -7.13,20.07 -7.11,20.01 -7.06,19.96 -7.02,19.90 -6.96,19.87 -6.90,19.83 -6.83,19.82 -6.76,19.80 -6.70,19.81 -6.63,19.82 -6.57,19.85 -6.50,19.88 -6.45,19.93 -6.40,19.97 -6.37,20.03 -6.34,20.09 -6.33,20.16 -6.32,20.23 -6.33,20.30 -6.34,20.37 -6.37,20.43 -6.41,20.49 -6.46,20.53 -6.51,20.58 -6.41,20.42 -6.32,20.27 -6.33,20.32 -6.34,20.37 -6.36,20.41 -6.39,20.46 -6.42,20.50 -6.45,20.54 -6.49,20.57 -6.53,20.60 -6.58,20.62 -6.63,20.64 -6.68,20.65 -6.73,20.65 -6.78,20.65 -6.83,20.64 -6.88,20.63 -6.93,20.61 -6.97,20.58 -7.01,20.56 -7.05,20.52 -7.08,20.48 -7.11,20.44 -7.14,20.39 -7.15,20.34 -7.16,20.29 -7.16,20.24 -7.17,20.19 -8.44,20.00 -9.72,19.82 -9.71,19.18 -9.69,18.55 -9.57,17.65 -9.46,16.75 -9.14,15.15 -8.83,13.56 -8.12,11.60 -7.40,9.64 -6.82,8.31 -6.23,6.97 -5.43,5.54 -4.63,4.10 -3.82,2.85 -3.00,1.60 -1.70,0.59 -0.40,-0.40 -0.34,-0.44 -0.29,-0.48 -0.23,-0.51 -0.16,-0.54 -0.10,-0.55 -0.03,-0.56 0.03,-0.56 0.10,-0.56 0.16,-0.54 0.23,-0.52 0.29,-0.48 0.35,-0.44 0.40,-0.40 0.44,-0.35 0.48,-0.29 0.52,-0.23 0.54,-0.16 0.56,-0.10 0.56,-0.03 0.56,0.03 0.55,0.10 0.54,0.16 0.51,0.23 0.48,0.29 0.44,0.34 0.40,0.40 0.40,0.40 L 0.40,0.40 Z"/></g><g transform="translate(108.39999389648438 765.2000274658203) rotate(0 8 21.5999755859375)" stroke="none"><path fill="#000000" d="M 0.10,-0.62 Q 0.10,-0.62 1.53,-0.47 2.95,-0.32 5.14,1.41 7.33,3.15 8.97,5.56 10.61,7.97 11.80,10.64 12.98,13.31 13.95,16.06 14.92,18.80 15.57,21.38 16.22,23.96 16.51,26.26 16.80,28.56 16.92,30.23 17.03,31.89 17.08,33.30 17.13,34.71 16.91,36.11 16.69,37.50 15.52,39.88 14.34,42.26 14.31,42.32 14.28,42.38 14.23,42.43 14.18,42.48 14.12,42.51 14.06,42.54 13.99,42.55 13.92,42.56 13.85,42.54 13.79,42.53 13.73,42.49 13.67,42.46 13.62,42.41 13.58,42.35 13.55,42.29 13.53,42.23 13.52,42.16 13.52,42.09 13.53,42.02 13.55,41.96 13.59,41.90 13.63,41.84 13.68,41.80 13.74,41.76 13.80,41.74 13.87,41.71 13.94,41.71 14.00,41.71 14.07,41.73 14.13,41.75 14.19,41.79 14.25,41.84 14.28,41.89 14.32,41.95 14.34,42.01 14.36,42.08 14.36,42.15 14.36,42.22 14.33,42.28 14.31,42.35 14.26,42.40 14.22,42.45 14.16,42.49 14.10,42.52 14.03,42.54 13.97,42.56 13.90,42.55 13.83,42.54 13.77,42.51 13.71,42.49 13.65,42.44 13.60,42.39 13.57,42.33 13.54,42.27 13.53,42.20 13.51,42.14 13.53,42.07 13.54,42.00 13.54,42.00 13.54,42.00 13.93,39.55 14.32,37.11 14.52,35.95 14.72,34.78 14.67,33.42 14.62,32.06 14.51,30.45 14.41,28.85 14.16,26.69 13.92,24.53 13.32,22.04 12.72,19.56 11.83,16.87 10.94,14.18 9.90,11.65 8.86,9.11 7.46,6.85 6.05,4.59 4.30,2.92 2.56,1.24 1.22,0.93 -0.10,0.62 -0.17,0.60 -0.25,0.58 -0.31,0.54 -0.38,0.50 -0.44,0.45 -0.49,0.40 -0.53,0.33 -0.57,0.27 -0.60,0.19 -0.62,0.12 -0.63,0.04 -0.63,-0.02 -0.62,-0.10 -0.61,-0.17 -0.58,-0.25 -0.55,-0.32 -0.50,-0.38 -0.45,-0.44 -0.39,-0.49 -0.33,-0.54 -0.26,-0.57 -0.19,-0.60 -0.12,-0.62 -0.04,-0.63 0.02,-0.63 0.10,-0.62 0.10,-0.62 L 0.10,-0.62 Z"/></g><g transform="translate(147.5999755859375 790.0000152587891) rotate(0 6 -0.399993896484375)" stroke="none"><path fill="#000000" d="M -0.08,-0.69 Q -0.08,-0.69 1.74,-0.97 3.57,-1.26 4.83,-1.36 6.10,-1.46 7.10,-1.51 8.10,-1.55 9.81,-1.38 11.53,-1.22 11.60,-1.20 11.66,-1.19 11.73,-1.16 11.79,-1.13 11.83,-1.08 11.88,-1.03 11.91,-0.97 11.94,-0.91 11.95,-0.84 11.96,-0.77 11.94,-0.70 11.93,-0.64 11.89,-0.58 11.86,-0.52 11.81,-0.47 11.76,-0.43 11.69,-0.40 11.63,-0.38 11.56,-0.37 11.49,-0.37 11.42,-0.39 11.36,-0.40 11.30,-0.44 11.24,-0.48 11.20,-0.53 11.16,-0.59 11.14,-0.65 11.11,-0.72 11.11,-0.79 11.11,-0.85 11.13,-0.92 11.16,-0.99 11.20,-1.04 11.24,-1.10 11.29,-1.14 11.35,-1.17 11.42,-1.19 11.48,-1.21 11.55,-1.21 11.62,-1.21 11.68,-1.18 11.75,-1.16 11.80,-1.11 11.85,-1.07 11.89,-1.01 11.93,-0.95 11.94,-0.88 11.96,-0.82 11.95,-0.75 11.94,-0.68 11.91,-0.62 11.89,-0.56 11.84,-0.50 11.79,-0.45 11.73,-0.42 11.67,-0.39 11.60,-0.38 11.54,-0.37 11.54,-0.37 11.54,-0.37 9.85,-0.14 8.17,0.07 7.20,0.11 6.22,0.15 5.00,0.25 3.78,0.34 1.93,0.51 0.08,0.69 0.00,0.69 -0.08,0.69 -0.16,0.67 -0.24,0.65 -0.32,0.61 -0.39,0.57 -0.45,0.52 -0.52,0.46 -0.57,0.39 -0.61,0.32 -0.64,0.24 -0.67,0.16 -0.68,0.08 -0.70,0.00 -0.69,-0.08 -0.68,-0.16 -0.65,-0.24 -0.62,-0.32 -0.57,-0.39 -0.52,-0.46 -0.46,-0.51 -0.39,-0.57 -0.32,-0.61 -0.25,-0.65 -0.16,-0.67 -0.08,-0.69 -0.08,-0.69 L -0.08,-0.69 Z"/></g><g transform="translate(139.5999755859375 785.2000274658203) rotate(0 10 -3.600006103515625)" stroke="none"><path fill="#000000" d="M -0.21,-0.64 Q -0.21,-0.64 1.12,-1.21 2.47,-1.78 3.74,-2.22 5.01,-2.66 7.83,-3.76 10.64,-4.87 14.44,-5.94 18.23,-7.01 18.29,-7.02 18.36,-7.04 18.43,-7.03 18.50,-7.02 18.56,-6.99 18.62,-6.96 18.67,-6.91 18.72,-6.86 18.75,-6.80 18.78,-6.73 18.79,-6.67 18.79,-6.60 18.78,-6.53 18.77,-6.46 18.73,-6.40 18.70,-6.34 18.65,-6.30 18.60,-6.25 18.53,-6.23 18.47,-6.20 18.40,-6.19 18.33,-6.19 18.26,-6.21 18.20,-6.22 18.14,-6.26 18.08,-6.30 18.04,-6.35 18.00,-6.41 17.97,-6.47 17.95,-6.54 17.95,-6.60 17.95,-6.67 17.97,-6.74 17.99,-6.80 18.03,-6.86 18.07,-6.92 18.13,-6.95 18.18,-6.99 18.25,-7.01 18.32,-7.03 18.38,-7.03 18.45,-7.03 18.52,-7.00 18.58,-6.98 18.63,-6.94 18.69,-6.89 18.72,-6.84 18.76,-6.78 18.78,-6.71 18.79,-6.64 18.79,-6.57 18.78,-6.51 18.75,-6.44 18.73,-6.38 18.68,-6.33 18.63,-6.28 18.57,-6.25 18.51,-6.21 18.51,-6.21 18.51,-6.21 14.93,-4.64 11.34,-3.07 8.47,-1.97 5.61,-0.87 4.33,-0.46 3.04,-0.05 1.63,0.29 0.21,0.64 0.13,0.66 0.05,0.68 -0.02,0.67 -0.10,0.67 -0.18,0.65 -0.26,0.62 -0.33,0.58 -0.41,0.54 -0.46,0.48 -0.52,0.43 -0.57,0.36 -0.61,0.29 -0.64,0.21 -0.66,0.13 -0.67,0.05 -0.68,-0.02 -0.66,-0.10 -0.65,-0.19 -0.62,-0.26 -0.59,-0.34 -0.54,-0.40 -0.49,-0.47 -0.42,-0.52 -0.36,-0.57 -0.29,-0.61 -0.21,-0.64 -0.21,-0.64 L -0.21,-0.64 Z"/></g><g transform="translate(233.99996948242188 577.9999847412109) rotate(0 4.800018310546875 1.20001220703125)" stroke="none"><path fill="#000000" d="M 0.11,-0.71 Q 0.11,-0.71 1.50,-0.52 2.89,-0.32 6.01,0.72 9.14,1.77 9.20,1.80 9.26,1.84 9.30,1.89 9.35,1.94 9.37,2.00 9.40,2.07 9.41,2.13 9.41,2.20 9.39,2.27 9.38,2.34 9.34,2.39 9.30,2.45 9.25,2.49 9.19,2.54 9.13,2.56 9.06,2.58 8.99,2.58 8.92,2.58 8.86,2.56 8.79,2.54 8.74,2.50 8.68,2.46 8.64,2.40 8.60,2.35 8.58,2.28 8.57,2.22 8.57,2.15 8.57,2.08 8.60,2.01 8.62,1.95 8.66,1.90 8.71,1.84 8.77,1.81 8.82,1.77 8.89,1.75 8.96,1.74 9.03,1.75 9.09,1.75 9.16,1.78 9.22,1.81 9.27,1.85 9.32,1.90 9.35,1.96 9.39,2.02 9.40,2.09 9.41,2.16 9.40,2.22 9.39,2.29 9.36,2.35 9.33,2.42 9.28,2.46 9.23,2.51 9.17,2.54 9.11,2.57 9.04,2.58 8.97,2.59 8.90,2.57 8.84,2.56 8.84,2.56 8.84,2.56 5.73,1.90 2.62,1.24 1.25,0.98 -0.11,0.71 -0.20,0.69 -0.28,0.66 -0.36,0.62 -0.43,0.57 -0.50,0.51 -0.56,0.45 -0.61,0.38 -0.65,0.30 -0.68,0.22 -0.71,0.14 -0.72,0.05 -0.72,-0.03 -0.71,-0.11 -0.69,-0.20 -0.66,-0.28 -0.62,-0.36 -0.57,-0.43 -0.52,-0.50 -0.45,-0.56 -0.38,-0.61 -0.30,-0.65 -0.22,-0.69 -0.14,-0.70 -0.05,-0.72 0.03,-0.72 0.11,-0.71 0.11,-0.71 L 0.11,-0.71 Z"/></g><g transform="translate(225.19998168945312 566.8000030517578) rotate(0 16 2.399993896484375)" stroke="none"><path fill="#000000" d="M 0,-0.75 Q 0,-0.75 1.15,-0.88 2.3,-1.00 3.93,-1.04 5.57,-1.09 7.65,-1.12 9.73,-1.15 16.22,0.40 22.70,1.96 25.38,2.74 28.06,3.51 28.13,3.54 28.19,3.56 28.24,3.61 28.30,3.65 28.33,3.71 28.37,3.77 28.38,3.84 28.40,3.90 28.39,3.97 28.38,4.04 28.35,4.10 28.33,4.16 28.28,4.22 28.23,4.27 28.17,4.30 28.11,4.33 28.04,4.34 27.97,4.35 27.91,4.34 27.84,4.33 27.78,4.30 27.72,4.27 27.67,4.22 27.62,4.17 27.59,4.11 27.56,4.04 27.56,3.98 27.55,3.91 27.56,3.84 27.58,3.77 27.61,3.71 27.65,3.65 27.70,3.61 27.75,3.56 27.82,3.54 27.88,3.51 27.95,3.51 28.02,3.51 28.08,3.52 28.15,3.54 28.21,3.58 28.26,3.62 28.31,3.67 28.35,3.73 28.37,3.79 28.39,3.86 28.39,3.93 28.39,4.00 28.37,4.06 28.35,4.13 28.31,4.18 28.27,4.24 28.21,4.27 28.15,4.31 28.09,4.33 28.02,4.35 27.95,4.35 27.88,4.34 27.88,4.34 27.88,4.34 25.12,3.95 22.36,3.55 16.04,2.35 9.72,1.15 7.65,1.12 5.57,1.09 3.93,1.04 2.3,1.00 1.15,0.88 0,0.75 -0.09,0.74 -0.18,0.73 -0.26,0.69 -0.35,0.66 -0.42,0.61 -0.49,0.56 -0.56,0.49 -0.62,0.42 -0.66,0.34 -0.70,0.26 -0.72,0.17 -0.74,0.09 -0.74,-0.00 -0.74,-0.09 -0.72,-0.17 -0.70,-0.26 -0.66,-0.34 -0.62,-0.42 -0.56,-0.49 -0.49,-0.56 -0.42,-0.61 -0.35,-0.66 -0.26,-0.69 -0.18,-0.73 -0.09,-0.74 0.00,-0.75 0.00,-0.75 L 0,-0.75 Z"/></g><g transform="translate(402.8000183105469 615.5999908447266) rotate(0 -21.20001220703125 44.40000915527344)" stroke="none"><path fill="#000000" d="M 0.49,0.11 Q 0.49,0.11 0.02,2.17 -0.44,4.24 -0.87,6.49 -1.31,8.74 -2.42,11.58 -3.54,14.42 -4.94,17.46 -6.34,20.50 -7.38,23.83 -8.42,27.16 -9.79,30.67 -11.17,34.18 -12.68,37.30 -14.19,40.41 -15.74,43.79 -17.30,47.17 -18.65,50.44 -20.00,53.71 -21.50,56.51 -23.01,59.30 -24.81,61.66 -26.62,64.01 -28.30,66.15 -29.98,68.29 -31.13,70.33 -32.29,72.36 -33.72,74.40 -35.15,76.45 -36.44,78.45 -37.73,80.45 -38.49,82.20 -39.25,83.94 -40.57,86.09 -41.90,88.23 -41.92,88.28 -41.95,88.33 -41.99,88.37 -42.03,88.40 -42.07,88.43 -42.12,88.46 -42.17,88.48 -42.22,88.49 -42.28,88.50 -42.33,88.50 -42.38,88.49 -42.44,88.48 -42.49,88.46 -42.53,88.44 -42.58,88.41 -42.62,88.37 -42.65,88.33 -42.69,88.29 -42.71,88.24 -42.73,88.19 -42.74,88.14 -42.75,88.09 -42.75,88.03 -42.75,87.98 -42.73,87.93 -42.72,87.87 -42.69,88.10 -42.66,88.33 -42.70,88.26 -42.73,88.20 -42.74,88.13 -42.75,88.06 -42.74,87.98 -42.73,87.91 -42.70,87.85 -42.66,87.78 -42.61,87.73 -42.56,87.68 -42.49,87.65 -42.43,87.62 -42.35,87.62 -42.28,87.61 -42.21,87.62 -42.14,87.64 -42.08,87.68 -42.02,87.71 -41.97,87.77 -41.92,87.82 -41.90,87.89 -41.87,87.96 -41.87,88.03 -41.86,88.10 -41.88,88.17 -41.90,88.24 -41.94,88.30 -41.98,88.36 -42.04,88.41 -42.10,88.45 -42.17,88.47 -42.23,88.50 -42.31,88.50 -42.38,88.50 -42.45,88.47 -42.52,88.45 -42.57,88.41 -42.63,88.36 -42.67,88.30 -42.71,88.24 -42.73,88.17 -42.75,88.10 -42.75,88.03 -42.74,87.96 -42.72,87.89 -42.69,87.82 -42.64,87.77 -42.60,87.71 -42.53,87.68 -42.47,87.64 -42.40,87.62 -42.33,87.61 -42.26,87.62 -42.19,87.62 -42.12,87.65 -42.06,87.68 -41.98,87.96 -41.90,88.23 -41.92,88.28 -41.95,88.33 -41.99,88.37 -42.03,88.40 -42.07,88.43 -42.12,88.46 -42.17,88.48 -42.22,88.49 -42.28,88.50 -42.33,88.50 -42.38,88.49 -42.44,88.48 -42.49,88.46 -42.53,88.44 -42.58,88.41 -42.62,88.37 -42.65,88.33 -42.69,88.29 -42.71,88.24 -42.73,88.19 -42.74,88.14 -42.75,88.09 -42.75,88.03 -42.75,87.98 -42.73,87.93 -42.72,87.87 -41.37,85.74 -40.03,83.60 -39.24,81.80 -38.44,79.99 -37.14,77.97 -35.85,75.96 -34.44,73.95 -33.03,71.94 -31.84,69.85 -30.65,67.77 -28.97,65.63 -27.30,63.49 -25.53,61.19 -23.76,58.89 -22.28,56.14 -20.79,53.38 -19.44,50.10 -18.08,46.81 -16.53,43.42 -14.97,40.03 -13.47,36.95 -11.98,33.87 -10.62,30.38 -9.26,26.90 -8.21,23.51 -7.15,20.13 -5.77,17.11 -4.39,14.09 -3.31,11.33 -2.23,8.57 -1.81,6.30 -1.39,4.03 -0.94,1.96 -0.49,-0.11 -0.47,-0.16 -0.45,-0.22 -0.42,-0.27 -0.38,-0.32 -0.34,-0.37 -0.29,-0.41 -0.24,-0.44 -0.19,-0.47 -0.13,-0.48 -0.07,-0.50 -0.01,-0.50 0.04,-0.50 0.10,-0.49 0.16,-0.48 0.22,-0.45 0.27,-0.42 0.32,-0.38 0.37,-0.34 0.40,-0.29 0.44,-0.24 0.46,-0.19 0.49,-0.13 0.50,-0.07 0.50,-0.01 0.50,0.04 0.49,0.11 0.49,0.11 L 0.49,0.11 Z"/></g><g transform="translate(359.6000061035156 671.5999908447266) rotate(0 42 17.600006103515625)" stroke="none"><path fill="#000000" d="M 0.53,-0.13 Q 0.53,-0.13 0.98,1.71 1.42,3.55 1.61,5.75 1.80,7.95 1.87,10.50 1.95,13.04 1.97,15.96 2.00,18.88 2.01,21.27 2.02,23.66 2.03,25.60 2.03,27.53 2.03,28.81 2.03,30.09 2.47,31.25 2.92,32.41 3.34,32.86 3.77,33.30 5.92,33.83 8.07,34.37 9.62,34.24 11.18,34.10 13.46,33.82 15.75,33.54 18.56,33.20 21.38,32.85 24.60,31.80 27.82,30.74 31.27,29.38 34.72,28.01 38.48,26.28 42.24,24.56 46.16,23.13 50.07,21.70 53.30,19.50 56.52,17.31 60.01,15.66 63.50,14.02 67.04,12.40 70.58,10.79 73.70,9.41 76.82,8.04 80.01,6.68 83.20,5.33 83.29,5.31 83.37,5.30 83.45,5.31 83.53,5.32 83.61,5.36 83.68,5.40 83.74,5.46 83.80,5.52 83.83,5.59 83.87,5.67 83.88,5.75 83.89,5.83 83.87,5.92 83.85,6.00 83.81,6.07 83.77,6.14 83.71,6.19 83.64,6.25 83.57,6.28 83.49,6.31 83.41,6.32 83.32,6.32 83.24,6.30 83.16,6.28 83.09,6.24 83.03,6.19 82.97,6.12 82.92,6.06 82.90,5.98 82.87,5.90 82.87,5.82 82.87,5.74 82.89,5.66 82.92,5.58 82.97,5.51 83.02,5.44 83.08,5.40 83.15,5.35 83.23,5.33 83.31,5.30 83.40,5.31 83.48,5.31 83.56,5.34 83.63,5.37 83.70,5.42 83.76,5.48 83.81,5.55 83.85,5.62 83.87,5.70 83.89,5.78 83.88,5.86 83.87,5.94 83.84,6.02 83.80,6.10 83.75,6.16 83.69,6.22 83.62,6.26 83.54,6.30 83.54,6.30 83.54,6.30 80.35,7.56 77.16,8.82 74.05,10.20 70.94,11.57 67.40,13.18 63.87,14.80 60.44,16.41 57.01,18.03 53.69,20.27 50.38,22.51 46.49,23.94 42.61,25.36 38.83,27.10 35.05,28.84 31.58,30.23 28.11,31.61 24.80,32.70 21.50,33.79 18.68,34.15 15.87,34.51 13.57,34.82 11.27,35.12 9.62,35.29 7.97,35.45 5.71,35.20 3.45,34.95 3.21,34.44 2.96,33.94 2.54,33.33 2.11,32.73 1.63,31.42 1.15,30.11 1.15,28.82 1.14,27.54 1.13,25.60 1.12,23.67 1.10,21.28 1.08,18.89 1.04,15.98 1.00,13.07 0.91,10.56 0.81,8.04 0.61,5.92 0.41,3.80 -0.06,1.96 -0.53,0.13 -0.54,0.06 -0.55,0.00 -0.54,-0.06 -0.53,-0.13 -0.51,-0.19 -0.49,-0.25 -0.45,-0.31 -0.41,-0.36 -0.36,-0.41 -0.31,-0.45 -0.25,-0.48 -0.19,-0.51 -0.13,-0.53 -0.06,-0.55 -0.00,-0.55 0.06,-0.55 0.13,-0.53 0.19,-0.51 0.25,-0.48 0.31,-0.45 0.36,-0.41 0.41,-0.36 0.45,-0.31 0.49,-0.25 0.51,-0.19 0.53,-0.13 0.53,-0.13 L 0.53,-0.13 Z"/></g><g transform="translate(450.8000183105469 58.80000305175781) rotate(0 18.79998779296875 -18.400001525878906)" stroke="none"><path fill="#000000" d="M 0.50,-0.30 Q 0.50,-0.30 1.35,0.74 2.19,1.79 3.11,2.64 4.03,3.48 5.29,4.27 6.55,5.07 8.38,5.61 10.21,6.14 12.32,6.38 14.44,6.61 16.85,6.27 19.26,5.92 22.46,3.99 25.67,2.05 27.70,0.12 29.73,-1.80 30.77,-3.47 31.82,-5.14 32.23,-6.68 32.65,-8.21 32.60,-9.44 32.55,-10.67 31.89,-11.97 31.23,-13.28 29.87,-14.69 28.50,-16.11 26.95,-17.67 25.41,-19.23 22.85,-21.93 20.28,-24.63 18.93,-26.27 17.59,-27.91 16.48,-29.83 15.37,-31.76 14.88,-33.11 14.40,-34.47 14.23,-35.73 14.05,-37.00 14.76,-38.28 15.46,-39.56 16.78,-40.74 18.10,-41.92 20.42,-42.90 22.75,-43.87 25.15,-44.40 27.55,-44.94 31.67,-44.99 35.79,-45.05 35.86,-45.05 35.93,-45.04 35.99,-45.02 36.06,-44.99 36.11,-44.95 36.16,-44.90 36.19,-44.84 36.23,-44.78 36.24,-44.71 36.26,-44.65 36.25,-44.58 36.24,-44.51 36.21,-44.45 36.18,-44.39 36.13,-44.34 36.08,-44.29 36.02,-44.26 35.96,-44.23 35.89,-44.22 35.82,-44.21 35.76,-44.22 35.69,-44.23 35.63,-44.26 35.57,-44.30 35.52,-44.35 35.48,-44.40 35.45,-44.46 35.42,-44.52 35.41,-44.59 35.41,-44.66 35.42,-44.73 35.44,-44.79 35.47,-44.85 35.51,-44.91 35.56,-44.95 35.62,-45.00 35.68,-45.02 35.75,-45.05 35.81,-45.05 35.88,-45.05 35.95,-45.03 36.02,-45.01 36.07,-44.97 36.13,-44.93 36.17,-44.88 36.21,-44.82 36.23,-44.76 36.25,-44.69 36.25,-44.62 36.25,-44.55 36.23,-44.49 36.20,-44.43 36.16,-44.37 36.12,-44.32 36.06,-44.28 36.00,-44.24 35.94,-44.22 35.87,-44.21 35.87,-44.21 35.87,-44.21 31.99,-43.52 28.11,-42.83 25.96,-42.12 23.80,-41.42 21.90,-40.57 20.00,-39.73 18.96,-38.78 17.92,-37.83 17.40,-37.35 16.88,-36.87 17.07,-36.16 17.26,-35.45 17.63,-34.32 18.00,-33.19 18.91,-31.43 19.82,-29.67 21.05,-28.06 22.28,-26.45 24.70,-23.66 27.12,-20.88 28.65,-19.27 30.17,-17.66 31.70,-15.95 33.23,-14.23 33.97,-12.51 34.71,-10.78 34.72,-9.21 34.72,-7.64 34.17,-5.83 33.62,-4.02 32.39,-2.15 31.17,-0.29 28.94,1.76 26.72,3.82 23.16,5.86 19.60,7.91 16.91,8.27 14.22,8.63 11.92,8.35 9.62,8.08 7.55,7.42 5.48,6.77 4.07,5.84 2.66,4.91 1.61,3.85 0.56,2.80 0.02,1.55 -0.50,0.30 -0.53,0.23 -0.56,0.17 -0.57,0.10 -0.58,0.03 -0.58,-0.03 -0.57,-0.10 -0.55,-0.17 -0.53,-0.24 -0.49,-0.30 -0.46,-0.36 -0.41,-0.41 -0.36,-0.46 -0.30,-0.50 -0.24,-0.53 -0.17,-0.55 -0.10,-0.58 -0.03,-0.58 0.03,-0.58 0.10,-0.57 0.17,-0.56 0.24,-0.53 0.30,-0.50 0.36,-0.45 0.41,-0.41 0.46,-0.35 0.50,-0.30 0.50,-0.30 L 0.50,-0.30 Z"/></g><g transform="translate(517.9999694824219 42.79998779296875) rotate(0 0.800018310546875 4.000007629394531)" stroke="none"><path fill="#000000" d="M 0.58,-0.11 Q 0.58,-0.11 0.91,1.01 1.25,2.14 1.36,3.36 1.48,4.58 1.54,5.79 1.60,7.00 1.64,8.21 1.68,9.41 1.94,10.84 2.20,12.27 2.18,12.38 2.17,12.50 2.13,12.61 2.09,12.71 2.03,12.81 1.97,12.90 1.88,12.98 1.80,13.06 1.70,13.11 1.59,13.17 1.48,13.20 1.37,13.23 1.26,13.23 1.14,13.23 1.03,13.20 0.92,13.18 0.82,13.13 0.71,13.07 0.63,13.00 0.54,12.92 0.47,12.83 0.41,12.74 0.37,12.63 0.32,12.52 0.31,12.41 0.29,12.30 0.50,11.23 0.71,10.17 0.77,8.17 0.83,6.17 0.53,2.58 0.23,-0.99 0.04,-2.53 -0.13,-4.07 -0.13,-4.14 -0.13,-4.21 -0.10,-4.27 -0.08,-4.34 -0.03,-4.39 0.00,-4.44 0.06,-4.48 0.12,-4.51 0.18,-4.53 0.25,-4.55 0.32,-4.54 0.39,-4.53 0.45,-4.51 0.51,-4.48 0.56,-4.43 0.61,-4.39 0.65,-4.33 0.68,-4.26 0.69,-4.20 0.70,-4.13 0.69,-4.06 0.68,-3.99 0.65,-3.93 0.62,-3.87 0.57,-3.82 0.52,-3.77 0.46,-3.74 0.40,-3.72 0.33,-3.71 0.26,-3.70 0.20,-3.71 0.13,-3.73 0.07,-3.76 0.01,-3.79 -0.03,-3.85 -0.07,-3.90 -0.10,-3.96 -0.12,-4.02 -0.13,-4.09 -0.13,-4.16 -0.12,-4.23 -0.10,-4.30 -0.06,-4.35 -0.02,-4.41 0.02,-4.45 0.07,-4.49 0.14,-4.52 0.20,-4.54 0.27,-4.54 0.34,-4.54 0.41,-4.52 0.47,-4.50 0.53,-4.46 0.58,-4.42 0.62,-4.36 0.66,-4.31 0.68,-4.24 0.70,-4.18 0.70,-4.18 0.70,-4.18 0.90,-2.64 1.10,-1.10 1.70,2.53 2.31,6.18 2.33,8.21 2.35,10.24 2.27,11.26 2.20,12.27 2.18,12.38 2.17,12.50 2.13,12.61 2.09,12.71 2.03,12.81 1.97,12.90 1.88,12.98 1.80,13.06 1.70,13.11 1.59,13.17 1.48,13.20 1.37,13.23 1.26,13.23 1.14,13.23 1.03,13.20 0.92,13.18 0.82,13.13 0.71,13.07 0.63,13.00 0.54,12.93 0.47,12.83 0.41,12.74 0.37,12.63 0.32,12.52 0.31,12.41 0.29,12.30 0.07,10.87 -0.13,9.44 -0.13,8.25 -0.12,7.06 -0.15,5.89 -0.17,4.72 -0.25,3.59 -0.33,2.45 -0.45,1.28 -0.58,0.11 -0.59,0.04 -0.59,-0.02 -0.58,-0.09 -0.57,-0.16 -0.54,-0.23 -0.51,-0.30 -0.47,-0.35 -0.43,-0.41 -0.37,-0.46 -0.31,-0.50 -0.25,-0.53 -0.18,-0.56 -0.11,-0.58 -0.04,-0.59 0.02,-0.59 0.09,-0.59 0.16,-0.57 0.23,-0.55 0.29,-0.51 0.36,-0.47 0.41,-0.42 0.46,-0.37 0.50,-0.31 0.54,-0.25 0.56,-0.18 0.58,-0.11 0.58,-0.11 L 0.58,-0.11 Z"/></g><g transform="translate(517.1999816894531 12.399993896484375) rotate(0 -0.399993896484375 0.8000030517578125)" stroke="none"><path fill="#000000" d="M 0.69,0 Q 0.69,0 0.55,1.63 0.42,3.27 0.41,3.34 0.40,3.41 0.37,3.47 0.33,3.53 0.28,3.58 0.23,3.62 0.17,3.65 0.11,3.68 0.04,3.69 -0.02,3.70 -0.09,3.68 -0.15,3.67 -0.21,3.63 -0.27,3.60 -0.31,3.54 -0.36,3.49 -0.38,3.43 -0.41,3.36 -0.41,3.30 -0.42,3.23 -0.40,3.16 -0.38,3.09 -0.34,3.04 -0.30,2.98 -0.25,2.94 -0.19,2.90 -0.13,2.88 -0.06,2.85 0.00,2.85 0.06,2.85 0.13,2.88 0.19,2.90 0.25,2.94 0.30,2.98 0.34,3.04 0.38,3.09 0.40,3.16 0.42,3.23 0.41,3.30 0.41,3.36 0.38,3.43 0.36,3.49 0.31,3.54 0.27,3.60 0.21,3.63 0.15,3.67 0.09,3.68 0.02,3.70 -0.04,3.69 -0.11,3.68 -0.17,3.65 -0.23,3.62 -0.28,3.58 -0.33,3.53 -0.37,3.47 -0.40,3.41 -0.41,3.34 -0.42,3.27 -0.42,3.27 -0.42,3.27 -0.55,1.63 -0.69,0 -0.68,-0.08 -0.67,-0.16 -0.64,-0.24 -0.61,-0.32 -0.56,-0.39 -0.51,-0.45 -0.45,-0.51 -0.39,-0.57 -0.31,-0.60 -0.24,-0.64 -0.16,-0.66 -0.08,-0.68 0.00,-0.68 0.08,-0.68 0.16,-0.66 0.24,-0.64 0.31,-0.60 0.39,-0.57 0.45,-0.51 0.51,-0.45 0.56,-0.39 0.61,-0.32 0.64,-0.24 0.67,-0.16 0.68,-0.08 0.69,0.00 0.69,0.00 L 0.69,0 Z"/></g><g transform="translate(535.6000061035156 46.79998779296875) rotate(0 19.199981689453125 -1.1999969482421875)" stroke="none"><path fill="#000000" d="M 0.56,-0.33 Q 0.56,-0.33 1.36,0.74 2.16,1.83 2.70,2.75 3.23,3.67 3.77,3.89 4.30,4.12 5.18,4.31 6.06,4.51 6.95,3.53 7.84,2.55 8.53,1.65 9.22,0.74 10.26,-0.38 11.30,-1.51 12.15,-2.63 13.01,-3.75 13.88,-4.73 14.74,-5.71 15.63,-6.42 16.52,-7.12 17.38,-7.66 18.24,-8.19 19.27,-8.46 20.30,-8.72 21.39,-8.33 22.48,-7.94 23.39,-7.27 24.31,-6.61 25.15,-5.86 25.99,-5.12 26.80,-4.35 27.62,-3.57 28.41,-2.79 29.21,-2.00 30.30,-1.55 31.39,-1.09 34.24,-0.43 37.09,0.22 37.16,0.24 37.23,0.26 37.28,0.30 37.34,0.34 37.38,0.39 37.42,0.45 37.44,0.51 37.47,0.58 37.47,0.65 37.47,0.71 37.44,0.78 37.42,0.84 37.38,0.90 37.34,0.95 37.28,0.99 37.22,1.03 37.16,1.05 37.09,1.07 37.02,1.06 36.95,1.06 36.89,1.03 36.83,1.01 36.77,0.96 36.72,0.92 36.69,0.86 36.65,0.80 36.64,0.73 36.62,0.67 36.63,0.60 36.64,0.53 36.67,0.47 36.70,0.40 36.74,0.36 36.79,0.31 36.85,0.27 36.91,0.24 36.98,0.23 37.05,0.22 37.12,0.23 37.18,0.24 37.24,0.27 37.31,0.31 37.35,0.36 37.40,0.41 37.43,0.47 37.46,0.53 37.46,0.60 37.47,0.67 37.46,0.74 37.44,0.80 37.41,0.86 37.37,0.92 37.32,0.96 37.26,1.01 37.20,1.03 37.14,1.06 37.07,1.06 37.00,1.07 37.00,1.07 37.00,1.07 33.74,1.04 30.48,1.02 29.05,0.35 27.62,-0.31 26.81,-1.10 26.01,-1.89 25.22,-2.65 24.44,-3.40 23.68,-4.11 22.92,-4.81 22.23,-5.37 21.54,-5.94 21.03,-6.29 20.52,-6.64 19.94,-6.48 19.37,-6.32 18.61,-5.86 17.86,-5.39 17.12,-4.83 16.38,-4.26 15.56,-3.34 14.75,-2.42 13.83,-1.22 12.91,-0.03 11.93,1.03 10.95,2.09 10.15,3.12 9.34,4.14 8.63,4.80 7.92,5.46 7.11,5.96 6.31,6.46 5.41,6.40 4.51,6.33 3.89,6.10 3.27,5.88 2.44,5.30 1.61,4.72 1.10,3.74 0.59,2.76 0.01,1.55 -0.56,0.33 -0.59,0.26 -0.62,0.19 -0.63,0.11 -0.65,0.03 -0.64,-0.04 -0.64,-0.12 -0.61,-0.19 -0.59,-0.27 -0.55,-0.33 -0.51,-0.40 -0.45,-0.46 -0.40,-0.51 -0.33,-0.55 -0.26,-0.59 -0.19,-0.62 -0.11,-0.64 -0.03,-0.64 0.04,-0.65 0.11,-0.63 0.19,-0.62 0.26,-0.59 0.34,-0.55 0.40,-0.50 0.46,-0.46 0.51,-0.39 0.56,-0.33 0.56,-0.33 L 0.56,-0.33 Z"/></g><g transform="translate(666.8000183105469 161.1999969482422) rotate(0 -5.20001220703125 19.600006103515625)" stroke="none"><path fill="#000000" d="M 0,0.59 Q 0,0.59 -1.37,0.75 -2.74,0.91 -3.84,1.38 -4.94,1.85 -5.98,2.91 -7.02,3.96 -8.34,5.98 -9.67,8.00 -10.64,10.41 -11.61,12.82 -12.47,15.46 -13.32,18.09 -13.66,20.72 -13.99,23.34 -13.90,25.53 -13.82,27.73 -13.56,29.31 -13.31,30.89 -12.99,32.21 -12.67,33.53 -12.19,34.11 -11.70,34.69 -10.88,35.38 -10.06,36.08 -8.94,36.59 -7.82,37.10 -6.30,37.39 -4.77,37.69 -0.56,37.54 3.64,37.40 3.71,37.40 3.78,37.40 3.84,37.43 3.91,37.45 3.96,37.50 4.01,37.54 4.05,37.60 4.09,37.66 4.10,37.73 4.12,37.79 4.11,37.86 4.10,37.93 4.08,37.99 4.05,38.05 4.00,38.10 3.95,38.15 3.89,38.19 3.83,38.22 3.76,38.23 3.70,38.24 3.63,38.23 3.56,38.22 3.50,38.19 3.44,38.16 3.39,38.11 3.34,38.06 3.31,38.00 3.28,37.94 3.28,37.87 3.27,37.80 3.28,37.73 3.30,37.66 3.33,37.61 3.37,37.55 3.42,37.50 3.47,37.46 3.53,37.43 3.60,37.40 3.67,37.40 3.74,37.40 3.80,37.41 3.87,37.43 3.93,37.47 3.98,37.51 4.02,37.56 4.07,37.62 4.09,37.68 4.11,37.75 4.11,37.82 4.11,37.88 4.09,37.95 4.07,38.01 4.03,38.07 3.99,38.12 3.93,38.16 3.87,38.20 3.81,38.22 3.74,38.24 3.74,38.24 3.74,38.24 -0.66,39.11 -5.08,39.98 -6.98,39.78 -8.88,39.59 -10.40,38.95 -11.93,38.32 -13.00,37.39 -14.08,36.46 -14.80,35.38 -15.52,34.31 -15.88,32.83 -16.24,31.35 -16.50,29.58 -16.76,27.81 -16.81,25.38 -16.85,22.94 -16.40,20.07 -15.96,17.20 -14.98,14.50 -14.01,11.79 -12.83,9.21 -11.66,6.63 -10.09,4.48 -8.52,2.33 -7.10,1.15 -5.68,-0.01 -4.22,-0.46 -2.77,-0.91 -1.38,-0.75 0,-0.59 0.07,-0.58 0.14,-0.57 0.20,-0.54 0.27,-0.52 0.33,-0.48 0.39,-0.44 0.43,-0.38 0.48,-0.33 0.52,-0.27 0.55,-0.20 0.57,-0.14 0.58,-0.07 0.58,0.00 0.58,0.07 0.57,0.14 0.55,0.20 0.52,0.27 0.48,0.33 0.43,0.38 0.39,0.44 0.33,0.48 0.27,0.52 0.20,0.54 0.14,0.57 0.07,0.58 -0.00,0.59 -0.00,0.59 L 0,0.59 Z"/></g><g transform="translate(683.6000061035156 180.40000915527344) rotate(0 5.199981689453125 5.1999969482421875)" stroke="none"><path fill="#000000" d="M 0.69,0.34 Q 0.69,0.34 0.09,1.77 -0.49,3.20 -0.97,4.26 -1.44,5.32 -1.58,6.32 -1.72,7.32 -1.56,8.32 -1.40,9.31 -0.91,10.32 -0.43,11.34 0.15,12.16 0.73,12.98 1.48,13.20 2.23,13.43 3.29,13.82 4.35,14.21 5.28,14.11 6.21,14.02 7.03,13.79 7.85,13.55 8.80,13.05 9.75,12.55 10.25,11.78 10.75,11.02 11.21,10.04 11.67,9.06 11.84,8.06 12.02,7.06 12.10,5.95 12.19,4.84 12.01,3.82 11.83,2.80 11.14,1.83 10.45,0.86 9.71,-0.03 8.97,-0.93 8.09,-1.43 7.21,-1.93 6.33,-2.40 5.45,-2.86 4.61,-3.27 3.77,-3.68 3.88,-4.50 3.99,-5.32 4.42,-3.48 4.85,-1.64 4.87,-1.57 4.89,-1.51 4.89,-1.44 4.89,-1.37 4.87,-1.31 4.84,-1.24 4.80,-1.19 4.76,-1.13 4.70,-1.10 4.64,-1.06 4.57,-1.04 4.51,-1.03 4.44,-1.03 4.37,-1.04 4.31,-1.07 4.24,-1.09 4.19,-1.14 4.14,-1.19 4.11,-1.25 4.07,-1.31 4.06,-1.37 4.05,-1.44 4.06,-1.51 4.07,-1.58 4.10,-1.64 4.13,-1.70 4.18,-1.75 4.23,-1.80 4.29,-1.83 4.35,-1.86 4.42,-1.87 4.49,-1.88 4.55,-1.86 4.62,-1.85 4.68,-1.82 4.74,-1.78 4.79,-1.73 4.83,-1.68 4.86,-1.62 4.89,-1.55 4.89,-1.48 4.90,-1.42 4.88,-1.35 4.86,-1.28 4.83,-1.22 4.79,-1.17 4.73,-1.12 4.68,-1.08 4.62,-1.06 4.55,-1.03 4.48,-1.03 4.41,-1.03 4.35,-1.05 4.28,-1.07 4.23,-1.11 4.17,-1.15 4.13,-1.21 4.09,-1.26 4.09,-1.26 4.09,-1.26 2.81,-2.99 1.53,-4.71 2.42,-5.69 3.30,-6.66 4.20,-6.43 5.10,-6.20 5.94,-5.72 6.79,-5.24 7.70,-4.70 8.61,-4.16 9.78,-3.38 10.95,-2.60 11.78,-1.56 12.62,-0.52 13.47,0.89 14.32,2.31 14.52,3.67 14.72,5.03 14.62,6.29 14.51,7.54 14.24,8.84 13.96,10.14 13.37,11.33 12.78,12.53 11.89,13.62 11.00,14.72 9.76,15.36 8.52,15.99 7.43,16.27 6.35,16.54 4.96,16.56 3.57,16.59 2.41,16.17 1.26,15.75 0.06,15.15 -1.14,14.56 -1.92,13.45 -2.69,12.34 -3.25,10.98 -3.80,9.62 -3.90,8.26 -4.01,6.91 -3.70,5.64 -3.40,4.37 -2.83,3.34 -2.26,2.31 -1.47,0.98 -0.69,-0.34 -0.64,-0.42 -0.58,-0.50 -0.52,-0.56 -0.45,-0.62 -0.37,-0.67 -0.28,-0.71 -0.19,-0.74 -0.10,-0.76 -0.01,-0.76 0.07,-0.76 0.16,-0.74 0.26,-0.72 0.34,-0.68 0.42,-0.64 0.49,-0.58 0.56,-0.52 0.62,-0.44 0.67,-0.37 0.71,-0.28 0.74,-0.19 0.76,-0.10 0.77,-0.01 0.76,0.07 0.75,0.17 0.72,0.25 0.69,0.34 0.69,0.34 L 0.69,0.34 Z"/></g><g transform="translate(716.4000549316406 193.99998474121094) rotate(0 0.799957275390625 -11.599990844726562)" stroke="none"><path fill="#000000" d="M -0.27,-0.54 Q -0.27,-0.54 1.02,-1.39 2.32,-2.25 3.08,-2.77 3.83,-3.29 4.35,-3.72 4.86,-4.15 5.39,-4.67 5.92,-5.19 5.83,-5.93 5.74,-6.66 5.34,-7.67 4.94,-8.69 3.86,-9.18 2.77,-9.68 1.60,-10.18 0.43,-10.69 -0.65,-11.43 -1.75,-12.17 -2.65,-12.34 -3.55,-12.51 -4.41,-12.90 -5.26,-13.29 -5.92,-13.74 -6.58,-14.19 -7.04,-14.80 -7.49,-15.42 -7.63,-16.23 -7.77,-17.04 -7.27,-18.12 -6.76,-19.19 -5.95,-19.87 -5.14,-20.55 -3.65,-21.49 -2.16,-22.42 -1.04,-23.03 0.07,-23.64 1.44,-23.91 2.82,-24.17 4.98,-23.53 7.15,-22.89 7.21,-22.88 7.28,-22.86 7.34,-22.82 7.40,-22.79 7.44,-22.73 7.48,-22.68 7.51,-22.61 7.53,-22.55 7.53,-22.48 7.53,-22.41 7.51,-22.35 7.49,-22.28 7.45,-22.22 7.41,-22.17 7.36,-22.13 7.30,-22.09 7.23,-22.07 7.17,-22.05 7.10,-22.05 7.03,-22.05 6.97,-22.08 6.90,-22.10 6.85,-22.14 6.79,-22.19 6.76,-22.25 6.72,-22.30 6.70,-22.37 6.69,-22.44 6.69,-22.51 6.70,-22.57 6.73,-22.64 6.75,-22.70 6.80,-22.75 6.85,-22.80 6.91,-22.84 6.97,-22.87 7.03,-22.88 7.10,-22.89 7.17,-22.89 7.24,-22.88 7.30,-22.84 7.36,-22.81 7.41,-22.77 7.46,-22.72 7.49,-22.65 7.52,-22.59 7.53,-22.53 7.54,-22.46 7.52,-22.39 7.51,-22.32 7.48,-22.26 7.44,-22.20 7.39,-22.16 7.34,-22.11 7.28,-22.08 7.21,-22.06 7.14,-22.05 7.08,-22.05 7.08,-22.05 7.08,-22.05 5.24,-21.75 3.40,-21.45 2.49,-21.19 1.58,-20.93 0.57,-20.32 -0.43,-19.70 -1.78,-18.83 -3.13,-17.97 -3.88,-17.49 -4.64,-17.01 -4.25,-16.53 -3.86,-16.04 -3.31,-15.72 -2.76,-15.40 -1.45,-14.98 -0.13,-14.56 0.73,-13.90 1.60,-13.25 2.90,-12.64 4.19,-12.03 5.67,-10.97 7.14,-9.92 7.51,-9.04 7.88,-8.15 8.05,-7.27 8.23,-6.38 7.57,-4.97 6.92,-3.55 6.57,-3.03 6.22,-2.50 5.58,-2.03 4.94,-1.56 4.07,-1.03 3.19,-0.50 1.73,0.01 0.27,0.54 0.20,0.57 0.13,0.59 0.06,0.60 -0.01,0.61 -0.08,0.60 -0.15,0.58 -0.22,0.56 -0.29,0.53 -0.35,0.49 -0.41,0.44 -0.46,0.39 -0.50,0.33 -0.54,0.27 -0.57,0.20 -0.59,0.13 -0.60,0.06 -0.60,-0.01 -0.60,-0.08 -0.58,-0.15 -0.56,-0.22 -0.53,-0.29 -0.49,-0.35 -0.44,-0.41 -0.39,-0.46 -0.33,-0.50 -0.27,-0.54 -0.27,-0.54 L -0.27,-0.54 Z"/></g><g transform="translate(462.8000183105469 345.2000274658203) rotate(0 11.5999755859375 -14.000030517578125)" stroke="none"><path fill="#000000" d="M 0.18,-0.63 Q 0.18,-0.63 1.80,-0.23 3.43,0.16 4.75,0.34 6.08,0.51 7.55,0.58 9.02,0.64 10.56,0.67 12.10,0.69 13.56,0.25 15.02,-0.18 16.35,-0.61 17.69,-1.03 18.79,-2.06 19.89,-3.10 20.58,-3.98 21.28,-4.86 21.50,-5.36 21.73,-5.86 21.18,-6.51 20.64,-7.17 19.80,-7.77 18.96,-8.37 17.89,-9.09 16.83,-9.80 15.76,-10.28 14.70,-10.76 13.46,-11.46 12.23,-12.17 11.18,-12.96 10.13,-13.76 9.21,-14.56 8.30,-15.36 7.58,-16.27 6.87,-17.19 6.49,-18.73 6.10,-20.27 6.23,-21.51 6.35,-22.75 6.96,-23.90 7.56,-25.05 8.61,-26.05 9.66,-27.04 10.82,-27.87 11.98,-28.71 13.80,-29.30 15.61,-29.90 18.73,-29.88 21.85,-29.86 21.92,-29.86 21.99,-29.86 22.05,-29.83 22.11,-29.81 22.17,-29.76 22.22,-29.72 22.26,-29.66 22.29,-29.60 22.31,-29.54 22.32,-29.47 22.32,-29.40 22.31,-29.33 22.28,-29.27 22.25,-29.21 22.21,-29.16 22.16,-29.11 22.10,-29.07 22.04,-29.04 21.97,-29.03 21.90,-29.02 21.84,-29.03 21.77,-29.04 21.71,-29.07 21.64,-29.10 21.60,-29.15 21.55,-29.20 21.52,-29.26 21.49,-29.32 21.48,-29.39 21.47,-29.46 21.49,-29.53 21.50,-29.59 21.54,-29.65 21.57,-29.71 21.62,-29.76 21.68,-29.80 21.74,-29.83 21.80,-29.86 21.87,-29.86 21.94,-29.86 22.01,-29.85 22.07,-29.83 22.13,-29.79 22.19,-29.75 22.23,-29.70 22.27,-29.64 22.29,-29.58 22.32,-29.51 22.32,-29.45 22.32,-29.38 22.30,-29.31 22.28,-29.25 22.24,-29.19 22.19,-29.14 22.14,-29.10 22.08,-29.06 22.01,-29.04 21.95,-29.02 21.95,-29.02 21.95,-29.02 19.19,-28.30 16.43,-27.59 15.03,-27.03 13.63,-26.47 12.64,-25.68 11.65,-24.88 10.88,-24.20 10.11,-23.53 9.70,-22.91 9.28,-22.30 9.16,-21.55 9.04,-20.81 9.17,-19.84 9.29,-18.86 9.78,-18.19 10.26,-17.52 11.08,-16.76 11.90,-16.00 12.77,-15.29 13.64,-14.57 14.76,-13.89 15.88,-13.21 17.11,-12.58 18.34,-11.96 19.42,-11.17 20.50,-10.39 21.46,-9.61 22.43,-8.83 23.03,-8.01 23.63,-7.19 23.66,-6.14 23.70,-5.08 23.27,-4.33 22.84,-3.59 21.99,-2.62 21.15,-1.65 19.71,-0.49 18.28,0.67 16.88,1.08 15.49,1.50 13.79,1.95 12.08,2.39 10.50,2.35 8.93,2.30 7.39,2.20 5.85,2.11 4.43,1.89 3.00,1.67 1.41,1.15 -0.18,0.63 -0.25,0.60 -0.32,0.57 -0.39,0.52 -0.45,0.47 -0.50,0.41 -0.55,0.35 -0.59,0.28 -0.62,0.21 -0.64,0.13 -0.65,0.05 -0.65,-0.02 -0.65,-0.10 -0.63,-0.18 -0.60,-0.25 -0.56,-0.32 -0.52,-0.39 -0.47,-0.45 -0.41,-0.50 -0.35,-0.55 -0.28,-0.59 -0.20,-0.62 -0.13,-0.64 -0.05,-0.65 0.02,-0.65 0.10,-0.64 0.18,-0.63 0.18,-0.63 L 0.18,-0.63 Z"/></g><g transform="translate(505.1999816894531 330.8000030517578) rotate(0 -0.399993896484375 4.79998779296875)" stroke="none"><path fill="#000000" d="M 0.68,0 Q 0.68,0 0.78,1.14 0.88,2.29 1.15,3.12 1.42,3.96 1.56,4.63 1.70,5.30 1.78,6.08 1.85,6.85 1.88,7.41 1.92,7.96 1.93,8.42 1.95,8.88 1.94,9.02 1.92,9.16 1.88,9.29 1.83,9.42 1.76,9.54 1.68,9.66 1.58,9.76 1.48,9.85 1.35,9.92 1.23,9.99 1.10,10.03 0.96,10.07 0.82,10.07 0.68,10.08 0.54,10.05 0.41,10.02 0.28,9.96 0.15,9.90 0.05,9.81 -0.05,9.72 -0.14,9.60 -0.22,9.49 -0.27,9.36 -0.33,9.23 -0.35,9.09 -0.37,8.95 -0.38,7.97 -0.39,6.98 -1.02,4.16 -1.65,1.34 -1.66,1.27 -1.67,1.20 -1.66,1.13 -1.64,1.06 -1.61,1.01 -1.57,0.95 -1.52,0.90 -1.47,0.86 -1.40,0.83 -1.34,0.80 -1.27,0.80 -1.20,0.80 -1.14,0.81 -1.07,0.83 -1.01,0.87 -0.95,0.91 -0.91,0.96 -0.87,1.02 -0.85,1.08 -0.83,1.15 -0.83,1.22 -0.82,1.28 -0.85,1.35 -0.87,1.41 -0.91,1.47 -0.95,1.52 -1.01,1.56 -1.06,1.60 -1.13,1.62 -1.20,1.64 -1.26,1.64 -1.33,1.63 -1.40,1.61 -1.46,1.58 -1.51,1.54 -1.57,1.50 -1.60,1.44 -1.64,1.38 -1.65,1.31 -1.67,1.24 -1.66,1.18 -1.66,1.11 -1.63,1.05 -1.60,0.98 -1.55,0.93 -1.50,0.88 -1.44,0.85 -1.38,0.82 -1.32,0.81 -1.25,0.79 -1.18,0.80 -1.11,0.81 -1.05,0.85 -0.99,0.88 -0.94,0.93 -0.89,0.98 -0.87,1.04 -0.84,1.10 -0.84,1.10 -0.84,1.10 0.11,3.83 1.06,6.56 1.51,7.72 1.95,8.88 1.94,9.02 1.92,9.16 1.88,9.29 1.83,9.42 1.76,9.54 1.68,9.66 1.58,9.76 1.48,9.85 1.35,9.92 1.23,9.99 1.10,10.03 0.96,10.07 0.82,10.07 0.68,10.08 0.54,10.05 0.41,10.02 0.28,9.96 0.15,9.90 0.05,9.81 -0.05,9.72 -0.14,9.60 -0.22,9.49 -0.27,9.36 -0.33,9.23 -0.35,9.09 -0.37,8.95 -0.37,7.97 -0.37,6.98 -0.38,6.30 -0.39,5.62 -0.44,5.02 -0.50,4.43 -0.69,3.36 -0.88,2.30 -0.78,1.15 -0.68,0 -0.67,-0.08 -0.66,-0.16 -0.63,-0.24 -0.60,-0.31 -0.55,-0.38 -0.51,-0.45 -0.45,-0.50 -0.38,-0.56 -0.31,-0.60 -0.24,-0.63 -0.16,-0.65 -0.08,-0.67 0.00,-0.67 0.08,-0.67 0.16,-0.65 0.24,-0.63 0.31,-0.60 0.38,-0.56 0.45,-0.50 0.51,-0.45 0.55,-0.38 0.60,-0.31 0.63,-0.24 0.66,-0.16 0.67,-0.08 0.68,0.00 0.68,0.00 L 0.68,0 Z"/></g><g transform="translate(499.6000061035156 309.99998474121094) rotate(0 -0.399993896484375 -4)" stroke="none"><path fill="#000000" d="M -0.62,0 Q -0.62,0 -0.66,-1.15 -0.71,-2.3 -0.74,-3.24 -0.76,-4.18 -1.00,-4.68 -1.23,-5.18 -1.21,-5.46 -1.19,-5.75 -1.20,-5.80 -1.21,-5.85 -1.21,-5.90 -1.21,-5.95 -1.20,-6.00 -1.19,-6.05 -1.16,-6.10 -1.14,-6.14 -1.10,-6.18 -1.07,-6.22 -1.03,-6.25 -0.98,-6.27 -0.93,-6.29 -0.89,-6.31 -0.84,-6.31 -0.78,-6.32 -0.73,-6.31 -0.68,-6.31 -0.64,-6.29 -0.59,-6.27 -0.55,-6.24 -0.50,-6.21 -0.47,-6.17 -0.44,-6.13 -0.41,-6.09 -0.39,-6.04 -0.39,-5.90 -0.39,-5.75 -0.42,-5.69 -0.46,-5.63 -0.51,-5.59 -0.56,-5.54 -0.62,-5.51 -0.68,-5.48 -0.75,-5.48 -0.82,-5.47 -0.89,-5.49 -0.95,-5.50 -1.01,-5.54 -1.07,-5.58 -1.11,-5.63 -1.16,-5.68 -1.18,-5.75 -1.21,-5.81 -1.21,-5.88 -1.21,-5.95 -1.19,-6.01 -1.17,-6.08 -1.13,-6.14 -1.09,-6.19 -1.04,-6.23 -0.98,-6.27 -0.92,-6.29 -0.85,-6.32 -0.78,-6.31 -0.71,-6.31 -0.65,-6.29 -0.59,-6.27 -0.53,-6.23 -0.48,-6.18 -0.44,-6.13 -0.40,-6.07 -0.38,-6.00 -0.37,-5.93 -0.37,-5.87 -0.38,-5.80 -0.40,-5.73 -0.43,-5.67 -0.47,-5.62 -0.52,-5.57 -0.58,-5.53 -0.64,-5.50 -0.71,-5.48 -0.77,-5.47 -0.84,-5.48 -0.91,-5.49 -0.97,-5.52 -1.03,-5.55 -1.08,-5.60 -1.13,-5.64 -1.16,-5.70 -1.20,-5.77 -1.21,-5.83 -1.22,-5.90 -1.20,-5.83 -1.19,-5.75 -1.20,-5.80 -1.21,-5.85 -1.21,-5.90 -1.21,-5.95 -1.20,-6.00 -1.19,-6.05 -1.16,-6.10 -1.14,-6.14 -1.10,-6.18 -1.07,-6.22 -1.03,-6.25 -0.98,-6.27 -0.93,-6.29 -0.89,-6.31 -0.84,-6.31 -0.78,-6.32 -0.73,-6.31 -0.68,-6.31 -0.64,-6.29 -0.59,-6.27 -0.55,-6.24 -0.50,-6.21 -0.47,-6.17 -0.44,-6.13 -0.41,-6.09 -0.39,-6.04 -0.04,-5.89 0.31,-5.74 0.54,-4.97 0.76,-4.21 0.74,-3.25 0.71,-2.3 0.66,-1.15 0.62,0 0.61,0.07 0.60,0.14 0.57,0.21 0.54,0.28 0.50,0.34 0.46,0.41 0.40,0.46 0.35,0.51 0.28,0.54 0.22,0.58 0.14,0.59 0.07,0.61 -0.00,0.61 -0.07,0.61 -0.14,0.59 -0.22,0.58 -0.28,0.54 -0.35,0.51 -0.40,0.46 -0.46,0.41 -0.50,0.34 -0.54,0.28 -0.57,0.21 -0.60,0.14 -0.61,0.07 -0.62,-0.00 -0.62,-0.00 L -0.62,0 Z"/></g><g transform="translate(514.8000183105469 331.59999084472656) rotate(0 11.199981689453125 -0.79998779296875)" stroke="none"><path fill="#000000" d="M 0.57,-0.38 Q 0.57,-0.38 1.64,0.89 2.72,2.16 3.26,2.63 3.80,3.11 4.38,2.94 4.97,2.76 5.69,2.37 6.40,1.97 6.77,1.47 7.14,0.98 7.80,0.06 8.45,-0.85 9.24,-1.76 10.03,-2.66 10.54,-3.42 11.05,-4.19 11.55,-4.81 12.05,-5.43 12.82,-6.01 13.59,-6.58 14.22,-6.84 14.84,-7.11 15.73,-7.08 16.62,-7.04 17.74,-5.62 18.86,-4.20 19.31,-3.06 19.76,-1.92 20.14,-1.06 20.53,-0.20 20.88,0.31 21.23,0.83 21.95,2.21 22.66,3.60 22.69,3.66 22.71,3.73 22.71,3.79 22.71,3.86 22.69,3.93 22.66,3.99 22.62,4.05 22.58,4.10 22.52,4.14 22.47,4.18 22.40,4.20 22.34,4.22 22.27,4.21 22.20,4.21 22.13,4.18 22.07,4.16 22.02,4.12 21.96,4.07 21.93,4.01 21.89,3.95 21.88,3.89 21.86,3.82 21.87,3.75 21.88,3.68 21.91,3.62 21.94,3.56 21.98,3.51 22.03,3.46 22.09,3.42 22.15,3.39 22.22,3.38 22.29,3.37 22.36,3.38 22.42,3.39 22.48,3.42 22.55,3.46 22.59,3.51 22.64,3.56 22.67,3.62 22.70,3.68 22.71,3.75 22.71,3.82 22.70,3.88 22.68,3.95 22.65,4.01 22.61,4.07 22.56,4.11 22.51,4.16 22.44,4.18 22.38,4.21 22.31,4.21 22.24,4.22 22.18,4.20 22.11,4.18 22.05,4.14 22.00,4.10 21.95,4.05 21.91,3.99 21.91,3.99 21.91,3.99 20.55,3.07 19.19,2.15 18.75,1.45 18.31,0.75 17.92,-0.18 17.53,-1.11 17.23,-2.04 16.93,-2.96 15.90,-3.88 14.86,-4.80 14.31,-4.42 13.77,-4.04 13.34,-3.49 12.92,-2.95 12.33,-2.06 11.74,-1.17 11.03,-0.34 10.32,0.47 9.61,1.46 8.90,2.45 8.23,3.20 7.55,3.94 6.89,4.31 6.23,4.67 5.39,5.06 4.54,5.44 3.45,5.10 2.36,4.75 1.65,4.05 0.95,3.35 0.19,1.86 -0.57,0.38 -0.61,0.30 -0.65,0.23 -0.67,0.15 -0.68,0.07 -0.68,-0.01 -0.68,-0.09 -0.66,-0.17 -0.64,-0.25 -0.60,-0.32 -0.56,-0.40 -0.50,-0.46 -0.45,-0.52 -0.38,-0.57 -0.31,-0.61 -0.23,-0.64 -0.15,-0.67 -0.07,-0.68 0.01,-0.69 0.09,-0.68 0.17,-0.66 0.25,-0.63 0.33,-0.60 0.39,-0.55 0.46,-0.51 0.52,-0.44 0.57,-0.38 0.57,-0.38 L 0.57,-0.38 Z"/></g><g transform="translate(431.6000061035156 344.3999786376953) rotate(0 13.600006103515625 -2.79998779296875)" stroke="none"><path fill="#000000" d="M -0.11,-0.71 Q -0.11,-0.71 1.24,-1.05 2.60,-1.38 4.33,-1.72 6.05,-2.06 8.17,-2.44 10.30,-2.82 12.58,-3.21 14.86,-3.60 17.16,-4.22 19.47,-4.83 22.61,-5.26 25.75,-5.70 25.82,-5.70 25.89,-5.71 25.95,-5.69 26.02,-5.67 26.08,-5.63 26.13,-5.60 26.18,-5.54 26.22,-5.49 26.24,-5.42 26.26,-5.36 26.26,-5.29 26.27,-5.22 26.24,-5.15 26.22,-5.09 26.18,-5.03 26.14,-4.98 26.08,-4.94 26.03,-4.90 25.96,-4.88 25.90,-4.86 25.83,-4.86 25.76,-4.87 25.69,-4.89 25.63,-4.92 25.58,-4.96 25.52,-5.01 25.49,-5.06 25.45,-5.12 25.44,-5.19 25.42,-5.26 25.43,-5.32 25.43,-5.39 25.46,-5.46 25.49,-5.52 25.54,-5.57 25.58,-5.62 25.65,-5.65 25.71,-5.69 25.77,-5.70 25.84,-5.71 25.91,-5.70 25.98,-5.69 26.04,-5.66 26.10,-5.62 26.15,-5.58 26.19,-5.53 26.22,-5.46 26.25,-5.40 26.26,-5.33 26.27,-5.26 26.26,-5.20 26.24,-5.13 26.21,-5.07 26.17,-5.01 26.12,-4.97 26.07,-4.92 26.00,-4.90 25.94,-4.87 25.94,-4.87 25.94,-4.87 22.96,-3.89 19.98,-2.91 17.58,-2.28 15.19,-1.65 12.91,-1.26 10.63,-0.88 8.52,-0.52 6.41,-0.16 4.66,0.14 2.91,0.46 1.51,0.59 0.11,0.71 0.03,0.72 -0.05,0.72 -0.14,0.70 -0.22,0.69 -0.30,0.65 -0.38,0.61 -0.45,0.56 -0.52,0.50 -0.57,0.43 -0.62,0.36 -0.66,0.28 -0.69,0.20 -0.71,0.11 -0.72,0.03 -0.72,-0.05 -0.71,-0.14 -0.68,-0.22 -0.65,-0.30 -0.61,-0.38 -0.56,-0.45 -0.50,-0.51 -0.44,-0.58 -0.36,-0.62 -0.28,-0.66 -0.20,-0.69 -0.11,-0.71 -0.11,-0.71 L -0.11,-0.71 Z"/></g><g transform="translate(257.1999816894531 202.8000030517578) rotate(0 12.800018310546875 -1.600006103515625)" stroke="none"><path fill="#000000" d="M -0.08,-0.65 Q -0.08,-0.65 1.73,-1.04 3.55,-1.43 5.75,-1.54 7.95,-1.64 10.22,-1.91 12.48,-2.18 14.82,-2.52 17.17,-2.86 20.60,-3.12 24.03,-3.38 24.10,-3.38 24.17,-3.38 24.23,-3.35 24.30,-3.33 24.35,-3.29 24.41,-3.25 24.45,-3.19 24.49,-3.13 24.50,-3.07 24.52,-3.00 24.52,-2.93 24.51,-2.86 24.49,-2.80 24.46,-2.74 24.42,-2.68 24.37,-2.63 24.31,-2.60 24.25,-2.56 24.19,-2.55 24.12,-2.53 24.05,-2.54 23.98,-2.55 23.92,-2.58 23.86,-2.61 23.81,-2.66 23.76,-2.70 23.73,-2.76 23.70,-2.82 23.68,-2.89 23.67,-2.96 23.69,-3.03 23.70,-3.10 23.73,-3.16 23.76,-3.22 23.81,-3.26 23.86,-3.31 23.92,-3.34 23.99,-3.37 24.06,-3.38 24.12,-3.38 24.19,-3.37 24.26,-3.35 24.32,-3.32 24.38,-3.28 24.42,-3.23 24.46,-3.18 24.49,-3.11 24.51,-3.05 24.52,-2.98 24.52,-2.91 24.50,-2.84 24.48,-2.78 24.44,-2.72 24.41,-2.66 24.35,-2.62 24.30,-2.58 24.23,-2.56 24.16,-2.54 24.17,-2.54 24.17,-2.54 20.81,-1.72 17.45,-0.91 15.08,-0.56 12.71,-0.21 10.38,0.06 8.04,0.33 5.92,0.42 3.80,0.51 1.94,0.58 0.08,0.65 0.00,0.65 -0.07,0.65 -0.15,0.63 -0.23,0.61 -0.30,0.57 -0.37,0.54 -0.43,0.49 -0.49,0.43 -0.53,0.37 -0.58,0.30 -0.60,0.23 -0.63,0.15 -0.64,0.08 -0.65,0.00 -0.64,-0.07 -0.63,-0.15 -0.61,-0.22 -0.58,-0.30 -0.53,-0.36 -0.49,-0.43 -0.43,-0.48 -0.37,-0.54 -0.30,-0.57 -0.23,-0.61 -0.15,-0.63 -0.08,-0.65 -0.08,-0.65 L -0.08,-0.65 Z"/></g><g transform="translate(301.9999694824219 190.8000030517578) rotate(0 0.800018310546875 10)" stroke="none"><path fill="#000000" d="M 0.31,0.62 Q 0.31,0.62 -0.97,1.48 -2.26,2.34 -2.94,3.03 -3.62,3.71 -4.10,4.43 -4.59,5.14 -4.99,6.07 -5.38,7.00 -5.79,8.09 -6.19,9.17 -6.33,10.22 -6.48,11.26 -6.55,12.36 -6.62,13.46 -6.23,14.15 -5.85,14.85 -5.46,15.69 -5.06,16.53 -4.56,16.95 -4.06,17.37 -3.26,17.75 -2.46,18.13 -0.89,18.29 0.67,18.45 2.17,18.15 3.66,17.85 6.02,17.00 8.37,16.15 8.44,16.13 8.50,16.11 8.57,16.11 8.64,16.11 8.71,16.13 8.77,16.15 8.83,16.20 8.88,16.24 8.92,16.30 8.96,16.35 8.97,16.42 8.99,16.49 8.99,16.55 8.98,16.62 8.96,16.69 8.93,16.75 8.89,16.80 8.84,16.85 8.78,16.89 8.72,16.92 8.66,16.94 8.59,16.95 8.52,16.94 8.45,16.94 8.39,16.91 8.33,16.88 8.28,16.83 8.23,16.78 8.20,16.72 8.16,16.66 8.15,16.59 8.14,16.52 8.16,16.46 8.17,16.39 8.20,16.33 8.23,16.27 8.28,16.22 8.33,16.17 8.40,16.15 8.46,16.12 8.53,16.11 8.60,16.10 8.66,16.12 8.73,16.13 8.79,16.17 8.85,16.21 8.89,16.26 8.93,16.31 8.96,16.38 8.98,16.44 8.99,16.51 8.99,16.58 8.97,16.64 8.95,16.71 8.91,16.77 8.87,16.82 8.82,16.86 8.76,16.91 8.76,16.91 8.76,16.91 6.46,18.47 4.17,20.04 2.30,20.49 0.43,20.93 -1.56,20.68 -3.57,20.43 -4.68,19.84 -5.80,19.25 -6.57,18.47 -7.35,17.69 -7.77,16.79 -8.20,15.89 -8.67,14.66 -9.14,13.43 -9.06,12.15 -8.97,10.87 -8.75,9.58 -8.52,8.29 -8.06,7.13 -7.60,5.97 -7.05,4.86 -6.50,3.74 -5.83,2.90 -5.16,2.05 -4.20,1.23 -3.25,0.41 -1.78,-0.10 -0.31,-0.62 -0.23,-0.64 -0.15,-0.67 -0.06,-0.68 0.01,-0.69 0.09,-0.68 0.17,-0.67 0.25,-0.63 0.33,-0.60 0.40,-0.55 0.47,-0.51 0.52,-0.44 0.57,-0.38 0.61,-0.30 0.65,-0.23 0.67,-0.15 0.69,-0.07 0.68,0.01 0.68,0.09 0.66,0.17 0.64,0.25 0.60,0.33 0.56,0.40 0.50,0.46 0.44,0.52 0.38,0.57 0.31,0.62 0.31,0.62 L 0.31,0.62 Z"/></g><g transform="translate(325.1999816894531 195.59999084472656) rotate(0 3.60003662109375 -0.399993896484375)" stroke="none"><path fill="#000000" d="M 0.44,0.44 Q 0.44,0.44 -0.03,1.32 -0.50,2.19 -0.66,2.76 -0.81,3.33 -0.73,4.19 -0.65,5.05 1.20,5.43 3.05,5.80 4.10,5.63 5.15,5.46 5.65,5.02 6.16,4.58 6.66,4.15 7.17,3.72 7.52,3.19 7.87,2.66 7.98,2.11 8.08,1.56 8.15,0.91 8.22,0.26 7.75,-0.68 7.29,-1.63 6.50,-2.34 5.70,-3.04 5.17,-3.49 4.63,-3.93 4.04,-4.27 3.46,-4.61 2.88,-5.05 2.31,-5.49 1.72,-5.60 1.14,-5.72 1.58,-5.98 2.02,-6.24 1.97,-6.25 1.92,-6.27 1.88,-6.29 1.83,-6.32 1.80,-6.35 1.76,-6.39 1.73,-6.43 1.71,-6.48 1.69,-6.53 1.67,-6.57 1.67,-6.62 1.67,-6.68 1.68,-6.73 1.68,-6.78 1.70,-6.82 1.73,-6.87 1.76,-6.91 1.79,-6.95 1.83,-6.98 1.87,-7.02 1.91,-7.04 1.96,-7.06 2.01,-7.07 2.06,-7.08 2.11,-7.08 2.16,-7.07 2.31,-6.97 2.46,-6.87 2.48,-6.81 2.51,-6.74 2.51,-6.68 2.51,-6.61 2.49,-6.54 2.48,-6.48 2.44,-6.42 2.40,-6.36 2.34,-6.32 2.29,-6.28 2.22,-6.26 2.16,-6.23 2.09,-6.23 2.02,-6.24 1.96,-6.26 1.89,-6.28 1.84,-6.32 1.78,-6.36 1.74,-6.42 1.70,-6.48 1.69,-6.54 1.67,-6.61 1.67,-6.68 1.68,-6.75 1.70,-6.81 1.73,-6.87 1.77,-6.93 1.82,-6.98 1.88,-7.01 1.93,-7.05 2.00,-7.06 2.07,-7.08 2.14,-7.07 2.21,-7.06 2.27,-7.03 2.33,-7.01 2.38,-6.96 2.43,-6.91 2.46,-6.85 2.49,-6.79 2.51,-6.72 2.52,-6.65 2.50,-6.59 2.49,-6.52 2.46,-6.46 2.43,-6.40 2.38,-6.35 2.33,-6.30 2.27,-6.27 2.20,-6.24 2.14,-6.24 2.07,-6.23 2.00,-6.24 1.93,-6.26 1.87,-6.30 1.82,-6.33 1.92,-6.28 2.02,-6.24 1.97,-6.25 1.92,-6.27 1.88,-6.29 1.83,-6.32 1.80,-6.35 1.76,-6.39 1.73,-6.43 1.71,-6.48 1.69,-6.53 1.67,-6.57 1.67,-6.62 1.67,-6.68 1.68,-6.73 1.68,-6.78 1.70,-6.82 1.73,-6.87 1.76,-6.91 1.79,-6.95 1.83,-6.98 1.87,-7.02 1.91,-7.04 1.96,-7.06 2.01,-7.07 2.06,-7.08 2.11,-7.08 2.16,-7.07 1.93,-7.77 1.70,-8.46 2.23,-8.36 2.76,-8.26 3.38,-7.98 4.00,-7.71 4.46,-7.34 4.91,-6.97 5.66,-6.49 6.41,-6.01 6.86,-5.61 7.30,-5.21 8.05,-4.59 8.80,-3.98 9.21,-3.34 9.63,-2.69 9.96,-1.94 10.28,-1.19 10.50,-0.38 10.72,0.42 10.62,1.32 10.52,2.21 10.24,3.14 9.95,4.06 9.38,4.85 8.80,5.63 8.22,6.12 7.64,6.61 6.65,7.25 5.66,7.89 4.29,8.10 2.93,8.31 0.90,8.13 -1.11,7.95 -1.70,7.53 -2.28,7.10 -2.67,6.39 -3.06,5.69 -3.24,4.73 -3.42,3.77 -3.27,3.10 -3.11,2.44 -2.68,1.50 -2.25,0.56 -1.34,0.05 -0.44,-0.44 -0.38,-0.49 -0.32,-0.54 -0.25,-0.57 -0.18,-0.60 -0.11,-0.61 -0.03,-0.63 0.03,-0.62 0.11,-0.62 0.18,-0.59 0.25,-0.57 0.32,-0.53 0.38,-0.49 0.44,-0.44 0.49,-0.38 0.53,-0.32 0.57,-0.25 0.59,-0.18 0.62,-0.11 0.62,-0.03 0.63,0.03 0.61,0.11 0.60,0.18 0.57,0.25 0.54,0.32 0.49,0.38 0.44,0.44 0.44,0.44 L 0.44,0.44 Z"/></g><g transform="translate(340.3999938964844 197.99998474121094) rotate(0 6 -10.399978637695312)" stroke="none"><path fill="#000000" d="M 0.09,-0.63 Q 0.09,-0.63 1.71,-0.52 3.34,-0.42 4.68,-0.36 6.02,-0.30 6.95,-0.52 7.87,-0.73 8.68,-1.05 9.50,-1.37 10.30,-1.74 11.09,-2.11 11.55,-2.41 12.00,-2.72 12.11,-3.52 12.22,-4.32 11.30,-5.18 10.38,-6.04 9.57,-6.42 8.77,-6.79 7.90,-7.22 7.02,-7.65 5.90,-8.31 4.78,-8.96 3.72,-9.40 2.66,-9.84 1.68,-10.26 0.71,-10.69 -0.05,-11.17 -0.81,-11.64 -1.30,-12.26 -1.79,-12.87 -2.38,-13.94 -2.97,-15.01 -2.81,-16.07 -2.65,-17.13 -1.98,-18.12 -1.32,-19.12 -0.46,-19.80 0.39,-20.49 1.83,-21.02 3.26,-21.56 4.78,-21.91 6.29,-22.26 8.31,-22.08 10.32,-21.90 10.39,-21.90 10.46,-21.90 10.52,-21.88 10.59,-21.85 10.64,-21.81 10.69,-21.77 10.73,-21.71 10.77,-21.65 10.79,-21.58 10.80,-21.52 10.80,-21.45 10.79,-21.38 10.76,-21.32 10.74,-21.25 10.69,-21.20 10.65,-21.15 10.59,-21.12 10.53,-21.08 10.46,-21.07 10.39,-21.06 10.32,-21.07 10.25,-21.07 10.19,-21.11 10.13,-21.14 10.08,-21.18 10.03,-21.23 10.00,-21.29 9.97,-21.36 9.96,-21.42 9.95,-21.49 9.97,-21.56 9.98,-21.63 10.01,-21.69 10.05,-21.75 10.10,-21.79 10.15,-21.84 10.21,-21.87 10.27,-21.89 10.34,-21.90 10.41,-21.91 10.48,-21.89 10.55,-21.87 10.60,-21.84 10.66,-21.80 10.70,-21.75 10.75,-21.69 10.77,-21.63 10.80,-21.56 10.80,-21.49 10.80,-21.43 10.78,-21.36 10.76,-21.29 10.72,-21.24 10.68,-21.18 10.62,-21.14 10.57,-21.10 10.50,-21.08 10.44,-21.06 10.44,-21.06 10.44,-21.06 8.75,-20.37 7.05,-19.68 5.70,-19.18 4.35,-18.68 3.36,-18.29 2.37,-17.91 1.86,-17.51 1.35,-17.12 0.77,-16.39 0.20,-15.66 0.64,-14.98 1.08,-14.31 1.58,-13.95 2.08,-13.59 2.99,-13.12 3.91,-12.66 5.12,-12.08 6.34,-11.51 7.34,-10.87 8.34,-10.23 9.21,-9.77 10.08,-9.32 11.20,-8.69 12.32,-8.06 12.95,-7.42 13.59,-6.77 14.13,-6.00 14.67,-5.23 14.66,-4.52 14.66,-3.80 14.50,-3.21 14.35,-2.63 13.90,-1.78 13.45,-0.94 12.72,-0.48 12.00,-0.01 11.11,0.34 10.22,0.69 9.23,0.99 8.24,1.29 7.07,1.45 5.90,1.61 4.50,1.48 3.09,1.34 1.50,0.98 -0.09,0.63 -0.16,0.61 -0.23,0.59 -0.30,0.55 -0.37,0.51 -0.42,0.46 -0.48,0.41 -0.52,0.34 -0.57,0.28 -0.59,0.21 -0.62,0.13 -0.63,0.06 -0.63,-0.01 -0.62,-0.08 -0.61,-0.16 -0.58,-0.23 -0.55,-0.30 -0.51,-0.37 -0.46,-0.43 -0.40,-0.48 -0.35,-0.53 -0.28,-0.56 -0.21,-0.60 -0.13,-0.61 -0.06,-0.63 0.01,-0.63 0.09,-0.63 0.09,-0.63 L 0.09,-0.63 Z"/></g></svg>