<svg version="1.1" xmlns="http://www.w3.org/2000/svg" viewBox="0 0 686.3999633789062 744.4666545232137" width="686.3999633789062" height="744.4666545232137" class="excalidraw-svg">
  <!-- svg-source:excalidraw -->
  
  <defs>
    <style class="style-fonts">
      @font-face {
        font-family: "Virgil";
        src: url("https://excalidraw.com/Virgil.woff2");
      }
      @font-face {
        font-family: "Cascadia";
        src: url("https://excalidraw.com/Cascadia.woff2");
      }
      @font-face {
        font-family: "Assistant";
        src: url("https://excalidraw.com/Assistant-Regular.woff2");
      }
    </style>
    
  </defs>
  <rect x="0" y="0" width="686.3999633789062" height="744.4666545232137" fill="#ffffff"/><g transform="translate(450 14) rotate(0 -24 29.599990844726562)" stroke="none"><path fill="#000000" d="M -0.39,0.29 Q -0.39,0.29 -1.18,-0.54 -1.96,-1.39 -2.67,-1.91 -3.38,-2.44 -4.05,-2.61 -4.72,-2.78 -5.64,-2.83 -6.56,-2.89 -7.73,-2.46 -8.90,-2.03 -12.24,-1.12 -15.59,-0.20 -18.57,0.84 -21.55,1.90 -24.46,2.83 -27.37,3.76 -29.72,4.61 -32.08,5.46 -34.03,6.06 -35.99,6.67 -37.23,7.14 -38.48,7.62 -39.57,7.85 -40.66,8.09 -41.18,8.37 -41.69,8.65 -42.58,8.85 -43.47,9.05 -44.02,9.11 -44.56,9.18 -44.71,9.19 -44.87,9.20 -45.02,9.17 -45.18,9.14 -45.32,9.08 -45.46,9.01 -45.58,8.92 -45.70,8.82 -45.80,8.70 -45.90,8.58 -45.96,8.43 -46.02,8.29 -46.05,8.14 -46.08,7.99 -46.07,7.83 -46.06,7.68 -46.01,7.53 -45.97,7.38 -45.89,7.25 -45.81,7.11 -45.70,7.00 -45.59,6.89 -45.45,6.81 -45.32,6.73 -45.17,6.69 -45.02,6.64 -44.05,8.07 -43.08,9.49 -42.56,10.72 -42.03,11.94 -41.10,14.11 -40.16,16.27 -39.28,18.85 -38.40,21.43 -37.77,24.18 -37.15,26.93 -36.64,29.71 -36.13,32.49 -35.90,34.63 -35.67,36.77 -35.56,38.37 -35.45,39.98 -35.40,41.36 -35.34,42.74 -35.32,43.56 -35.29,44.37 -35.29,45.20 -35.28,46.04 -35.55,46.88 -35.83,47.71 -35.93,48.19 -36.02,48.66 -36.11,48.83 -36.20,48.99 -36.33,49.13 -36.45,49.26 -36.60,49.37 -36.76,49.47 -36.93,49.53 -37.11,49.60 -37.29,49.61 -37.48,49.63 -37.66,49.61 -37.84,49.58 -38.02,49.51 -38.19,49.45 -38.34,49.34 -38.49,49.23 -38.61,49.09 -38.73,48.95 -38.82,48.78 -38.90,48.62 -38.94,48.44 -38.98,48.26 -38.98,48.07 -38.98,47.89 -38.93,47.71 -38.88,47.53 -38.78,48.17 -38.69,48.81 -38.89,47.74 -39.10,46.67 -39.09,44.97 -39.07,43.27 -38.57,41.24 -38.07,39.21 -37.37,37.21 -36.67,35.22 -35.87,33.63 -35.06,32.05 -33.94,30.80 -32.81,29.56 -31.08,28.52 -29.35,27.49 -27.17,26.81 -24.99,26.13 -22.44,25.62 -19.90,25.11 -17.34,25.12 -14.78,25.13 -12.75,25.37 -10.72,25.62 -9.26,26.22 -7.80,26.82 -6.67,27.57 -5.55,28.31 -4.53,29.38 -3.51,30.46 -2.76,31.95 -2.01,33.45 -1.66,35.59 -1.32,37.74 -1.64,40.40 -1.97,43.06 -4.01,46.48 -6.05,49.90 -8.12,52.26 -10.18,54.62 -12.27,56.35 -14.37,58.09 -16.74,59.34 -19.12,60.59 -21.26,61.56 -23.39,62.54 -25.79,63.22 -28.18,63.89 -30.42,64.19 -32.65,64.48 -34.53,64.60 -36.40,64.72 -37.89,64.77 -39.38,64.82 -40.76,64.83 -42.15,64.83 -43.34,64.26 -44.52,63.68 -45.47,62.28 -46.42,60.88 -47.15,57.57 -47.89,54.26 -47.90,54.19 -47.92,54.12 -47.91,54.05 -47.90,53.98 -47.87,53.92 -47.84,53.86 -47.79,53.81 -47.75,53.76 -47.69,53.73 -47.62,53.70 -47.56,53.69 -47.49,53.68 -47.42,53.69 -47.35,53.70 -47.29,53.74 -47.23,53.77 -47.19,53.82 -47.14,53.87 -47.11,53.93 -47.08,54.00 -47.08,54.06 -47.07,54.13 -47.09,54.20 -47.10,54.27 -47.14,54.32 -47.17,54.38 -47.23,54.43 -47.28,54.47 -47.34,54.50 -47.41,54.52 -47.48,54.52 -47.55,54.53 -47.61,54.51 -47.68,54.49 -47.73,54.45 -47.79,54.41 -47.83,54.35 -47.87,54.30 -47.89,54.23 -47.91,54.17 -47.91,54.10 -47.91,54.03 -47.89,53.96 -47.87,53.90 -47.82,53.85 -47.78,53.79 -47.72,53.75 -47.67,53.72 -47.60,53.70 -47.53,53.68 -47.47,53.68 -47.40,53.69 -47.33,53.72 -47.27,53.74 -47.22,53.79 -47.17,53.83 -47.13,53.89 -47.10,53.95 -47.10,53.95 -47.10,53.95 -45.56,56.57 -44.02,59.20 -42.99,60.35 -41.96,61.50 -40.72,61.46 -39.49,61.42 -38.05,61.38 -36.61,61.33 -34.85,61.22 -33.08,61.11 -31.09,60.86 -29.09,60.62 -26.94,60.03 -24.79,59.44 -22.74,58.51 -20.68,57.57 -18.60,56.51 -16.51,55.45 -14.61,53.90 -12.71,52.35 -10.78,50.23 -8.86,48.10 -6.92,45.31 -4.98,42.52 -4.61,40.30 -4.24,38.09 -4.41,36.34 -4.58,34.58 -5.04,33.40 -5.51,32.21 -6.27,31.31 -7.02,30.41 -7.91,29.76 -8.81,29.11 -9.93,28.59 -11.05,28.07 -12.93,27.84 -14.80,27.61 -17.12,27.57 -19.43,27.54 -21.84,28.03 -24.26,28.51 -26.18,29.08 -28.10,29.65 -29.52,30.47 -30.95,31.29 -31.83,32.26 -32.71,33.23 -33.38,34.67 -34.05,36.11 -34.66,38.00 -35.27,39.89 -35.68,41.59 -36.10,43.28 -36.24,45.28 -36.38,47.27 -36.20,47.97 -36.02,48.66 -36.11,48.83 -36.20,48.99 -36.33,49.13 -36.45,49.26 -36.60,49.37 -36.76,49.47 -36.93,49.53 -37.11,49.59 -37.29,49.61 -37.48,49.63 -37.66,49.61 -37.84,49.58 -38.02,49.51 -38.19,49.45 -38.34,49.34 -38.49,49.23 -38.61,49.09 -38.73,48.95 -38.82,48.78 -38.90,48.62 -38.94,48.44 -38.98,48.26 -38.98,48.07 -38.98,47.89 -38.93,47.71 -38.88,47.53 -38.61,46.75 -38.33,45.98 -38.34,45.20 -38.34,44.43 -38.35,43.63 -38.36,42.82 -38.38,41.48 -38.40,40.14 -38.46,38.59 -38.53,37.05 -38.71,35.01 -38.89,32.97 -39.34,30.24 -39.80,27.52 -40.36,24.90 -40.92,22.27 -41.74,19.79 -42.57,17.30 -43.49,15.12 -44.41,12.94 -44.99,11.52 -45.58,10.10 -45.07,9.64 -44.56,9.18 -44.71,9.19 -44.87,9.20 -45.02,9.17 -45.18,9.14 -45.32,9.08 -45.46,9.01 -45.58,8.92 -45.70,8.82 -45.80,8.70 -45.90,8.58 -45.96,8.43 -46.02,8.29 -46.05,8.14 -46.08,7.99 -46.07,7.83 -46.06,7.68 -46.01,7.53 -45.97,7.38 -45.89,7.25 -45.81,7.11 -45.70,7.00 -45.59,6.89 -45.45,6.81 -45.32,6.73 -45.17,6.69 -45.02,6.64 -44.48,6.59 -43.93,6.54 -43.34,6.47 -42.75,6.40 -41.96,6.05 -41.16,5.70 -40.24,5.53 -39.32,5.35 -38.01,4.87 -36.69,4.38 -34.78,3.81 -32.87,3.23 -30.47,2.39 -28.06,1.54 -25.18,0.65 -22.29,-0.23 -19.22,-1.29 -16.14,-2.34 -12.82,-3.16 -9.49,-3.98 -7.95,-4.37 -6.41,-4.77 -5.29,-4.60 -4.17,-4.43 -3.27,-4.07 -2.38,-3.71 -1.58,-3.00 -0.79,-2.28 -0.19,-1.29 0.39,-0.29 0.42,-0.24 0.45,-0.19 0.47,-0.13 0.48,-0.07 0.49,-0.01 0.49,0.04 0.48,0.09 0.47,0.15 0.44,0.21 0.41,0.26 0.38,0.31 0.34,0.35 0.29,0.39 0.24,0.42 0.19,0.45 0.13,0.47 0.07,0.48 0.01,0.49 -0.04,0.49 -0.09,0.48 -0.15,0.46 -0.21,0.44 -0.26,0.41 -0.31,0.38 -0.35,0.34 -0.39,0.29 -0.39,0.29 L -0.39,0.29 Z"/></g><g transform="translate(390.79998779296875 74) rotate(0 -55.600006103515625 52.80000305175781)" stroke="none"><path fill="#000000" d="M 0.43,0.32 Q 0.43,0.32 -0.15,1.31 -0.75,2.30 -1.51,3.19 -2.27,4.08 -3.31,4.97 -4.35,5.85 -5.70,6.92 -7.04,7.98 -8.72,9.56 -10.40,11.15 -12.73,13.23 -15.07,15.31 -18.12,18.04 -21.17,20.76 -24.52,23.98 -27.87,27.20 -31.38,30.42 -34.89,33.64 -38.19,37.06 -41.49,40.48 -44.74,43.79 -48.00,47.09 -51.23,50.13 -54.46,53.17 -57.67,56.07 -60.88,58.98 -65.21,62.98 -69.55,66.99 -72.99,70.29 -76.43,73.60 -79.26,76.39 -82.09,79.19 -84.68,81.56 -87.28,83.93 -89.72,86.32 -92.16,88.70 -94.12,90.64 -96.07,92.58 -97.58,94.10 -99.09,95.62 -100.48,96.77 -101.86,97.93 -103.30,99.30 -104.74,100.67 -105.53,101.65 -106.32,102.63 -107.25,103.42 -108.19,104.20 -108.73,104.69 -109.28,105.17 -110.18,105.73 -111.09,106.29 -110.43,105.92 -109.78,105.55 -109.88,105.69 -109.98,105.83 -110.11,105.94 -110.24,106.05 -110.40,106.13 -110.55,106.21 -110.72,106.25 -110.89,106.29 -111.07,106.28 -111.24,106.28 -111.41,106.24 -111.58,106.19 -111.73,106.11 -111.88,106.02 -112.01,105.91 -112.14,105.79 -112.23,105.64 -112.33,105.50 -112.39,105.33 -112.45,105.17 -112.46,105.00 -112.48,104.82 -112.46,104.65 -112.43,104.48 -112.37,104.32 -112.30,104.16 -111.74,103.61 -111.18,103.06 -109.63,101.75 -108.08,100.44 -108.03,100.39 -107.98,100.35 -107.91,100.32 -107.85,100.29 -107.78,100.28 -107.71,100.28 -107.65,100.29 -107.58,100.31 -107.52,100.34 -107.46,100.38 -107.42,100.43 -107.37,100.48 -107.35,100.55 -107.32,100.61 -107.32,100.68 -107.32,100.75 -107.34,100.82 -107.36,100.88 -107.39,100.94 -107.43,100.99 -107.49,101.04 -107.54,101.08 -107.61,101.10 -107.67,101.12 -107.74,101.12 -107.81,101.12 -107.88,101.10 -107.94,101.07 -108.00,101.03 -108.05,100.99 -108.09,100.93 -108.13,100.88 -108.14,100.81 -108.16,100.74 -108.16,100.67 -108.15,100.61 -108.13,100.54 -108.10,100.48 -108.06,100.43 -108.01,100.37 -107.95,100.34 -107.89,100.30 -107.83,100.29 -107.76,100.28 -107.69,100.28 -107.62,100.29 -107.56,100.32 -107.50,100.35 -107.45,100.40 -107.40,100.45 -107.37,100.51 -107.34,100.57 -107.33,100.64 -107.31,100.70 -107.33,100.77 -107.34,100.84 -107.37,100.90 -107.40,100.96 -107.40,100.96 -107.40,100.96 -108.59,103.25 -109.78,105.55 -109.88,105.69 -109.98,105.83 -110.11,105.94 -110.24,106.05 -110.40,106.13 -110.55,106.21 -110.72,106.25 -110.89,106.29 -111.07,106.28 -111.24,106.28 -111.41,106.24 -111.58,106.19 -111.73,106.11 -111.88,106.02 -112.01,105.91 -112.14,105.79 -112.23,105.64 -112.33,105.50 -112.39,105.33 -112.45,105.17 -112.46,105.00 -112.48,104.83 -112.46,104.65 -112.43,104.48 -112.37,104.32 -112.30,104.16 -111.44,103.87 -110.57,103.57 -110.98,103.23 -111.39,102.89 -110.78,102.34 -110.16,101.79 -109.44,101.22 -108.71,100.65 -107.78,99.53 -106.85,98.41 -105.31,97.01 -103.77,95.60 -102.47,94.56 -101.17,93.51 -99.63,92.01 -98.08,90.51 -96.09,88.60 -94.09,86.68 -91.57,84.32 -89.05,81.96 -86.46,79.66 -83.87,77.37 -81.00,74.59 -78.13,71.82 -74.65,68.51 -71.17,65.21 -66.80,61.24 -62.42,57.27 -59.21,54.39 -56.00,51.51 -52.79,48.53 -49.57,45.54 -46.31,42.25 -43.06,38.96 -39.70,35.51 -36.34,32.06 -32.84,28.86 -29.34,25.66 -25.95,22.43 -22.56,19.20 -19.48,16.50 -16.40,13.80 -14.05,11.77 -11.70,9.74 -9.93,8.14 -8.16,6.53 -6.80,5.52 -5.45,4.51 -4.47,3.75 -3.50,2.99 -2.75,2.18 -2.00,1.37 -1.22,0.52 -0.43,-0.32 -0.39,-0.37 -0.34,-0.42 -0.29,-0.46 -0.23,-0.49 -0.17,-0.51 -0.11,-0.53 -0.04,-0.54 0.02,-0.54 0.08,-0.53 0.15,-0.52 0.21,-0.50 0.27,-0.47 0.32,-0.43 0.38,-0.39 0.42,-0.34 0.46,-0.29 0.49,-0.23 0.52,-0.17 0.53,-0.10 0.54,-0.04 0.54,0.02 0.54,0.08 0.52,0.15 0.50,0.21 0.47,0.27 0.43,0.32 0.43,0.32 L 0.43,0.32 Z"/></g><g transform="translate(447.5999755859375 82) rotate(0 65.20001220703125 34.80000305175781)" stroke="none"><path fill="#000000" d="M 0.19,-0.66 Q 0.19,-0.66 1.82,-0.28 3.45,0.09 4.90,0.75 6.35,1.41 8.58,2.60 10.81,3.79 13.63,5.69 16.46,7.58 19.97,10.22 23.48,12.86 27.50,15.80 31.52,18.73 35.78,22.05 40.05,25.37 44.38,28.60 48.71,31.83 52.87,35.05 57.03,38.26 61.29,41.22 65.56,44.17 69.69,47.05 73.81,49.92 77.82,52.27 81.83,54.61 85.81,56.51 89.79,58.42 93.28,59.67 96.77,60.92 100.09,61.91 103.41,62.89 106.44,63.76 109.48,64.63 111.95,65.46 114.42,66.29 116.28,66.62 118.14,66.95 119.51,67.34 120.87,67.74 121.79,67.88 122.72,68.02 123.54,68.09 124.36,68.15 125.02,68.02 125.67,67.89 127.55,67.52 129.43,67.15 129.49,67.13 129.56,67.11 129.63,67.12 129.70,67.13 129.76,67.15 129.82,67.18 129.87,67.23 129.93,67.27 129.96,67.33 129.99,67.39 130.01,67.46 130.02,67.53 130.01,67.60 130.00,67.66 129.97,67.72 129.94,67.79 129.89,67.83 129.84,67.88 129.78,67.91 129.72,67.94 129.65,67.95 129.58,67.96 129.51,67.95 129.45,67.94 129.39,67.90 129.33,67.87 129.28,67.82 129.23,67.77 129.21,67.70 129.18,67.64 129.18,67.57 129.17,67.50 129.19,67.44 129.20,67.37 129.24,67.31 129.28,67.25 129.33,67.21 129.39,67.17 129.45,67.14 129.51,67.12 129.58,67.12 129.65,67.12 129.72,67.14 129.78,67.16 129.84,67.20 129.89,67.24 129.93,67.29 129.97,67.35 129.99,67.42 130.01,67.48 130.01,67.55 130.01,67.62 129.99,67.68 129.96,67.75 129.92,67.80 129.88,67.85 129.82,67.89 129.76,67.93 129.76,67.93 129.76,67.93 128.00,69.11 126.25,70.29 125.22,70.56 124.20,70.83 123.24,70.76 122.29,70.69 121.20,70.51 120.10,70.33 118.88,69.96 117.66,69.59 115.61,69.21 113.56,68.82 111.15,67.98 108.74,67.14 105.71,66.24 102.68,65.33 99.30,64.31 95.92,63.29 92.32,61.98 88.71,60.67 84.64,58.72 80.58,56.76 76.48,54.36 72.39,51.96 68.27,49.09 64.15,46.21 59.84,43.20 55.52,40.20 51.40,36.97 47.28,33.74 42.95,30.46 38.63,27.17 34.42,23.83 30.22,20.50 26.22,17.50 22.23,14.51 18.78,11.87 15.34,9.22 12.62,7.34 9.90,5.45 7.74,4.25 5.58,3.04 4.28,2.39 2.98,1.74 1.39,1.20 -0.19,0.66 -0.26,0.63 -0.34,0.60 -0.41,0.55 -0.47,0.50 -0.53,0.43 -0.58,0.37 -0.62,0.29 -0.65,0.22 -0.67,0.13 -0.69,0.05 -0.68,-0.02 -0.68,-0.10 -0.66,-0.18 -0.63,-0.26 -0.59,-0.34 -0.55,-0.41 -0.49,-0.47 -0.44,-0.53 -0.36,-0.57 -0.29,-0.62 -0.22,-0.65 -0.14,-0.67 -0.05,-0.68 0.02,-0.69 0.10,-0.67 0.19,-0.66 0.19,-0.66 L 0.19,-0.66 Z"/></g><g transform="translate(625.2000122070312 118) rotate(0 23.5999755859375 40)" stroke="none"><path fill="#000000" d="M 0.38,-0.67 Q 0.38,-0.67 2.02,0.19 3.66,1.06 5.67,1.88 7.69,2.70 10.15,3.49 12.62,4.28 15.02,4.84 17.42,5.39 19.55,5.61 21.68,5.82 23.35,6.15 25.01,6.47 26.34,6.58 27.67,6.70 28.69,6.73 29.71,6.77 30.83,6.79 31.95,6.80 33.02,7.05 34.09,7.31 35.17,7.84 36.26,8.36 36.83,10.12 37.41,11.88 37.35,14.06 37.29,16.24 37.03,18.98 36.77,21.72 36.44,24.72 36.12,27.72 36.00,31.01 35.87,34.31 36.06,37.98 36.24,41.64 36.55,45.26 36.86,48.89 37.68,52.42 38.49,55.95 39.29,59.08 40.10,62.21 40.90,64.90 41.70,67.59 42.71,70.07 43.71,72.54 44.34,73.81 44.97,75.07 45.47,76.09 45.97,77.12 46.06,77.77 46.15,78.42 46.17,78.47 46.19,78.51 46.19,78.56 46.20,78.62 46.19,78.67 46.18,78.72 46.16,78.76 46.15,78.81 46.12,78.85 46.09,78.90 46.05,78.93 46.01,78.96 45.96,78.99 45.92,79.01 45.87,79.02 45.82,79.03 45.77,79.03 45.71,79.03 45.66,79.02 45.62,79.00 45.57,78.98 45.53,78.96 45.49,78.92 45.45,78.89 45.42,78.84 45.39,78.80 45.38,78.78 45.37,78.76 45.36,78.69 45.35,78.63 45.36,78.56 45.36,78.49 45.39,78.43 45.42,78.37 45.47,78.32 45.52,78.27 45.58,78.24 45.64,78.20 45.71,78.19 45.78,78.18 45.85,78.20 45.91,78.21 45.97,78.24 46.03,78.27 46.08,78.32 46.13,78.38 46.15,78.44 46.18,78.50 46.19,78.57 46.20,78.64 46.18,78.70 46.16,78.77 46.13,78.83 46.09,78.89 46.04,78.93 45.99,78.98 45.92,79.00 45.86,79.03 45.79,79.03 45.72,79.03 45.65,79.01 45.59,78.99 45.53,78.95 45.48,78.91 45.43,78.86 45.39,78.80 45.37,78.74 45.35,78.67 45.35,78.60 45.35,78.53 45.38,78.47 45.40,78.40 45.44,78.35 45.48,78.30 45.54,78.26 45.60,78.22 45.67,78.20 45.73,78.19 45.80,78.19 45.87,78.20 45.93,78.22 46.00,78.25 46.05,78.29 46.10,78.34 46.13,78.38 46.15,78.42 46.17,78.47 46.19,78.51 46.19,78.56 46.20,78.62 46.19,78.67 46.18,78.72 46.16,78.76 46.15,78.81 46.12,78.85 46.09,78.90 46.05,78.93 46.01,78.96 45.96,78.99 45.92,79.01 45.87,79.02 45.82,79.03 45.77,79.03 45.71,79.03 45.66,79.02 45.62,79.00 45.57,78.98 45.53,78.96 45.49,78.92 45.45,78.89 45.42,78.84 45.39,78.80 44.55,78.53 43.70,78.27 43.17,77.26 42.64,76.26 41.94,74.90 41.23,73.55 40.17,70.96 39.11,68.36 38.31,65.62 37.50,62.87 36.69,59.70 35.88,56.54 35.06,52.82 34.23,49.11 33.94,45.43 33.65,41.76 33.50,37.98 33.35,34.20 33.51,30.82 33.68,27.44 34.04,24.46 34.39,21.49 34.66,18.82 34.92,16.16 35.01,14.28 35.10,12.41 34.95,11.13 34.79,9.84 34.15,9.71 33.51,9.57 32.70,9.34 31.89,9.11 30.73,9.08 29.58,9.04 28.51,8.96 27.45,8.87 26.02,8.70 24.59,8.53 23.02,8.18 21.45,7.84 19.21,7.56 16.97,7.28 14.49,6.68 12.02,6.08 9.51,5.23 7.00,4.37 4.89,3.49 2.77,2.61 1.19,1.64 -0.38,0.67 -0.46,0.62 -0.53,0.56 -0.59,0.49 -0.65,0.42 -0.69,0.33 -0.73,0.25 -0.75,0.15 -0.77,0.06 -0.77,-0.02 -0.77,-0.12 -0.74,-0.21 -0.71,-0.30 -0.67,-0.38 -0.62,-0.46 -0.56,-0.53 -0.49,-0.60 -0.41,-0.65 -0.33,-0.70 -0.24,-0.73 -0.15,-0.76 -0.06,-0.77 0.02,-0.78 0.12,-0.76 0.21,-0.75 0.30,-0.71 0.38,-0.67 0.38,-0.67 L 0.38,-0.67 Z"/></g><g transform="translate(638.0000610351562 164.39999389648438) rotate(0 19.199951171875 0)" stroke="none"><path fill="#000000" d="M 0,-0.80 Q 0,-0.80 1.60,-0.90 3.21,-1.00 5.51,-1.03 7.80,-1.07 10.62,-1.11 13.43,-1.15 16.24,-1.19 19.05,-1.23 21.85,-1.26 24.65,-1.29 26.76,-1.30 28.87,-1.31 30.69,-1.31 32.51,-1.31 34.92,-0.86 37.33,-0.42 37.40,-0.41 37.47,-0.40 37.53,-0.37 37.59,-0.33 37.64,-0.28 37.68,-0.23 37.71,-0.17 37.74,-0.11 37.75,-0.04 37.76,0.02 37.74,0.09 37.73,0.15 37.69,0.21 37.66,0.27 37.60,0.31 37.55,0.36 37.49,0.38 37.42,0.41 37.35,0.41 37.29,0.42 37.22,0.40 37.15,0.38 37.10,0.34 37.04,0.30 37.00,0.25 36.96,0.19 36.93,0.13 36.91,0.06 36.91,-0.00 36.91,-0.06 36.93,-0.13 36.96,-0.19 37.00,-0.25 37.04,-0.30 37.10,-0.34 37.15,-0.38 37.22,-0.40 37.29,-0.42 37.35,-0.41 37.42,-0.41 37.49,-0.38 37.55,-0.36 37.60,-0.31 37.66,-0.27 37.69,-0.21 37.73,-0.15 37.74,-0.09 37.76,-0.02 37.75,0.04 37.74,0.11 37.71,0.17 37.68,0.23 37.64,0.28 37.59,0.33 37.53,0.37 37.47,0.40 37.40,0.41 37.33,0.42 37.33,0.42 37.33,0.42 34.92,0.86 32.51,1.31 30.69,1.31 28.87,1.31 26.76,1.30 24.65,1.29 21.85,1.26 19.05,1.23 16.24,1.19 13.43,1.15 10.62,1.11 7.80,1.07 5.51,1.03 3.21,1.00 1.60,0.90 0,0.80 -0.09,0.78 -0.19,0.77 -0.28,0.74 -0.37,0.70 -0.45,0.65 -0.53,0.59 -0.59,0.52 -0.65,0.45 -0.70,0.36 -0.74,0.28 -0.77,0.19 -0.79,0.09 -0.79,-0.00 -0.79,-0.09 -0.77,-0.19 -0.74,-0.28 -0.70,-0.36 -0.65,-0.45 -0.59,-0.52 -0.53,-0.59 -0.45,-0.65 -0.37,-0.70 -0.28,-0.74 -0.19,-0.77 -0.09,-0.78 0.00,-0.80 0.00,-0.80 L 0,-0.80 Z"/></g><g transform="translate(232.4000244140625 192.03331356048585) rotate(0 17.5999755859375 23.20001220703125)" stroke="none"><path fill="#000000" d="M -0.39,-0.23 Q -0.39,-0.23 0.17,-1.47 0.73,-2.70 2.04,-3.76 3.35,-4.82 5.15,-5.30 6.95,-5.78 8.86,-5.97 10.77,-6.16 12.51,-6.25 14.25,-6.34 16.32,-5.65 18.39,-4.96 20.53,-2.27 22.68,0.42 23.82,3.23 24.96,6.04 25.46,9.13 25.96,12.23 25.72,15.46 25.47,18.70 23.74,23.39 22.01,28.09 20.11,31.70 18.20,35.30 16.47,38.22 14.74,41.13 13.05,43.33 11.36,45.54 9.69,47.20 8.03,48.87 6.83,49.84 5.63,50.81 3.84,51.53 2.05,52.24 0.56,52.54 -0.91,52.83 -2.01,52.95 -3.11,53.07 -4.05,53.12 -4.99,53.17 -5.65,53.19 -6.30,53.21 -7.29,52.54 -8.27,51.87 -8.08,50.96 -7.89,50.05 -7.27,49.72 -6.64,49.38 -5.38,49.30 -4.12,49.21 -2.47,49.17 -0.82,49.14 1.48,49.12 3.79,49.11 8.65,48.87 13.51,48.63 17.17,48.30 20.83,47.97 23.94,47.38 27.05,46.79 29.74,46.09 32.43,45.39 36.83,45.05 41.24,44.71 41.30,44.71 41.37,44.71 41.44,44.73 41.50,44.75 41.56,44.79 41.61,44.83 41.65,44.89 41.69,44.95 41.71,45.01 41.73,45.08 41.73,45.15 41.73,45.22 41.70,45.28 41.68,45.34 41.63,45.40 41.59,45.45 41.53,45.49 41.47,45.52 41.41,45.54 41.34,45.55 41.27,45.55 41.20,45.54 41.14,45.51 41.08,45.49 41.03,45.44 40.98,45.39 40.94,45.33 40.91,45.27 40.90,45.20 40.88,45.14 40.90,45.07 40.91,45.00 40.94,44.94 40.97,44.88 41.02,44.83 41.07,44.78 41.13,44.75 41.19,44.72 41.26,44.71 41.33,44.71 41.39,44.72 41.46,44.73 41.52,44.77 41.58,44.80 41.63,44.85 41.67,44.91 41.70,44.97 41.72,45.03 41.73,45.10 41.73,45.17 41.72,45.24 41.70,45.30 41.66,45.36 41.62,45.42 41.57,45.46 41.51,45.50 41.45,45.53 41.38,45.55 41.38,45.55 41.38,45.55 37.24,46.73 33.09,47.92 30.32,48.65 27.54,49.38 24.30,49.99 21.06,50.59 17.35,50.93 13.63,51.26 8.72,51.49 3.80,51.72 1.51,51.72 -0.78,51.72 -2.38,51.74 -3.98,51.75 -4.96,51.78 -5.94,51.81 -6.10,51.27 -6.27,50.72 -5.70,50.70 -5.12,50.68 -4.25,50.63 -3.38,50.59 -2.38,50.49 -1.38,50.39 -0.09,50.15 1.18,49.92 2.67,49.40 4.15,48.89 5.26,48.03 6.36,47.18 7.94,45.65 9.51,44.11 11.12,42.02 12.74,39.93 14.45,37.08 16.16,34.22 18.02,30.75 19.87,27.27 21.59,22.88 23.31,18.49 23.61,15.51 23.90,12.52 23.50,9.64 23.11,6.75 22.13,4.15 21.15,1.55 19.40,-0.91 17.66,-3.38 15.97,-4.01 14.28,-4.64 12.60,-4.58 10.92,-4.52 9.12,-4.37 7.32,-4.22 5.79,-3.89 4.26,-3.56 3.14,-2.73 2.02,-1.89 1.20,-0.82 0.39,0.23 0.35,0.27 0.32,0.32 0.28,0.35 0.23,0.39 0.18,0.41 0.13,0.43 0.08,0.44 0.02,0.45 -0.02,0.45 -0.08,0.45 -0.13,0.43 -0.18,0.41 -0.23,0.38 -0.28,0.36 -0.32,0.32 -0.35,0.28 -0.38,0.23 -0.41,0.18 -0.43,0.13 -0.44,0.08 -0.45,0.02 -0.45,-0.02 -0.44,-0.08 -0.43,-0.13 -0.41,-0.18 -0.39,-0.23 -0.39,-0.23 L -0.39,-0.23 Z"/></g><g transform="translate(155.5999755859375 271.2333257675171) rotate(0 -36.79998779296875 48.40000915527344)" stroke="none"><path fill="#000000" d="M 0.46,0.25 Q 0.46,0.25 -0.52,2.41 -1.52,4.57 -4.70,10.10 -7.89,15.63 -11.07,20.98 -14.26,26.32 -17.44,31.37 -20.63,36.43 -23.81,41.13 -27.00,45.83 -29.95,50.13 -32.90,54.43 -35.76,58.56 -38.62,62.69 -42.85,67.52 -47.08,72.36 -50.01,75.55 -52.94,78.75 -54.87,80.81 -56.79,82.87 -58.08,84.20 -59.36,85.54 -60.44,86.41 -61.52,87.28 -62.37,88.04 -63.21,88.81 -64.03,89.59 -64.85,90.37 -65.76,91.02 -66.67,91.67 -67.20,92.10 -67.73,92.54 -68.17,92.94 -68.62,93.34 -69.04,93.74 -69.46,94.13 -69.96,94.43 -70.46,94.74 -71.66,95.62 -72.85,96.51 -72.90,96.55 -72.95,96.60 -73.01,96.63 -73.08,96.66 -73.14,96.67 -73.21,96.68 -73.28,96.66 -73.35,96.65 -73.41,96.62 -73.47,96.58 -73.51,96.53 -73.56,96.48 -73.58,96.41 -73.61,96.35 -73.61,96.28 -73.62,96.21 -73.60,96.15 -73.58,96.08 -73.55,96.02 -73.51,95.97 -73.45,95.92 -73.40,95.88 -73.34,95.86 -73.27,95.83 -73.20,95.83 -73.13,95.83 -73.07,95.85 -73.00,95.87 -72.95,95.92 -72.89,95.96 -72.85,96.01 -72.81,96.07 -72.79,96.14 -72.77,96.20 -72.78,96.27 -72.78,96.34 -72.80,96.40 -72.83,96.47 -72.87,96.52 -72.92,96.57 -72.97,96.61 -73.03,96.65 -73.10,96.66 -73.17,96.68 -73.23,96.67 -73.30,96.66 -73.37,96.64 -73.43,96.61 -73.48,96.56 -73.53,96.52 -73.56,96.46 -73.60,96.39 -73.61,96.33 -73.62,96.26 -73.61,96.19 -73.60,96.12 -73.57,96.06 -73.54,96.00 -73.54,96.00 -73.54,96.00 -72.92,94.43 -72.31,92.85 -71.98,92.35 -71.65,91.84 -71.21,91.41 -70.77,90.97 -70.26,90.52 -69.76,90.06 -69.13,89.55 -68.51,89.04 -67.78,88.55 -67.06,88.05 -66.21,87.24 -65.35,86.43 -64.42,85.60 -63.50,84.77 -62.57,84.05 -61.63,83.33 -60.35,82.02 -59.06,80.71 -57.11,78.70 -55.16,76.68 -52.21,73.55 -49.26,70.42 -45.07,65.77 -40.87,61.12 -37.99,57.01 -35.10,52.90 -32.11,48.64 -29.12,44.37 -25.90,39.74 -22.68,35.12 -19.44,30.13 -16.21,25.14 -12.95,19.85 -9.70,14.56 -6.39,9.13 -3.07,3.70 -1.77,1.72 -0.46,-0.25 -0.42,-0.30 -0.38,-0.36 -0.33,-0.40 -0.29,-0.44 -0.23,-0.47 -0.17,-0.49 -0.11,-0.51 -0.05,-0.52 0.01,-0.52 0.07,-0.52 0.13,-0.50 0.19,-0.49 0.25,-0.45 0.31,-0.42 0.35,-0.38 0.40,-0.34 0.43,-0.28 0.47,-0.23 0.49,-0.17 0.51,-0.11 0.52,-0.05 0.52,0.01 0.52,0.07 0.51,0.13 0.48,0.19 0.46,0.25 0.46,0.25 L 0.46,0.25 Z"/></g><g transform="translate(10 460.8333318710327) rotate(0 22.399993896484375 8.800018310546875)" stroke="none"><path fill="#000000" d="M -0.71,-0.21 Q -0.71,-0.21 -0.09,-2.53 0.51,-4.86 1.73,-7.73 2.95,-10.60 4.62,-13.90 6.28,-17.20 7.91,-20.21 9.54,-23.22 11.17,-25.69 12.80,-28.15 13.97,-29.68 15.14,-31.20 16.23,-31.95 17.33,-32.70 18.72,-32.78 20.11,-32.86 21.76,-31.63 23.40,-30.39 26.19,-23.99 28.97,-17.59 31.05,-7.49 33.13,2.60 34.25,9.87 35.37,17.14 35.86,22.78 36.36,28.42 36.80,32.63 37.25,36.84 37.67,40.00 38.09,43.15 38.69,45.07 39.28,46.98 39.64,47.58 40.00,48.19 41.87,47.36 43.75,46.52 43.81,46.49 43.87,46.47 43.94,46.47 44.01,46.46 44.08,46.48 44.14,46.50 44.20,46.54 44.26,46.58 44.30,46.64 44.34,46.69 44.36,46.76 44.38,46.82 44.38,46.89 44.38,46.96 44.36,47.02 44.33,47.09 44.29,47.14 44.25,47.20 44.19,47.24 44.14,47.27 44.07,47.29 44.00,47.31 43.93,47.30 43.87,47.30 43.80,47.27 43.74,47.25 43.69,47.20 43.63,47.16 43.60,47.10 43.56,47.04 43.55,46.97 43.54,46.90 43.54,46.84 43.55,46.77 43.58,46.71 43.61,46.64 43.66,46.59 43.71,46.55 43.77,46.51 43.83,46.48 43.90,46.47 43.96,46.46 44.03,46.47 44.10,46.48 44.16,46.52 44.22,46.55 44.27,46.60 44.31,46.65 44.34,46.71 44.37,46.78 44.38,46.84 44.38,46.91 44.37,46.98 44.35,47.05 44.32,47.11 44.28,47.16 44.23,47.21 44.18,47.25 44.18,47.25 44.18,47.25 42.26,48.64 40.35,50.04 38.79,48.91 37.23,47.78 36.56,45.61 35.88,43.45 35.48,40.25 35.08,37.06 34.66,32.83 34.25,28.59 33.81,23.02 33.37,17.44 32.28,10.22 31.20,3.00 29.18,-6.91 27.16,-16.83 24.63,-22.89 22.09,-28.95 20.97,-29.98 19.85,-31.01 19.06,-31.01 18.27,-31.02 17.47,-30.50 16.67,-29.98 15.54,-28.53 14.42,-27.07 12.83,-24.69 11.24,-22.30 9.61,-19.32 7.98,-16.33 6.32,-13.10 4.65,-9.86 3.45,-7.10 2.24,-4.33 1.47,-2.06 0.71,0.21 0.67,0.29 0.64,0.37 0.58,0.44 0.53,0.52 0.46,0.57 0.39,0.63 0.31,0.67 0.22,0.70 0.14,0.72 0.05,0.74 -0.03,0.73 -0.12,0.73 -0.21,0.70 -0.29,0.68 -0.37,0.63 -0.45,0.59 -0.51,0.52 -0.58,0.46 -0.62,0.38 -0.67,0.31 -0.70,0.22 -0.73,0.14 -0.73,0.05 -0.74,-0.03 -0.72,-0.12 -0.71,-0.21 -0.71,-0.21 L -0.71,-0.21 Z"/></g><g transform="translate(308.4000244140625 271.2333257675171) rotate(0 52 39.59999084472656)" stroke="none"><path fill="#000000" d="M 0.41,-0.53 Q 0.41,-0.53 2.53,1.01 4.65,2.55 7.39,4.58 10.13,6.61 13.61,9.05 17.08,11.49 21.11,14.34 25.15,17.20 29.43,20.47 33.70,23.74 37.83,26.95 41.96,30.16 46.26,33.59 50.55,37.02 54.68,40.30 58.81,43.59 62.41,46.34 66.01,49.10 69.35,51.39 72.69,53.69 75.71,55.58 78.72,57.46 81.16,58.95 83.61,60.44 85.54,61.51 87.48,62.58 89.04,63.51 90.59,64.44 91.77,65.34 92.95,66.23 93.99,66.74 95.03,67.26 96.10,68.04 97.17,68.82 98.24,69.57 99.31,70.31 100.37,70.81 101.42,71.31 102.33,72.16 103.24,73.02 103.75,75.75 104.27,78.47 104.27,78.53 104.27,78.60 104.26,78.67 104.24,78.74 104.20,78.79 104.16,78.85 104.11,78.89 104.05,78.93 103.99,78.96 103.92,78.98 103.85,78.98 103.79,78.98 103.72,78.96 103.65,78.94 103.60,78.89 103.54,78.85 103.51,78.80 103.47,78.74 103.45,78.67 103.43,78.61 103.43,78.54 103.44,78.47 103.46,78.41 103.49,78.34 103.53,78.29 103.58,78.24 103.63,78.20 103.69,78.17 103.76,78.15 103.83,78.14 103.90,78.14 103.96,78.15 104.03,78.18 104.09,78.21 104.14,78.25 104.19,78.30 104.22,78.36 104.25,78.42 104.27,78.49 104.28,78.56 104.27,78.63 104.26,78.69 104.22,78.75 104.19,78.82 104.14,78.86 104.09,78.91 104.03,78.94 103.97,78.97 103.90,78.98 103.83,78.98 103.76,78.97 103.70,78.96 103.64,78.92 103.58,78.88 103.53,78.83 103.49,78.78 103.46,78.72 103.44,78.65 103.44,78.65 103.44,78.65 102.23,76.98 101.02,75.31 100.49,74.78 99.95,74.25 98.70,73.63 97.44,73.02 96.32,72.24 95.20,71.46 94.36,70.82 93.53,70.18 92.25,69.51 90.96,68.83 89.93,68.02 88.90,67.21 87.41,66.29 85.92,65.37 83.94,64.24 81.96,63.11 79.52,61.59 77.08,60.08 74.01,58.14 70.95,56.20 67.56,53.83 64.17,51.46 60.59,48.65 57.01,45.83 52.91,42.51 48.81,39.18 44.56,35.71 40.31,32.24 36.25,28.97 32.18,25.69 28.00,22.36 23.82,19.03 19.86,16.09 15.89,13.15 12.46,10.61 9.02,8.07 6.32,5.98 3.62,3.88 1.60,2.20 -0.41,0.53 -0.47,0.47 -0.53,0.42 -0.57,0.35 -0.61,0.28 -0.64,0.20 -0.66,0.12 -0.67,0.04 -0.67,-0.03 -0.66,-0.11 -0.64,-0.19 -0.61,-0.27 -0.58,-0.34 -0.53,-0.41 -0.48,-0.47 -0.41,-0.52 -0.35,-0.57 -0.27,-0.61 -0.20,-0.64 -0.12,-0.66 -0.04,-0.67 0.03,-0.67 0.12,-0.66 0.19,-0.64 0.27,-0.62 0.34,-0.57 0.41,-0.53 0.41,-0.53 L 0.41,-0.53 Z"/></g><g transform="translate(452.4000244140625 357.6333196640015) rotate(0 -9.600006103515625 32.800018310546875)" stroke="none"><path fill="#000000" d="M 0.16,0.49 Q 0.16,0.49 -1.07,1.36 -2.32,2.23 -3.75,2.91 -5.18,3.58 -7.05,4.17 -8.92,4.75 -11.03,5.45 -13.14,6.15 -17.32,7.18 -21.50,8.20 -23.75,8.63 -26.01,9.05 -27.33,9.44 -28.65,9.83 -30.06,10.03 -31.47,10.22 -32.51,10.30 -33.56,10.38 -32.51,11.70 -31.46,13.02 -30.05,14.99 -28.64,16.97 -26.91,19.39 -25.17,21.82 -23.73,24.03 -22.28,26.24 -21.19,28.13 -20.10,30.01 -19.23,31.19 -18.37,32.36 -17.88,33.53 -17.39,34.71 -17.05,35.24 -16.72,35.78 -16.77,37.45 -16.83,39.13 -16.67,38.51 -16.50,37.89 -16.48,38.10 -16.46,38.30 -16.49,38.51 -16.52,38.71 -16.59,38.90 -16.67,39.09 -16.79,39.26 -16.91,39.42 -17.06,39.56 -17.22,39.69 -17.40,39.78 -17.59,39.87 -17.79,39.92 -17.99,39.96 -18.19,39.96 -18.40,39.96 -18.59,39.90 -18.79,39.85 -18.97,39.75 -19.15,39.65 -19.30,39.52 -19.45,39.38 -19.57,39.21 -19.68,39.04 -19.75,38.84 -19.82,38.65 -19.93,37.43 -20.05,36.22 -20.05,35.18 -20.05,34.14 -19.49,32.89 -18.93,31.63 -17.58,30.54 -16.23,29.45 -14.39,28.76 -12.55,28.07 -10.06,27.78 -7.57,27.49 -3.44,27.87 0.68,28.24 4.15,29.38 7.62,30.51 9.64,31.74 11.67,32.97 12.98,33.97 14.30,34.97 15.23,36.24 16.15,37.50 16.79,39.04 17.42,40.58 17.70,42.00 17.98,43.42 18.09,44.76 18.20,46.10 17.75,47.61 17.29,49.13 16.32,50.53 15.35,51.93 14.18,53.02 13.02,54.11 11.61,55.24 10.20,56.38 8.89,57.32 7.58,58.26 6.31,59.09 5.04,59.92 3.78,60.69 2.51,61.45 1.23,62.15 -0.04,62.84 -2.59,64.07 -5.13,65.31 -5.19,65.33 -5.25,65.36 -5.32,65.36 -5.39,65.37 -5.46,65.35 -5.52,65.33 -5.58,65.30 -5.64,65.26 -5.68,65.20 -5.72,65.15 -5.75,65.09 -5.77,65.02 -5.77,64.95 -5.77,64.88 -5.75,64.82 -5.73,64.75 -5.69,64.70 -5.65,64.64 -5.59,64.60 -5.53,64.56 -5.47,64.54 -5.40,64.52 -5.33,64.53 -5.27,64.53 -5.20,64.55 -5.14,64.58 -5.08,64.62 -5.03,64.67 -4.99,64.72 -4.96,64.78 -4.94,64.85 -4.93,64.92 -4.93,64.98 -4.94,65.05 -4.97,65.12 -5.00,65.18 -5.04,65.23 -5.09,65.28 -5.15,65.31 -5.21,65.35 -5.28,65.36 -5.34,65.37 -5.41,65.36 -5.48,65.35 -5.54,65.32 -5.60,65.29 -5.65,65.24 -5.70,65.19 -5.73,65.13 -5.76,65.06 -5.77,65.00 -5.78,64.93 -5.76,64.86 -5.75,64.79 -5.71,64.73 -5.68,64.67 -5.63,64.63 -5.58,64.58 -5.58,64.58 -5.58,64.58 -3.38,62.87 -1.18,61.15 -0.05,60.23 1.06,59.31 2.22,58.42 3.39,57.54 4.58,56.66 5.77,55.78 7.01,54.87 8.24,53.95 9.57,52.88 10.90,51.80 11.85,50.95 12.81,50.09 13.57,49.08 14.33,48.07 14.71,47.16 15.09,46.25 15.00,45.12 14.91,43.99 14.72,42.85 14.53,41.72 14.06,40.49 13.59,39.26 12.99,38.34 12.39,37.42 11.21,36.53 10.02,35.64 8.32,34.57 6.62,33.51 3.50,32.50 0.38,31.50 -3.42,31.16 -7.22,30.83 -9.33,31.04 -11.44,31.25 -12.84,31.72 -14.25,32.19 -15.13,32.76 -16.01,33.32 -16.36,33.81 -16.70,34.29 -16.68,35.18 -16.65,36.07 -16.58,36.98 -16.50,37.89 -16.48,38.10 -16.46,38.30 -16.49,38.51 -16.52,38.71 -16.59,38.90 -16.67,39.09 -16.79,39.26 -16.91,39.42 -17.06,39.55 -17.22,39.69 -17.40,39.78 -17.59,39.87 -17.79,39.92 -17.99,39.96 -18.19,39.96 -18.39,39.96 -18.59,39.90 -18.79,39.85 -18.97,39.75 -19.15,39.65 -19.30,39.52 -19.45,39.38 -19.57,39.21 -19.68,39.04 -19.75,38.84 -19.82,38.65 -19.73,38.07 -19.64,37.49 -20.10,36.72 -20.55,35.96 -20.84,35.15 -21.12,34.35 -22.08,33.03 -23.04,31.72 -24.08,29.91 -25.13,28.10 -26.53,25.95 -27.94,23.80 -29.67,21.37 -31.41,18.94 -32.74,17.07 -34.07,15.20 -35.27,13.71 -36.46,12.22 -36.75,10.97 -37.03,9.71 -36.38,8.70 -35.74,7.69 -34.80,7.34 -33.85,7.00 -32.89,6.93 -31.92,6.85 -30.76,6.71 -29.59,6.56 -28.11,6.14 -26.63,5.71 -24.46,5.30 -22.28,4.90 -18.20,3.97 -14.12,3.04 -11.95,2.39 -9.78,1.73 -8.07,1.30 -6.36,0.87 -4.78,0.23 -3.19,-0.39 -1.68,-0.44 -0.16,-0.49 -0.10,-0.51 -0.04,-0.52 0.02,-0.52 0.08,-0.51 0.14,-0.50 0.20,-0.48 0.26,-0.45 0.31,-0.42 0.36,-0.37 0.40,-0.33 0.44,-0.27 0.47,-0.22 0.49,-0.16 0.51,-0.10 0.52,-0.04 0.52,0.02 0.51,0.08 0.50,0.14 0.48,0.20 0.45,0.26 0.41,0.31 0.37,0.36 0.32,0.40 0.28,0.44 0.22,0.47 0.16,0.49 0.16,0.49 L 0.16,0.49 Z"/></g><g transform="translate(414 420.033344078064) rotate(0 -53.20001220703125 45.600006103515625)" stroke="none"><path fill="#000000" d="M 0.56,0.56 Q 0.56,0.56 -0.53,1.76 -1.62,2.97 -3.47,4.86 -5.32,6.75 -7.97,8.98 -10.61,11.21 -15.15,14.75 -19.69,18.28 -23.48,20.93 -27.28,23.57 -30.71,26.07 -34.14,28.56 -37.43,31.00 -40.73,33.45 -43.94,36.08 -47.16,38.72 -50.11,41.43 -53.07,44.15 -55.93,46.91 -58.79,49.68 -61.60,52.67 -64.41,55.67 -67.23,58.57 -70.05,61.48 -72.84,64.34 -75.64,67.20 -78.20,69.80 -80.76,72.40 -83.22,74.89 -85.69,77.38 -87.91,79.39 -90.13,81.40 -92.41,83.62 -94.69,85.84 -96.18,87.06 -97.67,88.28 -98.79,89.05 -99.92,89.83 -100.56,90.33 -101.20,90.84 -101.70,91.28 -102.20,91.72 -103.33,91.94 -104.47,92.17 -105.22,91.60 -105.97,91.03 -106.16,89.85 -106.35,88.67 -106.49,86.78 -106.62,84.90 -106.62,84.83 -106.63,84.76 -106.61,84.70 -106.59,84.63 -106.55,84.57 -106.52,84.51 -106.46,84.47 -106.41,84.43 -106.34,84.41 -106.28,84.38 -106.21,84.38 -106.14,84.38 -106.08,84.40 -106.01,84.42 -105.95,84.46 -105.90,84.50 -105.86,84.56 -105.82,84.61 -105.80,84.68 -105.78,84.75 -105.78,84.82 -105.79,84.88 -105.81,84.95 -105.83,85.01 -105.88,85.07 -105.92,85.12 -105.98,85.16 -106.04,85.19 -106.11,85.21 -106.17,85.22 -106.24,85.22 -106.31,85.21 -106.37,85.18 -106.43,85.16 -106.49,85.11 -106.54,85.06 -106.57,85.00 -106.60,84.94 -106.62,84.88 -106.63,84.81 -106.62,84.74 -106.61,84.67 -106.58,84.61 -106.55,84.55 -106.50,84.50 -106.45,84.45 -106.39,84.42 -106.32,84.39 -106.26,84.38 -106.19,84.38 -106.12,84.39 -106.05,84.40 -105.99,84.44 -105.93,84.47 -105.89,84.52 -105.84,84.57 -105.82,84.64 -105.79,84.70 -105.79,84.70 -105.79,84.70 -105.05,86.47 -104.30,88.24 -104.28,88.78 -104.25,89.32 -103.70,88.83 -103.16,88.35 -102.43,87.78 -101.70,87.21 -100.67,86.53 -99.65,85.84 -98.25,84.72 -96.85,83.59 -94.50,81.37 -92.15,79.15 -89.97,77.21 -87.79,75.28 -85.31,72.81 -82.83,70.34 -80.24,67.77 -77.66,65.20 -74.84,62.38 -72.02,59.56 -69.21,56.68 -66.40,53.80 -63.54,50.76 -60.68,47.72 -57.78,44.94 -54.89,42.16 -51.86,39.40 -48.84,36.65 -45.56,33.99 -42.29,31.33 -38.97,28.90 -35.66,26.46 -32.19,23.97 -28.73,21.48 -24.96,18.89 -21.19,16.30 -16.59,12.92 -11.99,9.55 -9.37,7.43 -6.75,5.32 -4.86,3.47 -2.97,1.62 -1.76,0.53 -0.56,-0.56 -0.48,-0.62 -0.41,-0.67 -0.32,-0.71 -0.23,-0.75 -0.14,-0.77 -0.04,-0.79 0.04,-0.78 0.14,-0.78 0.23,-0.75 0.32,-0.72 0.40,-0.67 0.48,-0.62 0.55,-0.55 0.62,-0.48 0.67,-0.40 0.72,-0.32 0.75,-0.23 0.78,-0.14 0.78,-0.04 0.79,0.04 0.77,0.14 0.75,0.23 0.71,0.32 0.67,0.41 0.62,0.48 0.56,0.56 0.56,0.56 L 0.56,0.56 Z"/></g><g transform="translate(254.79998779296875 540.0333440780639) rotate(0 18 26)" stroke="none"><path fill="#000000" d="M -0.13,-0.40 Q -0.13,-0.40 1.19,-1.01 2.52,-1.63 4.28,-2.07 6.05,-2.51 7.90,-3.15 9.75,-3.79 11.73,-4.31 13.71,-4.83 15.51,-5.06 17.31,-5.29 18.53,-5.39 19.75,-5.49 20.97,-5.54 22.19,-5.58 23.17,-5.60 24.15,-5.62 25.03,-5.63 25.92,-5.63 26.73,-5.32 27.55,-5.00 27.97,-4.28 28.40,-3.56 28.55,-2.51 28.70,-1.46 28.52,-0.02 28.33,1.40 27.51,2.81 26.69,4.22 25.66,5.69 24.63,7.16 23.75,8.47 22.87,9.78 21.75,10.88 20.63,11.98 19.74,12.89 18.84,13.79 17.95,14.46 17.06,15.12 17.83,14.75 18.60,14.37 20.15,14.31 21.71,14.24 23.28,14.22 24.86,14.19 26.45,14.18 28.04,14.17 29.43,14.17 30.81,14.16 32.07,14.67 33.34,15.17 34.46,16.42 35.58,17.67 36.11,19.50 36.63,21.34 36.15,25.25 35.68,29.15 34.27,32.50 32.86,35.84 30.83,38.70 28.81,41.56 26.76,43.72 24.72,45.87 22.66,47.51 20.60,49.15 19.04,50.29 17.48,51.44 16.40,52.34 15.31,53.25 14.02,53.91 12.72,54.58 10.86,55.55 9.01,56.52 8.95,56.56 8.89,56.59 8.82,56.61 8.75,56.62 8.68,56.61 8.62,56.60 8.55,56.57 8.49,56.54 8.44,56.49 8.39,56.44 8.36,56.38 8.33,56.32 8.32,56.25 8.31,56.18 8.33,56.12 8.34,56.05 8.37,55.99 8.41,55.93 8.46,55.88 8.51,55.84 8.57,55.81 8.64,55.78 8.70,55.78 8.77,55.77 8.84,55.79 8.91,55.80 8.96,55.84 9.02,55.88 9.07,55.93 9.11,55.98 9.13,56.05 9.16,56.11 9.16,56.18 9.16,56.25 9.14,56.32 9.12,56.38 9.08,56.44 9.04,56.49 8.98,56.53 8.93,56.57 8.86,56.59 8.80,56.61 8.73,56.61 8.66,56.61 8.60,56.59 8.53,56.56 8.48,56.52 8.42,56.48 8.39,56.42 8.35,56.36 8.33,56.30 8.32,56.23 8.32,56.16 8.33,56.09 8.35,56.03 8.38,55.97 8.43,55.91 8.47,55.86 8.47,55.86 8.47,55.86 9.99,54.11 11.51,52.35 12.54,51.76 13.57,51.16 14.71,50.19 15.85,49.22 17.37,48.10 18.89,46.99 20.81,45.48 22.74,43.97 24.66,41.97 26.59,39.96 28.49,37.36 30.39,34.76 31.73,31.76 33.07,28.76 33.65,25.30 34.23,21.85 33.98,20.44 33.74,19.03 33.06,18.05 32.38,17.07 31.56,16.65 30.75,16.24 29.40,16.25 28.06,16.25 26.48,16.26 24.90,16.27 23.34,16.30 21.79,16.32 20.30,16.38 18.81,16.44 17.26,16.50 15.71,16.56 15.27,15.82 14.82,15.09 15.33,14.28 15.84,13.47 16.64,12.91 17.45,12.36 18.39,11.48 19.32,10.61 20.34,9.68 21.36,8.74 22.26,7.44 23.17,6.14 24.17,4.71 25.17,3.28 25.89,2.19 26.60,1.10 26.78,-0.08 26.96,-1.27 26.90,-2.07 26.84,-2.87 26.36,-3.40 25.89,-3.94 25.03,-3.93 24.17,-3.92 23.21,-3.91 22.25,-3.90 21.06,-3.86 19.88,-3.83 18.69,-3.75 17.51,-3.66 15.81,-3.47 14.11,-3.27 12.18,-2.79 10.26,-2.30 8.33,-1.66 6.41,-1.02 4.70,-0.61 2.99,-0.20 1.56,0.09 0.13,0.40 0.08,0.41 0.03,0.42 -0.01,0.42 -0.06,0.42 -0.11,0.40 -0.16,0.39 -0.21,0.36 -0.25,0.34 -0.29,0.30 -0.33,0.27 -0.35,0.22 -0.38,0.18 -0.40,0.13 -0.42,0.08 -0.42,0.03 -0.42,-0.01 -0.42,-0.06 -0.41,-0.11 -0.39,-0.16 -0.37,-0.21 -0.34,-0.25 -0.30,-0.29 -0.26,-0.32 -0.22,-0.36 -0.18,-0.38 -0.13,-0.40 -0.13,-0.40 L -0.13,-0.40 Z"/></g><g transform="translate(318.1333312988281 605.4000041325887) rotate(0 60.26666259765625 35.199991861979186)" stroke="none"><path fill="#000000" d="M 0.19,-0.49 Q 0.19,-0.49 1.86,-0.20 3.52,0.07 8.28,2.77 13.04,5.46 17.23,8.47 21.42,11.47 25.64,14.57 29.86,17.67 33.83,20.84 37.80,24.00 41.33,26.87 44.86,29.73 48.50,32.44 52.14,35.14 60.05,39.60 67.96,44.07 75.31,47.82 82.66,51.57 90.35,55.00 98.05,58.42 102.57,60.50 107.10,62.58 110.87,64.39 114.64,66.20 116.34,66.94 118.05,67.68 119.01,67.44 119.98,67.20 120.03,67.15 120.08,67.11 120.15,67.08 120.21,67.05 120.28,67.05 120.35,67.04 120.41,67.06 120.48,67.07 120.54,67.11 120.60,67.15 120.64,67.20 120.68,67.25 120.71,67.32 120.73,67.38 120.73,67.45 120.73,67.52 120.71,67.59 120.69,67.65 120.65,67.71 120.61,67.76 120.56,67.80 120.50,67.85 120.44,67.87 120.37,67.89 120.30,67.88 120.23,67.88 120.17,67.86 120.10,67.83 120.05,67.79 120.00,67.75 119.96,67.69 119.92,67.63 119.91,67.57 119.89,67.50 119.89,67.43 119.90,67.36 119.93,67.30 119.95,67.24 120.00,67.18 120.05,67.13 120.11,67.10 120.17,67.07 120.23,67.05 120.30,67.04 120.37,67.05 120.44,67.06 120.50,67.09 120.56,67.12 120.61,67.17 120.66,67.22 120.69,67.28 120.72,67.34 120.73,67.41 120.74,67.48 120.72,67.54 120.71,67.61 120.68,67.67 120.64,67.73 120.64,67.73 120.64,67.73 119.01,69.29 117.38,70.85 115.28,70.05 113.17,69.26 109.42,67.47 105.68,65.67 101.17,63.60 96.67,61.53 88.89,58.06 81.11,54.60 73.70,50.81 66.28,47.02 58.22,42.40 50.15,37.77 46.52,34.96 42.88,32.15 39.39,29.26 35.90,26.37 32.00,23.21 28.10,20.05 23.91,16.92 19.73,13.80 15.68,10.82 11.64,7.84 7.12,5.11 2.60,2.37 1.20,1.43 -0.19,0.49 -0.25,0.46 -0.31,0.43 -0.35,0.39 -0.40,0.34 -0.44,0.29 -0.47,0.24 -0.50,0.17 -0.52,0.11 -0.52,0.05 -0.53,-0.00 -0.52,-0.07 -0.51,-0.13 -0.49,-0.19 -0.46,-0.25 -0.43,-0.31 -0.39,-0.36 -0.34,-0.40 -0.29,-0.44 -0.23,-0.47 -0.18,-0.50 -0.11,-0.51 -0.05,-0.53 0.00,-0.53 0.07,-0.53 0.13,-0.51 0.19,-0.49 0.19,-0.49 L 0.19,-0.49 Z"/></g><g transform="translate(513.3333638509115 633.1333211898803) rotate(0 -20.26668294270837 47.46667480468756)" stroke="none"><path fill="#000000" d="M -0.28,0.48 Q -0.28,0.48 -1.88,-0.33 -3.47,-1.15 -4.40,-1.50 -5.34,-1.84 -5.88,-2.37 -6.41,-2.90 -7.03,-2.92 -7.64,-2.94 -8.44,-3.36 -9.23,-3.78 -10.40,-4.29 -11.57,-4.80 -12.20,-4.86 -12.84,-4.92 -14.04,-4.96 -15.24,-5.01 -16.68,-5.03 -18.12,-5.05 -19.96,-5.06 -21.80,-5.06 -23.51,-5.06 -25.21,-5.06 -27.16,-5.06 -29.11,-5.05 -30.86,-5.04 -32.61,-5.02 -33.97,-5.00 -35.32,-4.97 -36.50,-4.96 -37.67,-4.94 -38.24,-4.67 -38.81,-4.39 -39.23,-2.97 -39.64,-1.54 -39.15,0.53 -38.65,2.61 -37.83,5.38 -37.00,8.16 -36.03,11.51 -35.05,14.86 -34.02,18.10 -32.99,21.34 -32.22,24.30 -31.44,27.26 -31.11,29.83 -30.77,32.40 -30.64,34.42 -30.50,36.44 -30.44,37.91 -30.38,39.38 -30.36,40.63 -30.33,41.88 -30.32,42.71 -30.31,43.55 -30.31,44.21 -30.30,44.88 -30.42,45.71 -30.53,46.55 -31.07,47.23 -31.60,47.91 -32.80,48.02 -34.00,48.13 -34.88,47.44 -35.75,46.74 -36.36,45.75 -36.97,44.76 -37.29,43.19 -37.61,41.62 -37.40,39.61 -37.19,37.59 -36.41,35.69 -35.63,33.79 -33.94,31.93 -32.25,30.07 -29.95,28.37 -27.64,26.66 -24.67,25.56 -21.69,24.47 -18.20,24.00 -14.71,23.54 -11.40,23.36 -8.08,23.17 -4.98,23.72 -1.87,24.27 0.43,25.15 2.73,26.04 4.41,27.07 6.09,28.11 7.53,29.58 8.97,31.04 9.98,33.39 11.00,35.74 11.41,38.99 11.82,42.24 11.67,46.43 11.52,50.62 9.26,57.48 7.01,64.33 4.81,69.37 2.62,74.41 -0.23,78.23 -3.09,82.04 -6.18,85.20 -9.26,88.36 -12.79,90.99 -16.32,93.61 -19.68,95.66 -23.05,97.70 -26.77,98.93 -30.49,100.17 -33.58,100.98 -36.67,101.79 -39.00,102.15 -41.34,102.50 -43.26,101.99 -45.18,101.48 -46.75,100.20 -48.31,98.92 -49.61,97.03 -50.92,95.14 -51.53,91.96 -52.15,88.79 -52.26,85.64 -52.38,82.49 -51.98,78.69 -51.58,74.89 -51.57,73.29 -51.56,71.70 -51.55,71.63 -51.55,71.56 -51.51,71.50 -51.48,71.44 -51.43,71.39 -51.39,71.34 -51.32,71.31 -51.26,71.28 -51.19,71.27 -51.13,71.26 -51.06,71.28 -50.99,71.29 -50.93,71.32 -50.87,71.36 -50.83,71.41 -50.78,71.46 -50.75,71.52 -50.73,71.59 -50.72,71.65 -50.72,71.72 -50.73,71.79 -50.75,71.86 -50.79,71.91 -50.82,71.97 -50.88,72.01 -50.93,72.06 -51.00,72.08 -51.06,72.10 -51.13,72.11 -51.20,72.11 -51.26,72.09 -51.33,72.07 -51.39,72.03 -51.44,71.99 -51.48,71.93 -51.52,71.87 -51.54,71.81 -51.56,71.74 -51.56,71.67 -51.56,71.61 -51.53,71.54 -51.51,71.48 -51.47,71.42 -51.42,71.37 -51.36,71.33 -51.31,71.30 -51.24,71.28 -51.17,71.26 -51.10,71.27 -51.04,71.27 -50.97,71.30 -50.91,71.33 -50.86,71.38 -50.81,71.42 -50.77,71.48 -50.74,71.54 -50.73,71.61 -50.71,71.68 -50.71,71.68 -50.71,71.68 -50.63,73.27 -50.55,74.87 -49.97,78.57 -49.40,82.28 -49.09,85.25 -48.79,88.22 -48.43,90.78 -48.06,93.35 -47.05,94.87 -46.05,96.38 -45.07,97.34 -44.08,98.29 -42.90,98.72 -41.71,99.15 -39.62,98.83 -37.53,98.50 -34.54,97.72 -31.54,96.94 -28.17,95.86 -24.79,94.78 -21.57,92.83 -18.34,90.88 -15.01,88.43 -11.69,85.98 -8.74,82.98 -5.80,79.98 -3.14,76.51 -0.48,73.03 1.65,68.15 3.79,63.26 5.96,56.86 8.13,50.46 8.29,46.54 8.44,42.63 8.14,39.80 7.83,36.98 7.16,35.13 6.48,33.28 5.40,32.08 4.31,30.87 2.92,29.97 1.54,29.07 -0.46,28.26 -2.47,27.46 -5.20,26.94 -7.92,26.41 -11.11,26.59 -14.30,26.76 -17.46,27.14 -20.61,27.52 -23.17,28.41 -25.74,29.30 -27.79,30.82 -29.85,32.34 -31.21,33.75 -32.57,35.15 -33.20,36.59 -33.83,38.04 -34.04,39.56 -34.26,41.09 -34.14,42.09 -34.03,43.09 -33.86,43.99 -33.70,44.90 -33.71,44.24 -33.71,43.59 -33.72,42.77 -33.73,41.94 -33.75,40.73 -33.78,39.52 -33.83,38.09 -33.89,36.67 -34.02,34.75 -34.15,32.83 -34.44,30.46 -34.74,28.09 -35.45,25.21 -36.16,22.33 -37.17,19.05 -38.19,15.76 -39.14,12.41 -40.09,9.05 -40.91,6.16 -41.73,3.26 -42.23,0.67 -42.73,-1.92 -42.23,-4.04 -41.72,-6.16 -40.79,-6.67 -39.85,-7.17 -38.79,-7.51 -37.74,-7.85 -36.53,-7.83 -35.32,-7.82 -33.97,-7.79 -32.61,-7.76 -30.86,-7.75 -29.11,-7.73 -27.16,-7.72 -25.20,-7.71 -23.49,-7.70 -21.79,-7.69 -19.93,-7.67 -18.07,-7.65 -16.59,-7.61 -15.10,-7.58 -13.74,-7.49 -12.37,-7.40 -10.92,-6.81 -9.46,-6.22 -8.76,-5.97 -8.07,-5.72 -7.58,-5.36 -7.09,-4.99 -5.85,-4.19 -4.62,-3.39 -3.64,-2.95 -2.65,-2.52 -1.18,-1.50 0.28,-0.48 0.34,-0.44 0.39,-0.39 0.43,-0.34 0.47,-0.29 0.50,-0.23 0.53,-0.16 0.54,-0.10 0.56,-0.03 0.55,0.03 0.55,0.09 0.53,0.16 0.51,0.22 0.47,0.28 0.44,0.34 0.39,0.39 0.34,0.44 0.29,0.47 0.23,0.51 0.16,0.53 0.10,0.55 0.03,0.55 -0.03,0.56 -0.09,0.54 -0.16,0.53 -0.22,0.50 -0.28,0.48 -0.28,0.48 L -0.28,0.48 Z"/></g></svg>