<svg xmlns="http://www.w3.org/2000/svg" width="128" height="128" xml:space="preserve" viewBox="0 0 128 128"><path fill="#282D33" d="M63.479 128c-14.186 0-22.662-32.54-22.662-64 0-14.515 1.694-28.685 4.771-39.901l3.857 1.059C46.461 36.038 44.817 49.833 44.817 64c0 35.358 9.835 60 18.662 60 8.826 0 18.66-24.642 18.66-60 0-35.359-9.834-60-18.66-60-1.23 0-2.486.464-3.733 1.38l-2.367-3.225C59.327.726 61.379 0 63.479 0c14.184 0 22.66 32.541 22.66 64 0 31.46-8.476 64-22.66 64z"/><path fill="#282D33" d="M105.553 101.73c-3.316 0-7.139-.439-11.436-1.323-12.394-2.551-27.297-8.573-41.962-16.957C28.224 69.771 9.993 52.548 6.79 40.59c-.894-3.336-.647-6.229.735-8.598 3.271-5.612 12.024-7.135 25.316-4.398 12.396 2.55 27.298 8.571 41.962 16.954 13.244 7.57 25.139 16.46 33.493 25.033l-2.865 2.791c-8.102-8.313-19.684-16.961-32.612-24.352C41.874 30.332 15.392 26.437 10.98 34.007c-.825 1.414-.935 3.28-.327 5.548C13.553 50.377 31.435 67 54.141 79.978c30.943 17.69 57.424 21.583 61.84 14.015.654-1.122.858-2.539.608-4.212l3.955-.592c.39 2.595.017 4.89-1.108 6.818-2.215 3.799-6.941 5.723-13.883 5.723z"/><path fill="#282D33" d="m33.33 100.304-.83-3.912c11.903-2.525 26.221-8.354 40.318-16.414 22.704-12.977 40.587-29.599 43.487-40.422.608-2.268.499-4.134-.325-5.548-4.415-7.567-30.897-3.673-61.84 14.013-22.707 12.982-40.59 29.606-43.488 40.428-.607 2.267-.497 4.132.327 5.544.416.716 1.003 1.314 1.797 1.833l-2.186 3.35c-1.311-.855-2.343-1.922-3.069-3.17-1.379-2.364-1.627-5.256-.734-8.592C9.991 75.457 28.222 58.23 52.155 44.548c14.666-8.382 29.568-14.403 41.962-16.954 13.291-2.734 22.045-1.214 25.318 4.398 1.382 2.369 1.628 5.262.734 8.599-3.205 11.958-21.437 29.182-45.367 42.859-14.446 8.26-29.175 14.245-41.472 16.854zM112.109 86.457c-5.31 0-9.629-4.286-9.629-9.555 0-5.268 4.319-9.553 9.629-9.553 5.309 0 9.627 4.285 9.627 9.553 0 5.269-4.318 9.555-9.627 9.555zm0-15.107c-3.104 0-5.629 2.491-5.629 5.553 0 3.063 2.525 5.555 5.629 5.555 3.103 0 5.627-2.492 5.627-5.555 0-3.062-2.524-5.553-5.627-5.553zM50.446 26.66c-5.31 0-9.629-4.286-9.629-9.553s4.319-9.553 9.629-9.553 9.629 4.285 9.629 9.553-4.32 9.553-9.629 9.553zm0-15.106c-3.104 0-5.629 2.491-5.629 5.553s2.525 5.553 5.629 5.553 5.629-2.491 5.629-5.553-2.525-5.553-5.629-5.553z"/><path fill="#282D33" d="M25.653 109.117c-5.309 0-9.628-4.286-9.628-9.555 0-5.268 4.319-9.554 9.628-9.554s9.628 4.286 9.628 9.554c0 5.269-4.319 9.555-9.628 9.555zm0-15.108c-3.103 0-5.628 2.491-5.628 5.554s2.525 5.555 5.628 5.555 5.628-2.492 5.628-5.555-2.525-5.554-5.628-5.554z"/><g><path fill="#282D33" d="M64.002 75.127c-6.186 0-11.218-4.991-11.218-11.127 0-6.135 5.032-11.127 11.218-11.127S75.22 57.865 75.22 64c0 6.136-5.032 11.127-11.218 11.127zm0-18.254c-3.98 0-7.218 3.197-7.218 7.127s3.238 7.127 7.218 7.127c3.979 0 7.218-3.197 7.218-7.127s-3.239-7.127-7.218-7.127z"/></g></svg>